<?xml version="1.0" encoding="utf-8" ?><svg xmlns="http://www.w3.org/2000/svg" xmlns:xlink="http://www.w3.org/1999/xlink" width="612" height="306" viewBox="0 0 612 306"><path fill="#FFFEFA" d="M0 0L37.4102 0L47.0873 0L69.8941 0L78.9642 0L99.0157 0L105.653 0L121.07 0L127.927 0L143.891 0L150.507 0L165.383 0L172.193 0L224.785 0L232.295 0L239.145 0L246.344 0L268.916 0L280.523 0L343.288 0L353.129 0L375.836 0L385.059 0L404.873 0L411.653 0L426.915 0L433.862 0L449.625 0L456.597 0L471.417 0L478.225 0L530.85 0L538.281 0L545.118 0L552.526 0L574.711 0L612 0L612 8.15546L612 18.4552L612 25.8621L612 50.5578L612 57.8078L612 72.4134L612 79.3273L612 94.6613L612 101.848L612 152.028L612 159.043L612 169.504L612 178.643L612 229.35L612 241.418L612 257.061L612 263.774L612 282.234L612 289L612 306L584.471 306L574.779 306L552.172 306L545.301 306L538.225 306L530.565 306L478.312 306L471.442 306L456.508 306L449.701 306L434.046 306L427.136 306L411.606 306L404.92 306L384.583 306L375.475 306L352.763 306L342.892 306L278.624 306L268.813 306L246.168 306L239.423 306L232.163 306L224.5 306L172.295 306L165.456 306L150.509 306L143.69 306L128.042 306L121.171 306L105.586 306L98.8952 306L78.6374 306L69.5521 306L46.8735 306L36.9633 306L0 306L0 289.116L0 282.298L0 263.887L0 257.177L0 241L0 228.63L0 178.918L0 169.625L0 159.037L0 152.324L0 101.664L0 94.4726L0 79.2302L0 72.2159L0 57.7724L0 50.8237L0 26.0372L0 18.5623L0 8.2389L0 1.46388L0 0Z"/><path fill="#7053D0" d="M608.256 235.335C599.736 226.582 593.681 218.002 589.161 205.989C584.851 194.533 581.38 173.358 596.277 167.305C601.582 165.15 607.034 167.169 612 169.504L612 178.643L612 229.35L612 241.418C600.596 251.818 587.612 249.684 574.037 244.968C573.994 245.078 573.948 245.187 573.901 245.295C569.612 255.183 557.78 265.161 547.768 268.688C543.998 270.016 527.104 275.912 528.763 267.26C529.144 265.271 535.798 264.905 537.249 264.702C550.858 262.191 561.505 254.234 567.999 242.046C557.788 236.359 549.63 227.598 544.685 217.008C540.563 208.385 537.92 198.311 541.191 188.893C544.687 178.735 556.18 170.47 566.655 176.846C575.949 182.502 578.162 195.388 579.531 205.31C581.009 216.017 580.61 228.493 576.717 238.649C582 240.926 588.852 242.287 594.611 242.03C600.74 241.756 604.231 239.756 608.256 235.335Z"/><path fill="#FFFEFA" d="M612 229.35C611.798 229.158 611.599 228.963 611.401 228.767C601.083 218.458 592.226 201.64 592.17 186.749C592.193 183.008 592.965 178.131 595.759 175.455C599.471 171.899 604.86 172.861 608.673 175.672C609.97 176.629 610.871 177.503 612 178.643L612 229.35Z"/><path fill="#FFFEFA" d="M557.17 181.462C558.365 181.299 559.614 181.287 560.781 181.616C564.153 182.564 566.537 185.229 568.153 188.218C572.878 196.952 574.098 212.328 573.343 222.038C572.972 226.806 572.076 231.401 570.715 235.981L566.419 233.04C558.587 227.547 552.606 219.283 549.137 210.42C546.674 204.127 545.047 196.336 547.953 189.902C549.86 185.68 552.92 183.075 557.17 181.462Z"/><path fill="#68A6FC" d="M404.873 0L411.653 0L426.915 0L433.862 0L449.625 0L456.597 0L471.417 0L478.225 0C476.632 8.31465 474.538 15.4418 469.428 22.2556C474.421 27.3285 482.895 31.2377 489.725 33.5876C490.902 34.2988 502.364 36.6139 502.6 37.1769C506.021 45.3214 495.793 42.3854 493.007 41.6234C482.988 38.883 472.339 34.3214 464.817 27.3562C459.657 32.0391 452.068 34.6435 445.187 34.9411C433.719 35.437 425.173 32.8513 416.67 25.2138C416.29 25.4298 415.908 25.6414 415.523 25.8485C403.411 32.3836 390.746 35.3734 377.126 31.7146C374.814 31.0933 372.449 29.3123 373.489 26.6398C375.045 23.1216 379.968 25.6187 382.682 26.0074C394.256 27.6649 401.9 25.0501 412.265 20.1295C407.56 13.2898 406.1 8.08253 404.873 0Z"/><path fill="#FFFEFA" d="M433.862 0L449.625 0C452.256 10.7163 453.832 13.9272 460.191 22.8714C448.07 30.2338 433.339 30.6654 422.218 21.1108C428.236 15.4835 432.313 8.09189 433.862 0Z"/><path fill="#FFFEFA" d="M456.597 0L471.417 0C469.949 7.2746 468.288 11.381 464.787 17.7709C460.223 11.8379 458.14 7.20556 456.597 0Z"/><path fill="#FFFEFA" d="M411.653 0L426.915 0C425.34 6.49265 422.436 11.5844 417.814 16.3658C413.981 10.8017 412.736 6.52407 411.653 0Z"/><path fill="#68A6FC" d="M99.0157 0L105.653 0L121.07 0L127.927 0L143.891 0L150.507 0L165.383 0L172.193 0C170.8 8.19823 168.423 15.6855 163.352 22.3521C170.88 29.1759 182.067 34.087 192.17 35.6868C195.151 36.1587 199.45 37.351 196.278 42.1534C195.96 42.6359 194.126 42.8197 193.511 42.7409C182.507 41.3307 166.846 35.4939 159.243 27.3514C151.834 32.7286 146.105 34.8439 136.778 34.9795C127.085 35.1205 117.762 32.1501 110.762 25.181C97.5614 31.9374 86.319 35.6016 71.3964 31.722C64.2128 29.8545 67.7047 24.103 70.9304 24.863C84.8197 28.1354 93.6053 26.2188 106.154 20.1622C101.576 12.6579 100.001 8.68493 99.0157 0Z"/><path fill="#FFFEFA" d="M127.927 0L143.891 0C145.159 9.13758 148.764 15.538 154.196 22.6765C143.425 30.9702 126.373 30.0041 116.221 21.0895C122.498 15.7625 125.918 7.7959 127.927 0Z"/><path fill="#FFFEFA" d="M150.507 0L165.383 0C164.353 5.68173 162.109 12.9067 158.57 17.4671C154.512 12.8099 151.846 5.96355 150.507 0Z"/><path fill="#FFFEFA" d="M105.653 0L121.07 0C118.995 6.61482 116.435 11.3893 111.779 16.4664C108.026 10.2191 106.72 7.18212 105.653 0Z"/><path fill="#41A486" d="M0 1.46388C16.4946 2.50791 31.7899 6.63223 43.0755 19.5233C49.0824 26.2302 53.7 35.3902 53.3825 44.559C53.2595 48.1099 51.3187 53.1224 48.4747 55.1752C38.9553 62.0464 29.7576 52.5028 23.8992 46.3989C16.9392 39.1472 8.6563 30.2978 0 26.0372L0 18.5623L0 8.2389L0 1.46388Z"/><path fill="#FFFEFA" d="M0 8.2389C14.3742 9.22321 28.4691 12.7359 38.1998 24.1383C42.2306 28.8616 47.5741 37.8009 46.6803 44.1999C44.6355 58.8396 31.9305 45.1219 27.6419 40.6174C19.752 32.3303 10.6062 22.8803 0 18.5623L0 8.2389Z"/><path fill="#41A486" d="M268.916 0L280.523 0C282.713 1.41669 300.257 1.21728 303.687 1.36915C307.5 1.52369 311.303 1.85839 315.084 2.37212C329.602 4.45616 342.653 10.4391 351.497 22.5099C356.364 29.1527 360.245 37.5798 359.279 46.1192C358.918 49.3106 356.589 53.8391 353.867 55.5767C342.885 62.4359 332.647 49.2614 325.855 42.3307C317.485 33.7908 308.536 24.8054 296.266 22.6688C291.783 21.8884 286.958 22.6244 283.141 25.2178C278.956 28.0612 281.207 32.7374 283.641 35.9424C291.361 45.4696 304.594 51.0847 316.353 53.6568C319.923 54.4378 323.483 54.6452 327.085 55.1416C328.309 55.3967 329.288 55.3485 330.056 56.3972C331.024 57.7196 331.065 60.1022 329.489 60.954C326.225 62.7174 319.16 61.1846 315.639 60.4192C302.046 57.4503 285.454 50.4775 277.308 38.6459C267.503 24.4044 281.651 14.2744 295.286 15.8159C313.405 17.8644 324.476 31.4337 336.484 43.4951C339.129 46.1518 342.314 49.5124 345.999 50.5007C349.397 51.3571 351.929 49.0284 352.478 45.7628C353.492 39.7428 350.675 33.4751 347.541 28.552C336.961 11.9343 317.375 8.02007 299.015 7.96851C292.962 7.88705 285.386 8.05773 279.584 6.94249C274.782 6.01949 271.615 4.11433 268.916 0Z"/><path fill="#FD83CA" d="M362.495 287.049C361.085 283.7 359.126 279.334 358.04 275.934C354.038 263.533 354.554 250.117 359.496 238.06C361.247 233.754 364.552 226.937 369.066 225.038C370.949 224.249 373.073 224.258 374.95 225.064C377.529 226.199 379.61 229.508 380.404 232.135C385.983 250.575 381.632 272.125 370.719 287.576C373.011 291.497 375.612 295.228 378.498 298.734C380.342 300.966 382.921 303.753 384.583 306L375.475 306C372.146 301.589 369.109 297.54 366.001 292.968C364.281 294.263 361.623 296.382 359.845 297.403C352.478 293.386 358.318 290.271 362.495 287.049Z"/><path fill="#FFFEFA" d="M371.668 231.119L372.564 231.495C376.082 236.222 376.236 245.162 375.989 250.83C375.675 258.016 372.534 275.738 367.097 280.719C363.352 272.419 361.559 263.631 362.312 254.527C362.922 247.163 365.797 236.114 371.668 231.119Z"/><path fill="#FD83CA" d="M56.5269 287.211C55.1343 283.918 53.2461 279.718 52.1652 276.367C48.0231 263.867 48.4929 250.297 53.4896 238.114C61.5254 218.314 74.2822 220.456 76.439 241.348C78.2183 258.582 74.2125 273.261 64.768 287.638C69.4129 295.309 72.9458 299.336 78.6374 306L69.5521 306C66.4102 301.914 62.6368 297.245 60.0822 292.865C58.3735 294.251 54.7329 297.396 52.6614 296.66C46.0887 294.325 54.7532 288.354 56.5269 287.211Z"/><path fill="#FFFEFA" d="M65.8669 231.182C66.0337 231.249 66.2144 231.329 66.355 231.443C67.9295 232.716 68.8351 236.844 69.2099 238.843C71.4667 250.874 69.0007 269.479 61.9199 279.671C61.5609 280.188 61.5443 280.149 60.9377 280.257C57.1009 270.524 55.1371 262.027 56.6818 251.52C57.6276 245.086 60.3828 235.243 65.8669 231.182Z"/><path fill="#FE6946" d="M0 94.4726C12.0337 90.0363 42.6815 74.8197 54.594 80.2133C57.278 81.4285 58.966 83.4951 59.9947 86.2347C61.0755 89.1132 61.4228 92.4273 60.0536 95.2687C57.9765 99.579 52.7439 101.909 48.4463 103.36C35.5218 107.723 18.5068 108.871 11.562 122.67C9.56985 126.628 8.8961 131.54 10.3513 135.775C12.0019 140.579 15.8421 144.572 20.0436 147.285C21.4819 148.213 23.1184 148.917 24.3581 150.118C25.4506 151.177 26.1789 152.329 25.6868 153.878C25.0486 154.802 24.0866 155.451 22.9917 155.698C21.124 156.134 18.8059 154.701 17.3592 153.718C10.9758 149.381 4.4289 142.98 3.20655 134.996C0.372456 116.486 16.5573 104.572 32.69 100.628C37.8476 99.3667 42.9383 98.1134 47.9394 96.4406C51.0021 95.3431 54.7114 93.3704 54.1948 89.414C53.3415 84.6731 46.4641 85.652 43.2809 86.2787C28.176 89.2523 14.3858 96.6049 0 101.664L0 94.4726Z"/><path fill="#41A486" d="M612 57.8078C601.081 53.9122 588.165 47.4288 582.218 36.952C578.336 29.9095 580.043 21.7954 587.59 18.1757C596.093 14.0977 603.542 15.729 612 18.4552L612 25.8621L612 50.5578L612 57.8078Z"/><path fill="#FFFEFA" d="M612 50.5578C611.238 50.3187 610.485 50.0522 609.742 49.7589C601.969 46.6499 591.472 40.7405 587.705 32.719C585.906 28.8872 587.733 25.0789 591.704 23.6131C598.765 21.0072 605.348 23.0864 612 25.8621L612 50.5578Z"/><path fill="#7053D0" d="M0 169.625C17.1326 181.49 13.0026 217.745 5.08127 233.803C10.6238 238.228 16.6657 241.304 23.6517 242.76C27.2433 243.489 30.9122 243.763 34.5722 243.576C37.1379 243.454 41.4547 242.269 42.7861 245.383C43.0936 248.637 39.197 250.057 36.615 250.249C24.9352 251.116 13.2693 248.114 3.77406 241.168C2.0696 239.921 1.72334 239.759 0 241L0 228.63L0 178.918L0 169.625Z"/><path fill="#FFFEFA" d="M0 178.918C6.56764 188.836 5.75373 205.875 3.66499 217.105C3.21475 219.525 1.28926 226.692 0 228.63L0 178.918Z"/><path fill="#FFFEFA" d="M278.624 306C275.714 304.115 272.783 301.365 275.373 297.646C278.314 293.425 284.533 290.677 289.445 289.686C306.268 286.832 322.151 291.158 336.141 300.685C337.945 301.914 341.413 304.456 342.892 306L278.624 306Z"/><path fill="#7053D0" d="M530.565 306C524.306 297.659 510.888 300.263 501.935 301.267C499.463 301.544 493.456 303.019 491.368 300.694C488.452 296.264 496.125 294.628 498.209 294.034L506.755 291.564C512.366 289.93 519.346 288.359 520.425 281.467C521.606 273.953 515.392 270.52 508.673 271.065C502.142 271.595 495.982 275.2 492.666 280.887C491.44 282.992 491.081 286.192 489.608 288.2C489.054 288.956 487.771 289.195 486.833 289.063C482.737 288.487 484.112 283.597 485.192 281.034C489.368 269.789 502.25 262.618 513.994 264.593C523.154 266.095 528.671 274.026 526.841 283.149C525.958 287.599 523.821 290.754 520.33 293.61C526.42 294.539 532.226 296.76 535.974 301.905C536.881 303.149 537.659 304.572 538.225 306L530.565 306Z"/><path fill="#7053D0" d="M224.5 306C217.358 296.066 199.01 301.579 189.005 302.004C184.321 302.203 183.654 297.455 186.994 295.913C191.481 293.841 197.333 292.79 202.039 291.2C207.482 289.36 212.815 288.353 214.397 281.897C215.779 276.558 212.228 272.551 207.134 271.382C199.304 269.796 191.614 273.739 187.077 280.059C185.578 282.148 184.403 290.231 180.885 289.289C176.678 288.163 178.12 283.474 179.29 280.567C184.181 268.421 199.727 260.872 212.106 265.827C215.63 267.243 218.515 269.971 219.95 273.534C221.612 277.778 221.536 282.506 219.741 286.696C218.507 289.572 216.728 291.641 214.256 293.539C221.454 294.873 229.827 298.189 232.163 306L224.5 306Z"/><path fill="#68A6FC" d="M98.8952 306C98.4251 296.531 99.2699 285.554 105.658 277.932C110.175 272.543 117.931 273.07 122.771 277.732C130.228 284.999 129.388 296.643 128.042 306L121.171 306L105.586 306L98.8952 306Z"/><path fill="#FFFEFA" d="M105.586 306C105.434 300.593 105.45 297.544 106.54 291.837C107.518 286.713 111.745 276.434 118.366 282.728C123.528 287.636 122.347 299.323 121.171 306L105.586 306Z"/><path fill="#68A6FC" d="M404.92 306C404.546 296.178 405.241 285.471 411.964 277.674C416.546 272.359 424.39 273.211 429.04 277.937C433.758 282.732 434.883 289.326 434.868 295.792C434.873 299.211 434.598 302.625 434.046 306L427.136 306L411.606 306L404.92 306Z"/><path fill="#FFFEFA" d="M411.606 306C411.39 300.685 411.357 297.152 412.497 291.959C416.697 272.832 428.936 281.157 428.252 296.155C428.098 299.54 427.823 302.518 427.136 306L411.606 306Z"/><path fill="#68A6FC" d="M143.69 306C142.644 297.195 142.36 288.011 148.033 280.596C152.388 274.904 160.48 273.595 166.029 278.278C173.602 284.669 173.34 297.12 172.295 306L165.456 306L150.509 306L143.69 306Z"/><path fill="#FFFEFA" d="M150.509 306C149.553 299.072 148.923 291.072 153.119 285.012C155.062 282.205 158.808 280.94 161.512 283.322C167.322 288.439 166.297 299.271 165.456 306L150.509 306Z"/><path fill="#68A6FC" d="M449.701 306C448.641 297.488 448.398 287.947 453.927 280.76C456.128 277.9 459.215 275.87 462.852 275.464C466.11 275.102 469.374 276.091 471.884 278.201C479.526 284.544 479.242 297.117 478.312 306L471.442 306L456.508 306L449.701 306Z"/><path fill="#FFFEFA" d="M456.508 306C455.457 299.084 454.901 291.317 458.949 285.2C460.873 282.292 464.86 281.008 467.587 283.398C473.205 288.32 472.486 299.497 471.442 306L456.508 306Z"/><path fill="#FE6946" d="M612 72.4134L612 79.3273L612 94.6613L612 101.848C604.566 104.655 595.754 108.28 588.223 103.478C585.896 101.994 583.969 99.5125 583.499 96.7536C581.149 82.9829 601.5 74.62 612 72.4134Z"/><path fill="#FFFEFA" d="M612 94.6613C606.712 96.4219 592.459 103.334 590.133 95.1432C587.923 87.3641 607.481 80.6685 612 79.3273L612 94.6613Z"/><path fill="#FD83CA" d="M576.517 165.015C585.479 151.614 596.772 150.03 612 152.028L612 159.043C602.705 156.657 589.437 157.858 583.697 166.451C582.068 168.891 580.1 173.444 578.029 174.414C575.713 174.656 571.568 169.381 567.794 167.625C558.7 163.393 547.389 165.999 540.159 172.639C536.851 175.677 535.252 180.151 531.685 182.023C531.441 182.124 530.757 181.767 530.538 181.642C527.216 179.731 528.727 176.127 530.403 173.586C535.334 166.105 542.875 161.416 551.576 159.627C561.76 157.534 568.067 159.506 576.517 165.015Z"/><path fill="#41A486" d="M268.813 306C267.643 301.503 267.216 298.664 269.718 294.301C272.669 289.153 280.408 284.68 286.11 283.472C303.822 279.722 321.555 283.552 336.794 293.138C340.476 295.455 350.537 302.564 352.763 306L342.892 306C341.413 304.456 337.945 301.914 336.141 300.685C322.151 291.158 306.268 286.832 289.445 289.686C284.533 290.677 278.314 293.425 275.373 297.646C272.783 301.365 275.714 304.115 278.624 306L268.813 306Z"/><path fill="#FD83CA" d="M0 152.324C10.2595 155.015 18.789 160.632 24.1989 169.917C32.3967 183.985 32.5607 204.197 28.4417 219.662C27.569 222.938 25.7685 231.817 22.6507 233.511C21.8798 233.931 21.0356 234.021 20.1951 233.755C19.4583 233.522 18.4971 232.809 18.1835 232.094C17.2581 229.985 21.8569 218.407 22.5233 215.162C26.4999 195.799 24.8009 170.399 4.51652 160.91C3.04273 160.221 1.51375 159.633 0 159.037L0 152.324Z"/><path fill="#7053D0" d="M530.85 0L538.281 0C545.282 22.8237 528.832 33.1569 507.717 29.2831C498.014 27.4441 484.481 20.0315 484.203 8.86511C484.153 6.83054 487.984 6.48025 488.861 7.31485C491.319 9.65482 492.155 13.342 494.747 15.7342C508.528 28.4559 542.842 26.723 530.85 0Z"/><path fill="#7053D0" d="M224.785 0L232.295 0C233.861 4.57148 234.47 10.4185 233.363 15.1096C229.973 29.4816 212.896 31.9368 200.699 29.03C192.307 27.0341 184.619 22.9817 180.003 15.4192C178.523 12.9948 176.561 8.93117 180.308 6.92499C181.228 6.43285 183.065 7.1747 183.697 8.04773C185.423 10.4305 186.366 13.5287 188.498 15.6324C194.56 20.9392 202.075 23.3363 210.018 23.3739C225.276 23.4462 231.09 13.5336 224.785 0Z"/><path fill="#FE6946" d="M545.118 0L552.526 0C555.612 9.02202 555.962 14.893 552.761 24.0091C546.975 40.4817 529.504 48.4484 512.958 44.5238C511.701 44.057 510.567 41.7533 511.275 40.5163C513.06 37.3981 516.813 38.5578 519.62 38.6824C529.947 39.1406 540.176 34.4151 545.017 25.003C548.32 18.5804 549.529 10.4043 546.386 3.69838C545.88 2.57202 545.482 1.19891 545.118 0Z"/><path fill="#FFFEFA" d="M584.471 306C579.834 302.81 578.891 299.614 583.51 295.401C591.249 288.343 602.155 288.562 612 289L612 306L584.471 306Z"/><path fill="#FE6946" d="M239.145 0L246.344 0C256.826 25.5861 234.054 50.5248 207.719 44.7501C204.397 44.0214 203.871 37.1991 210.619 38.417C214.509 39.1191 221.169 38.2877 225.006 37.0812C238.194 32.9342 245.957 16.2431 240.39 3.54421C239.927 2.48127 239.53 1.12082 239.145 0Z"/><path fill="#68A6FC" d="M612 257.061L612 263.774C597.924 263.212 584.044 267.221 572.435 275.202C569.916 276.911 567.542 278.825 565.337 280.924C563.395 282.749 559.124 288.119 556.425 285.541C553.765 282.999 556.091 280.412 558.051 278.443C572.905 263.526 591.199 256.869 612 257.061Z"/><path fill="#FFFEFA" d="M0 289.116C13.1082 290.73 27.2215 297.005 36.9633 306L0 306L0 289.116Z"/><path fill="#FE6946" d="M0 72.2159C14.0687 68.6809 27.396 66.4624 41.9284 65.965C43.8385 65.8996 46.1843 65.6019 47.8876 66.6298C50.2943 68.2529 48.514 72.2442 45.8814 72.4345C35.8762 73.1579 25.7756 73.7598 15.8877 75.5208C10.5646 76.4689 5.19704 77.8004 0 79.2302L0 72.2159Z"/><path fill="#68A6FC" d="M0 257.177C12.7996 258.148 24.3059 262.59 34.743 270.06C37.2945 271.887 39.8525 273.697 41.96 276.038C44.3202 278.66 43.9072 282.113 39.9573 282.456C37.4289 281.383 33.7595 277.833 31.3782 276.026C22.2817 269.123 11.4188 264.686 0 263.887L0 257.177Z"/><path fill="#41A486" d="M0 282.298C17.3872 284.456 34.9802 293.086 46.8735 306L36.9633 306C27.2215 297.005 13.1082 290.73 0 289.116L0 282.298Z"/><path fill="#41A486" d="M574.779 306C573.191 299.51 573.62 295.395 578.758 290.578C587.992 281.921 600.086 281.879 612 282.234L612 289C602.155 288.562 591.249 288.343 583.51 295.401C578.891 299.614 579.834 302.81 584.471 306L574.779 306Z"/><path fill="#41A486" d="M574.711 0L612 0L612 8.15546C604.037 7.74403 595.345 8.22042 587.486 7.3214C581.822 6.67348 578.123 4.54324 574.711 0Z"/><path fill="#41A486" d="M343.288 0L353.129 0C357.617 5.06243 362.139 9.8864 365.47 15.8363C367.205 18.9364 368.477 22.8584 363.487 23.2017C362.66 23.2854 361.985 22.7834 361.476 22.153C359.275 19.4328 357.758 16.0525 355.653 13.267C352.001 8.43321 347.589 4.23805 343.288 0Z"/><path fill="#41A486" d="M37.4102 0L47.0873 0C52.1185 5.28997 56.375 10.4586 59.979 16.9006C62.809 21.9593 58.6248 25.0667 55.3894 22.0003C53.7972 20.4913 51.2227 15.2445 49.5217 13.0832C45.7683 8.31399 41.6502 4.29836 37.4102 0Z"/><path fill="#41A486" d="M0 50.8237C8.15293 53.2996 15.0339 54.6158 23.442 55.6857C23.6168 55.7079 24.3657 56.5027 24.3989 56.7087C25.2979 58.0446 24.8088 60.7782 23.0653 61.2074C17.3474 62.6151 5.56292 60.0235 0.244807 57.8738L0 57.7724L0 50.8237Z"/><path fill="#FD83CA" d="M69.8941 0L78.9642 0C81.6204 3.60587 85.7871 6.07514 88.7535 9.4009C90.0525 10.6229 90.0773 13.1368 88.4959 14.208C85.5005 16.237 81.1081 11.7045 79.2304 9.95823C75.8501 6.81448 72.5861 3.67766 69.8941 0Z"/><path fill="#FD83CA" d="M375.836 0L385.059 0C387.578 2.80422 399.011 11.0928 394.65 14.1623C390.378 17.1696 378.12 3.05852 375.836 0Z"/><path fill="#FE6946" d="M239.423 306C240.69 302.033 244.739 302.448 246.168 306L239.423 306Z"/><path fill="#FE6946" d="M545.301 306C545.734 304.859 546.177 304.043 547.336 303.524C548.162 303.153 549.036 303.178 549.868 303.511C551.108 304.006 551.657 304.815 552.172 306L545.301 306Z"/><path fill="#7053D0" d="M293.851 166.53C296.89 166.211 300.207 166.872 303 168.078C308.616 170.502 312.445 175.397 314.664 180.974C319.275 192.561 318.591 208.783 315.713 220.721C314.593 225.367 312.96 229.66 311.085 234.036C317.046 238.276 323.769 241.8 331.041 243.083C333.669 243.546 346.459 243.162 347.193 243.729C347.825 244.216 348.274 245.141 348.395 245.918C348.528 246.774 348.365 247.767 347.803 248.444C346.879 249.558 345.322 249.85 343.965 250.029C330.778 251.763 318.039 247.534 307.601 239.585C304.92 242.441 302.301 244.866 298.704 246.518C289.155 250.904 277.497 248.382 268.084 244.921C265.475 250.684 260.978 256.014 256.191 260.09C249.484 265.825 241.37 269.671 232.685 271.233C230.764 271.592 228.685 272.025 226.726 271.847C225.405 271.727 223.959 271.325 223.115 270.222C222.664 269.634 222.413 268.951 222.523 268.203C222.696 267.035 223.705 266.103 224.768 265.686C226.835 264.875 229.785 264.915 232.001 264.496C239.369 263.104 245.415 259.969 251.314 255.425C255.824 251.584 259.343 247.308 262 242.003C250.526 235.839 242.103 225.515 237.162 213.595C233.831 205.559 232.195 195.934 235.656 187.657C237.798 182.535 241.959 177.82 247.19 175.749C250.922 174.271 255.165 174.207 258.844 175.869C264.29 178.329 267.779 183.534 269.831 188.961C274.919 202.415 276.555 225.555 270.665 238.691C276.2 240.856 282.075 242.213 288.045 242.065C294.039 241.916 298.287 239.604 302.365 235.328C291.24 224.195 282.734 210.228 280.095 194.541C278.874 187.287 278.89 178.767 283.397 172.545C286.032 168.907 289.523 167.215 293.851 166.53Z"/><path fill="#FFFEFA" d="M251.15 181.489C252.402 181.336 253.652 181.295 254.876 181.644C258.123 182.572 260.425 185.068 262.016 187.941C267.139 197.189 268.229 213.518 267.201 223.781C266.785 227.927 265.87 231.906 264.731 235.904C263.1 234.853 261.487 233.773 259.894 232.666C251.91 226.472 246.052 218.541 242.623 209.008C240.446 202.956 239.243 195.494 242.15 189.474C244.046 185.546 247.086 182.918 251.15 181.489Z"/><path fill="#FFFEFA" d="M294.964 173.114C296.622 173.222 298.102 173.374 299.666 173.997C303.749 175.626 306.459 178.85 308.166 182.796C313.825 195.88 310.892 216.729 305.794 229.499L304.335 227.811C296.079 218.176 289.268 207.311 286.9 194.658C285.91 189.369 285.358 181.496 288.602 176.863C290.212 174.565 292.273 173.598 294.964 173.114Z"/><path fill="#FE6946" d="M255.301 92.7007C256.412 92.5779 257.645 92.5348 258.761 92.6397C263.565 93.0914 267.711 95.8701 270.693 99.5498C276.813 107.103 277.144 115.75 276.177 124.996C280.073 123.84 283.756 122.283 287.247 120.191C289.714 118.712 292.739 115.118 295.438 114.536C296.214 114.368 296.932 114.534 297.574 115C298.395 115.598 298.995 116.605 299.162 117.604C299.292 118.38 299.086 119.051 298.605 119.67C297.464 121.14 295.661 122.481 294.173 123.59C287.973 128.21 281.328 131.044 273.648 131.917C271.091 138.227 266.556 143.537 260.724 147.05C253.875 151.143 245.152 152.845 237.352 150.877C230.096 157.74 223.759 160.988 213.728 161.922C213.56 162.587 213.332 163.229 213.093 163.872C211.09 169.266 204.85 181.052 199.378 183.437C198.538 183.803 197.631 183.909 196.766 183.537C195.882 183.157 195.243 182.425 194.896 181.538C194.553 180.66 194.597 179.945 195.067 179.12C196.321 176.915 198.756 175.1 200.425 173.173C203.332 169.816 205.099 165.551 206.82 161.508C201.89 160.344 197.269 158.663 192.968 155.952C186.12 151.635 181.088 146.273 179.276 138.234C179.221 137.767 179.185 137.298 179.167 136.828C179.04 133.13 180.215 129.237 182.788 126.521C185.382 123.782 189.034 122.406 192.769 122.343C197.808 122.257 202.311 124.54 205.882 127.968C213.583 135.364 214.992 145.088 215.216 155.23C221.208 153.937 225.391 152.042 230.414 148.508C223.097 143.964 217.595 137.009 214.855 128.843C213.171 123.779 212.427 117.597 214.937 112.678C216.516 109.583 219.269 107.375 222.577 106.356C226.595 105.119 230.792 105.633 234.492 107.576C239.593 110.256 242.95 115.035 244.636 120.465C247.255 128.9 245.517 137.383 241.481 145.062C244.661 144.995 247.765 144.771 250.851 143.953C258.317 141.975 262.987 137.388 266.794 130.872C265.207 130.46 263.58 129.74 262.089 129.064C255.29 125.98 250.257 121.492 247.635 114.383C245.926 109.75 245.224 103.763 247.385 99.1706C249.011 95.7157 251.849 93.9567 255.301 92.7007Z"/><path fill="#FFFEFA" d="M225.658 112.42C227.092 112.313 228.488 112.351 229.866 112.808C233.054 113.867 235.449 116.476 236.946 119.409C239.878 125.156 239.61 131.46 237.631 137.456C237.081 139.123 236.037 142.057 234.448 142.851C228.498 140.114 223.817 133.604 221.602 127.616C220.371 124.287 219.053 119.582 220.674 116.218C221.719 114.05 223.468 113.147 225.658 112.42Z"/><path fill="#FFFEFA" d="M191.548 129.187C192.291 129.151 193.049 129.115 193.793 129.154C196.925 129.32 199.917 131.234 201.979 133.492C207.206 139.213 208.763 147.343 208.398 154.849C206.773 154.55 205.166 154.077 203.566 153.666C202.212 153.18 200.84 152.627 199.562 151.968C194.314 149.261 188.058 144.619 186.26 138.712C185.614 136.591 185.72 134.249 186.817 132.292C187.87 130.411 189.569 129.756 191.548 129.187Z"/><path fill="#FFFEFA" d="M256.575 99.2668C258.444 99.1997 260.163 99.6611 261.778 100.599C265.652 102.848 268.209 107.343 269.292 111.594C270.1 114.763 270.826 121.243 269.144 124.095C268.391 124.376 267.701 124.034 266.932 123.841C262.095 121.758 257.909 119.477 255.242 114.725C253.474 111.575 252.04 106.746 253.074 103.209C253.644 101.26 254.856 100.231 256.575 99.2668Z"/><path fill="#FE6946" d="M561.593 92.6959C562.501 92.5805 563.393 92.507 564.309 92.5517C568.901 92.7756 573.114 95.5912 576.098 98.9377C583.023 106.703 582.884 115.352 582.341 125.11C585.721 123.927 589.047 122.597 592.152 120.798C594.345 119.526 599.625 114.893 601.387 114.477C602.119 114.304 602.838 114.556 603.462 114.936C604.29 115.44 604.995 116.378 605.158 117.344C605.334 118.383 604.758 119.448 604.12 120.224C599.199 126.198 587.307 131.117 579.65 131.968C577.012 137.406 573.867 142.106 568.889 145.667C561.111 151.231 552.381 152.475 543.114 150.962C536.318 157.945 529.478 161.029 519.774 161.862C517.713 168.743 511.938 179.3 505.804 183.309C505.139 183.744 504.288 184.126 503.484 183.895C502.506 183.613 501.304 182.527 500.919 181.581C500.652 180.924 500.581 180.041 500.894 179.379C501.741 177.588 504.411 175.358 505.759 173.789C508.907 170.124 511.031 166.014 512.781 161.542C507.752 160.181 503.265 158.629 498.831 155.824C492.038 151.526 487.044 146.04 485.262 138.076C485.21 137.529 485.175 136.98 485.157 136.431C485.052 132.862 486.4 128.966 488.892 126.396C491.552 123.653 495.303 122.364 499.074 122.356C504.119 122.345 508.737 124.763 512.241 128.278C519.559 135.617 521.224 145.257 521.185 155.177C527.359 153.943 531.337 152.189 536.384 148.421C528.809 143.545 523.494 137.092 520.768 128.438C519.2 123.462 518.486 117.176 521.033 112.411C522.689 109.372 525.506 107.132 528.84 106.205C532.933 105.023 537.282 105.761 540.957 107.824C545.929 110.615 549.401 115.685 550.909 121.118C553.113 129.062 551.47 137.917 547.479 145.025C550.415 144.997 553.282 144.84 556.148 144.152C564.083 142.245 568.643 137.694 572.802 130.943C570.593 130.252 568.279 129.2 566.217 128.142C559.722 124.81 555.377 119.864 553.172 112.861C551.774 108.42 551.41 102.817 553.656 98.6018C555.368 95.3875 558.233 93.7353 561.593 92.6959Z"/><path fill="#FFFEFA" d="M531.316 112.451C532.589 112.278 533.761 112.279 535.014 112.603C538.362 113.47 540.817 115.776 542.522 118.718C545.577 123.989 545.716 130.055 544.165 135.818C543.619 137.843 542.366 141.786 540.51 142.86C534.763 139.398 530.605 134.949 527.995 128.701C526.555 125.254 525.044 120.051 526.571 116.465C527.515 114.251 529.169 113.311 531.316 112.451Z"/><path fill="#FFFEFA" d="M497.636 129.179C498.12 129.138 498.606 129.115 499.092 129.111C502.367 129.105 505.323 130.827 507.561 133.111C513.353 139.023 514.477 146.97 514.366 154.886C512.752 154.552 511.158 154.037 509.571 153.591C507.983 153.02 506.359 152.398 504.87 151.6C499.922 148.949 493.855 144.182 492.222 138.556C491.62 136.485 491.746 134.267 492.805 132.361C493.881 130.427 495.612 129.777 497.636 129.179Z"/><path fill="#FFFEFA" d="M562.944 99.244C564.72 99.2428 566.245 99.6945 567.759 100.621C571.751 103.063 574.316 107.664 575.369 112.126C576.135 115.368 576.808 121.237 575.011 124.159C574.12 124.33 573.594 124.028 572.744 123.741C567.223 121.275 563.028 118.877 560.462 113.115C559.1 110.058 557.973 105.774 559.259 102.567C559.982 100.762 561.205 99.9592 562.944 99.244Z"/><path fill="#FEC034" d="M360.548 110.32C361.235 110.192 362.08 110.096 362.777 110.228C363.457 110.357 363.873 110.842 364.223 111.405C364.776 112.297 365.017 113.541 364.704 114.561C364.425 115.472 363.413 115.998 362.614 116.387C357.9 118.683 351.93 119.557 346.865 121.887C342.97 123.679 336.337 127.075 334.834 131.378C334.311 132.875 334.362 134.555 335.087 135.975C336.847 139.419 341.32 140.756 344.74 141.856C348.072 137.713 351.446 133.98 355.735 130.782C366.423 122.811 382.05 119.458 395.167 121.397C398.985 121.961 403.289 123.239 405.649 126.507C406.859 128.182 407.464 130.279 407.105 132.334C406.537 135.587 403.969 138.058 401.379 139.886C387.656 149.573 364.469 151.862 348.031 148.993C346.557 153.284 344.718 158.108 345.859 162.688C346.848 166.659 349.73 169.537 353.173 171.543C354.106 172.086 356.633 173.275 357.706 172.807C359.722 171.927 363.09 166.641 364.735 164.733C370.486 158.065 378.652 153.471 387.121 151.277C394.213 149.44 402.906 148.373 409.503 152.276C409.855 152.531 410.202 152.795 410.518 153.094C412.286 154.765 413.498 157.103 413.49 159.565C413.479 162.557 411.66 165.33 409.591 167.353C398.415 178.273 376.711 180.664 361.58 180.494C355.206 193.842 351.331 205.923 349.346 220.589C348.658 225.672 348.579 230.875 347.682 235.912C347.249 236.175 346.808 236.424 346.36 236.658C345.426 237.137 344.233 237.34 343.227 236.938C342.557 236.671 342.066 236.09 341.802 235.431C340.891 233.165 341.602 229.299 341.818 226.857C343.316 209.866 347.586 194.754 354.591 179.242C353.773 178.986 352.963 178.682 352.163 178.374C346.991 176.388 342.661 172.773 340.411 167.637C337.531 161.064 338.711 154.138 341.217 147.676C339.007 147.06 336.668 146.148 334.708 144.947C331.494 142.979 328.756 139.649 327.908 135.913C327.184 132.722 327.877 129.493 329.623 126.754C335.655 117.291 350.086 112.583 360.548 110.32Z"/><path fill="#FFFEFA" d="M384.61 127.718C387.938 127.628 397.229 127.501 399.862 129.738C400.178 130.006 400.434 130.352 400.459 130.77C400.497 131.421 400.163 131.914 399.759 132.388C394.08 139.044 377.939 142.299 369.64 143.061C363.99 143.408 358.323 143.341 352.683 142.86C361.506 133.214 371.61 128.786 384.61 127.718Z"/><path fill="#FFFEFA" d="M395.388 156.694C398.207 156.458 402.842 156.009 405.302 157.574C405.731 157.847 406.227 158.387 406.316 158.892C406.503 159.958 406.107 160.809 405.481 161.645C400.274 168.595 385.88 171.701 377.716 172.938C373.79 173.471 369.77 173.646 365.818 173.947C366.379 173.234 366.949 172.528 367.526 171.828C374.829 162.996 383.932 157.782 395.388 156.694Z"/><path fill="#FEC034" d="M54.4849 110.309C55.1228 110.257 55.829 110.176 56.4652 110.251C57.2554 110.345 58.5045 111.381 58.9575 112.026C59.2953 112.507 59.5154 113.025 59.3509 113.626C58.3937 117.123 47.9922 119.087 44.8705 120.246C42.1501 121.25 39.516 122.474 36.9945 123.907C34.0464 125.597 29.4403 128.395 28.5535 131.898C28.1649 133.433 28.5852 134.99 29.3902 136.318C31.4635 139.738 35.3152 140.82 38.9571 141.668C41.7531 138.184 44.6177 134.887 48.113 132.083C58.9652 123.378 74.1021 119.691 87.8448 121.229C91.9719 121.691 96.7111 122.761 99.3987 126.2C100.682 127.842 101.397 129.992 101.118 132.079C100.681 135.343 98.1991 137.884 95.657 139.757C81.8471 149.934 58.5799 151.481 41.9932 148.93L41.6715 149.802C39.9032 154.652 38.3094 160.137 40.6776 165.087C42.9232 169.781 47.2861 171.732 51.9145 173.331C60.0298 162.631 67.5996 154.785 81.0585 151.26C88.079 149.421 97.0676 148.55 103.556 152.337C103.988 152.644 104.381 152.977 104.757 153.352C106.498 155.087 107.385 156.978 107.372 159.463C107.356 162.552 105.892 165.093 103.739 167.219C92.415 178.395 70.7901 180.653 55.5293 180.522C49.4773 192.8 45.3995 205.504 43.4823 219.089C42.8256 223.742 42.9977 230.867 41.5306 235.086C41.2376 235.928 40.6907 236.765 39.8415 237.127C39.2082 237.397 38.4874 237.343 37.8583 237.092C36.8457 236.688 36.0662 235.848 35.6727 234.839C34.8702 232.782 35.6349 229.2 35.8272 227.011C37.3131 210.096 41.6988 194.757 48.4617 179.266C47.4343 178.899 46.4176 178.503 45.4127 178.079C40.5021 175.955 36.1729 172.139 34.214 167.077C31.7094 160.605 32.5877 154.246 35.3566 148.05C33.1424 147.148 30.9065 146.181 28.86 144.938C25.6345 142.978 22.9101 140.162 22.0356 136.386C21.2573 133.017 21.8605 129.476 23.7105 126.555C29.4075 117.426 44.4823 112.707 54.4849 110.309Z"/><path fill="#FFFEFA" d="M79.5819 127.723C85.7041 127.517 89.5082 127.946 95.1137 130.562C94.8748 130.882 94.6284 131.197 94.3747 131.506C87.6946 139.626 73.268 142.103 63.4224 143.084C60.0486 143.276 56.6894 143.405 53.3093 143.364C51.7012 143.344 48.7247 143.567 47.5539 142.368C47.6514 141.758 47.9086 141.434 48.3123 140.98C56.0067 132.343 68.3523 128.332 79.5819 127.723Z"/><path fill="#FFFEFA" d="M88.8333 156.686C93.8208 156.423 97.1323 156.407 101.571 159.067C94.3955 168.499 82.9442 170.905 71.8542 172.903C67.8952 173.412 63.8958 173.692 59.9191 174.038C60.5003 173.212 61.0994 172.398 61.716 171.598C68.4432 162.942 78.0796 158.028 88.8333 156.686Z"/><path fill="#FE6946" d="M165.795 174.319C167.375 174.097 169.136 174.09 170.728 174.229C174.61 174.568 178.161 176.067 180.672 179.125C186.247 185.913 184.825 196.425 183.97 204.493C187 199.588 191.123 195.049 195.509 191.324C200.467 187.114 206.912 183.529 213.633 184.155C217.816 184.544 221.573 186.736 224.234 189.947C226.833 193.06 228.064 197.091 227.65 201.125C226.705 210.908 218.029 217.79 211.025 223.596C217.195 223.31 223.439 223.35 229.39 225.215C234.226 226.73 238.757 229.63 241.123 234.258C243.095 238.116 243.309 243.091 241.928 247.186C240.508 251.4 237.209 254.758 233.269 256.715C223.864 261.387 211.251 259.565 201.708 256.306C197.159 254.753 185.833 249.805 183.778 245.425C183.419 244.659 183.344 243.803 183.663 243.008C183.994 242.184 184.621 241.49 185.451 241.152C186.183 240.854 186.846 240.853 187.582 241.132C189.835 241.988 192.039 243.86 194.074 245.171C196.592 246.801 199.266 248.173 202.058 249.269C210.222 252.512 221.626 254.475 229.961 250.777C232.379 249.704 234.428 247.973 235.359 245.439C236.241 243.036 236.25 240.078 235.167 237.74C230.341 227.327 210.621 230.013 201.741 231.765C198.137 232.477 188.928 235.713 185.946 234.584C185.101 233.871 184.485 233.045 184.384 231.904C184.26 230.501 184.902 229.826 185.968 229.088C188.032 227.66 190.711 226.862 192.983 225.751C201.639 221.517 210.746 216.668 216.862 209.009C219.074 206.239 221.445 202.363 220.976 198.694C220.583 195.627 218.528 193.551 216.216 191.732C213.994 190.606 211.726 190.523 209.332 191.129C205.741 192.039 202.478 194.327 199.703 196.703C191.697 203.563 186.94 212.311 182.177 221.516C180.881 224.02 179.688 226.792 178.181 229.165C177.718 229.895 176.933 230.451 176.082 230.616C175.17 230.794 174.217 230.611 173.461 230.056C172.626 229.444 172.181 228.431 172.218 227.409C172.323 224.459 173.49 221.196 174.17 218.311C176.23 209.568 178.851 199.319 177.871 190.305C177.56 187.446 176.839 184.333 174.449 182.481C172.332 180.841 169.404 180.584 166.828 180.894C164.3 181.199 161.47 182.203 159.884 184.311C153.695 192.536 160.895 214.594 162.033 224.137C162.201 225.541 162.429 227.302 161.416 228.445C160.854 229.08 159.968 229.442 159.126 229.43C158.106 229.415 157.182 228.972 156.513 228.207C155.35 226.877 154.474 224.521 153.66 222.91C150.554 216.755 147.674 210.019 142.756 205.056C139.437 201.708 134.942 198.904 130.079 198.956C127.302 198.985 124.813 200.178 122.903 202.165C120.563 204.599 118.876 207.841 119.017 211.285C119.389 220.394 131.484 228.351 138.75 232.091C141.181 233.342 144.813 234.395 146.777 236.292C147.383 236.877 147.724 237.607 147.719 238.46C147.714 239.398 147.438 240.472 146.709 241.109C146.066 241.672 145.227 241.798 144.405 241.741C139.582 241.406 127.909 233.61 124.133 230.597C121.875 228.808 119.796 226.805 117.924 224.616C114.269 220.291 111.88 215.119 112.4 209.347C112.899 204.242 115.389 199.538 119.329 196.254C122.987 193.227 127.597 191.884 132.311 192.355C140.706 193.194 146.674 198.947 151.753 205.152C150.539 197.435 149.495 187.091 154.452 180.38C157.316 176.503 161.2 174.998 165.795 174.319Z"/><path fill="#FE6946" d="M471.942 174.311C473.565 174.067 475.424 174.077 477.059 174.233C480.901 174.601 484.256 176.22 486.712 179.24C492.257 186.057 490.791 196.659 489.918 204.738C493.385 199.515 497.28 194.76 502.154 190.769C507.042 186.766 513.262 183.467 519.773 184.167C523.934 184.614 527.764 186.894 530.374 190.131C532.975 193.356 534.127 197.316 533.639 201.428C532.49 211.122 523.797 218.226 516.652 223.847C517.909 223.714 519.168 223.608 520.429 223.531C528.111 223.119 537.648 224.262 543.581 229.671C546.747 232.554 548.618 236.592 548.771 240.871C548.964 245.331 547.552 249.584 544.483 252.872C539.992 257.683 533.158 259.253 526.809 259.447C513.898 259.842 499.208 254.767 489.753 245.871C489.632 244.7 489.459 243.511 489.969 242.406C490.264 241.768 490.72 241.349 491.379 241.108C492.227 240.797 493.238 240.937 494.052 241.272C497.056 242.507 501.091 246.155 504.816 247.932C513.166 251.916 525.507 254.589 534.505 251.363C537.305 250.359 539.856 248.641 541.114 245.856C542.253 243.354 542.332 240.497 541.333 237.936C540.119 234.9 537.206 232.975 534.238 231.89C525.379 228.653 513.953 230.257 504.942 232.343C501.552 233.127 498.095 234.335 494.642 234.75C493.631 234.872 492.793 234.878 491.847 234.476C491.099 233.812 490.502 233.074 490.392 232.039C490.247 230.674 490.817 229.863 491.865 229.106C493.818 227.695 496.475 226.974 498.661 225.908C507.239 221.726 516.7 216.894 522.713 209.275C524.959 206.43 527.396 202.28 526.901 198.546C526.514 195.616 524.538 193.467 522.27 191.76L519.429 190.566C518.511 190.623 517.596 190.726 516.689 190.877C504.792 192.832 495.598 207.422 490.44 217.2C488.305 221.248 486.426 225.916 483.726 229.608C483.252 230.256 482.949 230.534 482.115 230.641C481.114 230.77 479.924 230.483 479.154 229.809C478.223 228.993 478.173 228 478.261 226.853C478.485 223.919 479.546 220.811 480.223 217.945C482.236 209.419 484.71 199.633 483.921 190.849C483.661 187.953 483.012 184.534 480.624 182.615C478.433 180.854 474.819 180.599 472.139 180.944C469.758 181.251 467.542 182.309 466.076 184.256C459.491 192.999 466.947 214.63 468.217 224.707C468.377 225.976 468.029 227.373 467.216 228.373C466.69 229.02 465.934 229.566 465.073 229.6C464.067 229.64 463.238 229 462.658 228.241C461.256 226.406 460.276 224.056 459.232 221.995C455.992 215.596 452.82 208.739 447.414 203.852C444.244 200.987 440.019 198.733 435.632 198.991C432.763 199.16 430.276 200.516 428.401 202.664C426.424 204.93 424.761 208.255 425.017 211.342C425.79 220.644 436.958 227.874 444.36 231.77C446.995 233.157 450.48 234.315 452.714 236.263C453.29 236.766 453.583 237.299 453.622 238.071C453.672 239.067 453.578 240.331 452.814 241.058C452.232 241.612 451.421 241.747 450.649 241.718C444.36 241.482 428.957 230.252 424.883 225.775C420.926 221.428 417.995 215.946 418.336 209.921C418.617 204.955 421.202 199.913 424.931 196.641C428.42 193.528 433.02 191.96 437.684 192.293C446.55 192.908 452.241 198.737 457.708 205.067C456.719 196.969 455.335 187.037 460.726 180.098C463.62 176.372 467.419 174.917 471.942 174.311Z"/><path fill="#FD83CA" d="M419.006 37.7252C419.719 37.6707 420.433 37.63 421.148 37.603C426.011 37.4318 430.923 39.0498 434.488 42.4315C439.219 46.9189 439.639 52.5005 439.745 58.5842C441.074 56.6379 442.553 54.7988 444.17 53.0841C448.831 48.206 456.033 42.8211 463.093 42.7343C466.722 42.6896 470.442 44.0227 473.029 46.6078C475.544 49.1209 476.792 52.6542 476.796 56.1765C476.807 66.3948 469.242 74.9496 462.539 81.7749C470.851 79.462 481.274 77.28 489.452 81.0805C493.431 82.9297 496.258 86.0874 497.751 90.2038C499.198 94.1934 499.485 98.3553 497.627 102.277C494.814 108.214 488.193 111.821 482.274 113.94C475.024 116.534 456.655 119.855 449.59 116.375C448.695 115.934 447.844 115.235 447.555 114.241C447.314 113.412 447.422 112.222 447.893 111.487C448.412 110.676 449.363 110.463 450.267 110.366C452.993 110.073 456.045 110.745 458.795 110.906C462.616 111.13 466.684 110.689 470.457 110.066C476.817 109.016 486.67 106.487 490.614 100.856C492.042 98.8161 492.42 96.5128 491.932 94.0849C491.445 91.6581 490.135 89.3309 488.034 87.9595C479.831 82.6047 463.082 88.0755 455.25 92.0678C452.508 93.4654 449.259 96.5383 446.218 97.035C445.301 97.1847 444.49 96.9195 443.76 96.371C443.172 95.9302 442.672 95.3528 442.604 94.5907C442.487 93.2758 443.35 91.932 444.102 90.9323C445.6 88.9393 447.596 87.2074 449.361 85.4457C454.046 80.7689 459.171 76.193 463.331 71.0562C467.064 66.4469 470.51 60.6365 469.859 54.4943C469.49 52.9739 468.672 51.6292 467.424 50.677C465.844 49.4723 463.884 49.2192 461.962 49.5112C451.239 51.1396 441.65 67.0003 436.818 75.8095C435.364 78.4601 434.172 81.669 432.388 84.083C431.923 84.7125 431.247 85.414 430.421 85.4724C429.305 85.5512 427.915 85.0065 427.15 84.1944C426.429 83.4294 426.395 82.5327 426.513 81.5466C426.793 79.2074 427.764 76.9022 428.534 74.6894C430.49 69.0661 432.77 63.0826 432.941 57.0774C433.04 53.5556 432.287 50.0952 429.769 47.4892C427.71 45.3792 424.893 44.179 421.945 44.1554C419.379 44.1553 416.876 44.9539 414.784 46.4403C403.693 54.2083 408.287 76.6561 404.528 80.0703C403.959 80.5867 403.046 80.7062 402.301 80.6094C400.911 80.4288 400.172 79.2937 399.762 78.076C399.082 76.0566 399.169 73.559 398.965 71.4255C398.325 64.728 396.895 56.9088 392.6 51.49C390.618 48.9894 387.55 46.7888 384.307 46.4555C381.614 46.1788 378.644 46.8323 376.532 48.5871C367.969 55.7039 375.536 75.9767 379.215 84.2049C380.256 86.5333 384.179 92.1604 383.851 94.4245C383.721 95.3164 383.223 96.0763 382.505 96.6078C381.758 97.1616 380.659 97.5753 379.723 97.3441C377.972 96.9116 376.479 93.9426 375.695 92.4284C369.774 80.9904 363.072 63.9291 367.172 51.1654C368.514 46.9889 371.272 43.4001 375.242 41.4087C379.316 39.365 384.513 39.2583 388.814 40.679C395.415 42.8597 398.979 48.2325 401.962 54.164C403.105 51.3135 404.277 48.3945 406.003 45.8374C409.177 41.1365 413.538 38.7813 419.006 37.7252Z"/><path fill="#FD83CA" d="M113.203 37.7261C113.605 37.6968 114.007 37.6723 114.41 37.6524C119.488 37.4076 124.468 38.709 128.273 42.2451C132.977 46.6171 133.626 52.4803 133.799 58.5217C135.587 55.9504 137.569 53.6106 139.859 51.4688C144.572 47.0599 151.183 42.4143 157.954 42.7188C161.552 42.86 164.946 44.4251 167.389 47.0697C169.898 49.8274 170.946 53.5834 170.752 57.2605C170.243 66.8729 163.169 75.5773 156.313 81.7051C159.873 81.1761 163.335 80.0586 166.905 79.5512C173.368 78.6328 181.156 78.7429 186.568 82.909C189.983 85.5378 192.29 89.8672 192.828 94.1274C193.318 98.0043 192.297 102.111 189.839 105.178C183.591 112.974 171.414 116.118 161.974 117.221C157.865 117.701 145.719 118.629 142.482 115.937C141.776 115.35 141.597 114.607 141.525 113.732C141.429 112.56 141.661 111.747 142.423 110.856C144.906 109.211 151.516 111.067 154.633 111.007C163.243 110.842 177.385 108.609 183.568 102.075C185.195 100.356 186.164 98.2446 186.079 95.8509C185.986 93.2025 184.742 90.4404 182.78 88.65C175.861 82.3372 159.256 87.3856 151.943 90.83C149.494 91.9834 141.836 97.0791 139.716 97.1011C138.999 97.1106 138.312 96.8196 137.819 96.2988C137.148 95.587 136.312 94.2772 136.564 93.256C137.059 91.2508 139.646 89.0708 141.075 87.6555C149.659 79.1536 163.836 68.0306 164.156 55.167C164.005 54.6377 163.846 54.1055 163.62 53.6026C162.882 51.9599 161.629 50.4648 159.908 49.8182C156.974 48.7155 153.517 50.0223 150.968 51.5174C146.586 54.0875 143.21 57.2855 140.069 61.2751C136.789 65.4397 133.84 70.1967 131.29 74.848C129.78 77.6011 128.448 80.5861 126.67 83.1731C126.022 84.116 125.27 85.1629 124.195 85.6376C123.141 85.5762 122.109 85.5405 121.383 84.6444C120.528 83.5897 120.567 81.9672 120.751 80.7041C121.076 78.471 122.052 76.2481 122.792 74.1212C124.66 68.7575 126.538 63.2804 126.849 57.5615C127.034 54.1815 126.602 50.3879 124.21 47.7967C122.193 45.6125 118.696 44.2802 115.766 44.1949C103.808 43.847 101.162 59.2691 100.42 68.2255C100.163 71.3311 100.362 74.6267 99.8863 77.6869C99.7665 78.4573 99.4915 79.367 98.873 79.8855C98.144 80.4965 97.1619 80.5166 96.2683 80.3724C95.4435 80.2394 94.3209 79.9559 93.929 79.1238C93.1938 77.5626 93.3205 74.9756 93.1726 73.2358C92.5581 66.0051 91.3342 57.8434 86.8933 51.8705C84.8222 49.0849 82.0316 47.0847 78.542 46.6098C75.9266 46.254 73.1627 46.4749 71.0257 48.1638C61.8799 55.3916 69.3651 75.6796 73.2241 84.3425C74.3214 86.806 78.265 92.1468 77.8562 94.7046C77.7329 95.4763 77.2423 96.1282 76.6173 96.5758C75.8008 97.1604 74.6691 97.4577 73.6788 97.222C72.0639 96.8377 70.9526 94.6595 70.203 93.3002C64.0234 82.0937 57.2402 64.5396 60.9304 51.8849C62.1736 47.6216 64.7489 43.7826 68.7275 41.6347C72.8116 39.4299 77.9544 39.1799 82.3532 40.5515C89.2609 42.7055 92.8459 48.1052 96.0731 54.2017C97.032 51.4166 98.0551 48.7727 99.6978 46.3078C103.013 41.3327 107.423 38.8793 113.203 37.7261Z"/><path fill="#FE6946" d="M344.837 66.1686C346.976 66.0215 349.502 65.6443 351.603 66.0858C352.879 66.3538 354.322 66.9357 355.002 68.1261C355.301 68.649 355.362 69.1984 355.162 69.7683C354.6 71.3677 352.629 72.1976 351.101 72.4949C347.386 73.2177 341.257 73.1145 337.177 73.4977C323.38 74.7933 308.511 77.2493 295.829 83.0627C291.769 84.9235 285.729 88.2878 284.155 92.7745C283.764 93.8883 283.839 94.868 284.379 95.9158C285.987 99.0389 289.876 99.2788 292.963 98.851C298.554 98.076 304.35 95.2842 309.542 93.1586C320.506 88.6698 347.79 75.9633 359.33 79.6263C362.046 80.4884 364.085 82.2817 365.366 84.8198C366.725 87.5141 367.482 91.3884 366.479 94.3001C363.525 102.88 348.682 104.879 341.097 106.961C337.592 107.923 334.145 109.08 330.865 110.657C324.557 113.69 318.857 118.424 316.515 125.22C313.512 133.93 317.92 141.549 324.982 146.444C326.886 147.765 330.626 149.418 331.586 151.491C331.621 151.568 331.655 151.644 331.689 151.721C331.684 152.906 331.549 153.981 330.716 154.887C330.157 155.495 329.433 155.786 328.618 155.826C325.036 155.999 320.071 151.479 317.606 149.186C312.597 144.527 309.043 138.64 308.832 131.662C308.684 126.741 310.177 121.776 312.717 117.585C324.711 97.7905 351.931 101.359 359.304 93.1761C360.023 92.3777 360.398 91.4255 360.311 90.345C360.212 89.1156 359.63 87.833 358.676 87.0354C350.094 79.8607 305.436 104.479 293.285 105.753C288.991 106.203 284.565 105.447 281.149 102.633C278.878 100.763 277.489 98.1474 277.258 95.2116C276.96 91.418 278.53 88.1338 280.971 85.3363C293.307 71.1989 326.956 67.3766 344.837 66.1686Z"/><path fill="#FEC034" d="M496.297 48.5006C497.701 48.3532 499.188 48.2621 500.599 48.3462C505.995 48.668 511.566 51.136 515.171 55.204C519.257 59.8141 521.214 66.6124 520.854 72.6968C528.194 71.1567 535.256 68.5088 541.8 64.8443C544.39 63.3635 546.927 61.3377 549.698 60.2387C550.409 59.9567 551.194 59.6915 551.927 60.0406C552.819 60.4655 553.749 61.295 554.031 62.2713C554.288 63.1567 554.042 64.0596 553.576 64.8244C551.12 68.8514 535.813 75.3908 531.211 76.9735C527.74 78.1677 524.121 79.0042 520.567 79.916C520.465 85.1026 519.006 90.2461 517.711 95.2347C515.445 102.001 511.273 111.315 505.91 116.183C504.973 117.034 503.798 117.796 502.475 117.655C501.61 117.563 500.773 117.069 500.218 116.405C499.39 115.413 499.36 114.225 499.931 113.114C501.103 110.83 503.277 109.026 504.705 106.87C509.876 98.9535 512.965 89.8589 513.683 80.4301C506.317 81.2214 498.451 79.6366 492.148 75.6784C488.174 73.1828 484.801 69.4317 483.788 64.7321C483.078 61.4427 483.522 57.8199 485.373 54.9699C487.913 51.0586 491.956 49.4467 496.297 48.5006Z"/><path fill="#FFFEFA" d="M498.17 55.0644C501.782 54.7994 505.139 55.7379 508.045 57.9233C511.994 60.8946 513.666 65.5912 514.287 70.3429C514.418 71.346 514.576 72.5649 513.923 73.4231C512.157 74.2668 509.251 73.7705 507.336 73.641C503.343 73.5739 498.81 71.9951 495.503 69.7655C493.041 68.1055 490.712 65.6032 490.157 62.5885C489.902 61.2013 490.088 59.8754 490.914 58.71C492.603 56.3281 495.454 55.5112 498.17 55.0644Z"/><path fill="#FEC034" d="M190.134 48.5298C190.955 48.4195 191.79 48.3637 192.618 48.325C198.18 48.0877 203.614 50.0388 207.755 53.76C213.116 58.6666 214.6 65.8717 214.929 72.8159C222.2 71.218 229.19 68.5418 235.669 64.8762C238.17 63.4896 240.641 61.4962 243.263 60.4099C244.288 59.9856 245.603 59.7983 246.637 60.304C247.33 60.6431 247.792 61.3116 248.012 62.0347C248.283 62.9192 248.165 63.8248 247.722 64.6296C245.291 69.0552 230.198 75.2605 225.141 76.9758C221.619 78.1702 217.959 78.9422 214.404 80.04C214.326 85.0862 213.058 89.8883 211.758 94.7277C209.227 102.802 204.699 113.415 197.242 118.151C196.229 117.675 194.841 117.14 194.134 116.226C193.402 115.28 193.511 113.86 194.027 112.843C195.215 110.506 197.581 108.638 199.03 106.412C204.174 98.5054 206.388 89.8513 207.858 80.6502C200.717 80.7485 193.707 79.9985 187.364 76.4237C183.091 74.0159 179.19 70.2857 177.887 65.4105C177.004 62.1049 177.361 58.327 179.141 55.3732C181.627 51.248 185.704 49.6512 190.134 48.5298Z"/><path fill="#FFFEFA" d="M191.496 55.057C191.634 55.0439 191.771 55.034 191.909 55.0273C195.928 54.8233 200.066 55.8322 203.053 58.6361C207.306 62.6281 208.049 68.3225 208.186 73.8272L201.654 73.7451C197.761 73.2849 194.009 72.4469 190.596 70.4402C187.8 68.7967 185.004 66.1728 184.209 62.9223C183.882 61.5887 183.962 60.2764 184.689 59.0875C186.166 56.671 188.895 55.6705 191.496 55.057Z"/><path fill="#68A6FC" d="M264.612 7.22452C264.687 7.22262 264.762 7.21985 264.837 7.21882C265.993 7.20277 267.562 7.2181 268.409 8.14106C269.215 9.01878 269.068 10.4812 268.825 11.5538C268.147 14.541 266.379 17.3929 265.374 20.3072C262.508 28.6195 261.133 36.9022 260.883 45.674C265.131 46.0849 269.328 46.6645 273.347 48.1633C278.587 50.1175 283.302 53.6687 285.632 58.8734C287.243 62.4707 287.682 66.7565 286.222 70.4738C284.993 73.5489 282.592 76.0089 279.547 77.3114C275.833 78.9287 270.872 78.9542 267.126 77.4058C261.832 75.2177 259.291 70.6729 257.221 65.6668C255.67 61.299 254.837 56.8529 254.561 52.2322C246.851 52.4324 239.232 53.9458 232.031 56.7075C229.639 57.5982 226.625 59.5182 224.131 59.799C223.19 59.9048 222.323 59.7058 221.601 59.0615C220.955 58.4858 220.544 57.6221 220.511 56.7573C220.473 55.791 220.84 54.9571 221.504 54.2668C223.09 52.617 225.757 51.8695 227.848 51.0905C236.461 47.8826 244.931 45.8585 254.15 45.5937C254.201 43.5347 254.296 41.4769 254.435 39.422C254.95 32.411 259.008 12.058 264.612 7.22452Z"/><path fill="#FFFEFA" d="M261.385 52.5116C266.32 52.7464 271.781 54.0029 275.754 57.0905C277.97 58.8125 280.149 61.321 280.475 64.2196C280.725 66.443 280.014 68.267 278.655 69.9778C277.072 71.2417 275.259 71.8931 273.237 72.0111C271.089 72.1365 269.031 71.1608 267.473 69.7354C263.073 65.7102 261.632 58.1913 261.385 52.5116Z"/><path fill="#68A6FC" d="M570.703 7.20144C570.771 7.20024 570.84 7.1982 570.908 7.19784C572.031 7.19197 573.59 7.2471 574.378 8.17152C575.166 9.09727 574.951 10.5934 574.71 11.6841C573.979 14.9966 572.156 18.4186 570.998 21.6288C568.192 29.4116 567.038 37.4082 566.884 45.6635C570.917 46.1332 574.943 46.6374 578.794 47.9859C584.195 49.8776 589.117 53.4281 591.594 58.7205C593.228 62.211 593.665 66.353 592.33 70.0131C591.102 73.2869 588.612 75.9307 585.417 77.3509C581.772 78.9848 577.183 79.0555 573.484 77.5704C568.037 75.3835 565.178 70.5095 563.01 65.3826C561.561 61.1921 560.914 56.6107 560.48 52.2142C553.406 52.5556 546.621 53.6597 539.912 55.981C537.206 56.9176 532.386 59.738 529.769 59.9139C529.01 59.965 528.324 59.7342 527.749 59.23C527.02 58.5909 526.547 57.5767 526.483 56.6129C526.43 55.8175 526.631 55.1057 527.169 54.5083C528.492 53.039 530.927 52.3145 532.732 51.594C541.798 47.9769 550.518 45.9275 560.274 45.5986C560.275 42.2487 560.452 38.9011 560.803 35.5697C561.525 29.3282 565.601 11.2447 570.703 7.20144Z"/><path fill="#FFFEFA" d="M567.249 52.3632C572.459 53.0824 578.174 53.9265 582.327 57.4484C584.538 59.323 586.179 62.0252 586.378 64.963C586.52 67.0783 585.826 68.6156 584.46 70.1776C583.093 71.0625 581.658 71.6081 580.038 71.8216C577.765 72.1211 575.685 71.5202 573.896 70.0852C568.935 66.1041 567.892 58.254 567.249 52.3632Z"/><path fill="#FD83CA" d="M294.816 151.328C298.385 150.884 302.224 151.372 305.699 152.217C315.591 154.62 324.275 160.221 329.608 169.017C338.7 184.014 338.334 203.767 334.25 220.291C333.462 223.479 331.649 231.949 328.514 233.648C327.786 234.042 327.1 234.009 326.338 233.744C322.639 232.457 324.159 229.57 325.074 226.831C330.527 210.504 333.249 191.402 325.415 175.31C321.488 167.244 315.023 162.34 306.671 159.469C304.516 158.724 302.275 158.259 300.002 158.085C291.235 157.333 282.322 159.516 277.238 167.196C275.671 169.564 274.384 172.718 272.188 174.57C272.063 174.596 271.656 174.727 271.555 174.702C270.036 174.319 264.414 168.803 261.327 167.394C252.727 163.466 240.321 166.279 233.636 172.824C231.406 175.007 229.148 180.833 226.304 181.732C225.56 181.967 224.85 181.849 224.194 181.446C223.39 180.952 222.818 180.23 222.612 179.3C222.16 177.266 223.396 175.043 224.47 173.405C229.125 166.297 237.188 161.367 245.434 159.673C255.414 157.623 262.117 159.484 270.45 164.95C271.375 163.631 272.293 162.276 273.324 161.038C278.92 154.319 286.365 152.06 294.816 151.328Z"/><path fill="#FE6946" d="M417.746 255.313C421.3 255.023 425.07 255.368 428.476 256.442C434.411 258.368 439.345 262.561 442.204 268.107C442.858 267.446 443.536 266.81 444.237 266.199C450.309 260.897 457.658 258.731 465.66 259.287C473.603 259.838 478.64 263.56 483.721 269.398C481.739 270.573 479.749 271.735 477.751 272.882C474.878 269.048 470.951 266.758 466.213 266.095C460.812 265.341 452.59 266.994 448.742 271.141C446.721 273.32 445.122 276.435 442.782 278.193C442.054 278.407 441.37 278.426 440.659 278.14C438.619 277.32 437.661 274.196 436.801 272.335C434.864 268.82 432.678 265.916 429.027 264.003C423.737 261.232 417.17 261.47 411.584 263.193C398.328 267.28 394.88 280.077 394.959 292.58C394.97 294.4 395.768 298.013 394.776 299.604C394.293 300.379 393.387 300.812 392.525 301.006C391.72 301.186 390.796 301.131 390.117 300.623C388.824 299.655 388.442 297.717 388.285 296.214C387.227 286.076 389.323 273.846 395.907 265.777C401.457 258.975 409.232 256.153 417.746 255.313Z"/><path fill="#FE6946" d="M111.794 255.319C114.515 255.159 117.213 255.177 119.894 255.721C127.537 257.271 132.266 261.948 136.462 268.242C137.222 267.318 138.002 266.453 138.906 265.668C144.607 260.712 152.156 258.716 159.616 259.26C167.506 259.835 172.774 263.564 177.796 269.394C175.828 270.562 173.855 271.719 171.874 272.865C169.42 269.538 165.917 267.342 161.908 266.406C155.275 264.857 146.502 266.771 141.897 272.043C140.409 273.747 138.833 276.953 136.874 278.041C136.208 278.411 135.359 278.507 134.634 278.253C132.704 277.575 131.679 274.24 130.891 272.518C129.04 269.164 126.982 266.259 123.603 264.273C118.54 261.296 112.005 261.443 106.486 262.934C92.9874 266.579 88.9927 279.141 88.9066 291.809C88.8915 294.042 89.8434 297.875 88.5935 299.789C88.1853 300.415 87.5653 300.788 86.8427 300.936C85.7516 301.159 84.3594 300.823 83.477 300.142C82.5685 299.442 82.4045 297.287 82.3084 296.217C81.3672 285.726 83.1982 273.742 90.2001 265.479C95.7589 258.919 103.405 256.032 111.794 255.319Z"/><path fill="#FEC034" d="M466.02 120.794C467.04 120.703 468.14 120.645 469.164 120.73C471.594 120.933 474.101 121.862 475.71 123.764C480.405 129.316 473.096 140.391 472.6 146.819C472.256 151.268 473.547 155.22 476.466 158.603C482.066 165.095 490.028 163.266 497.442 163.914C498.51 164.008 499.679 164.127 500.376 165.011C500.947 165.736 501.348 167.216 501.174 168.12C501.036 168.839 500.609 169.392 499.989 169.769C496.854 171.674 487.335 170.701 483.633 169.811C477.527 168.344 472.106 165.084 468.814 159.626C465.294 153.792 465.14 147.463 466.746 140.978C467.88 136.447 470.125 132.455 470.81 127.757C469.255 127.653 467.706 127.707 466.15 127.748C457.399 132.662 456.018 150.497 457.47 159.145C458.164 163.277 459.927 166.956 460.804 170.96C460.945 171.591 460.857 172.253 460.557 172.826C460.207 173.477 459.532 173.963 458.832 174.178C457.904 174.464 456.884 174.398 456.028 173.924C453.991 172.795 452.652 168.171 452.029 166.038C448.645 154.445 449.301 140.936 455.208 130.243C457.675 125.778 460.996 122.236 466.02 120.794Z"/><path fill="#FEC034" d="M161.637 120.811C162.949 120.748 164.263 120.853 165.548 121.124C167.415 121.522 169.154 122.459 170.164 124.124C173.514 129.648 168.454 137.984 167.127 143.573C166.049 148.11 166.328 152.535 168.847 156.57C172.775 162.862 179.949 163.773 186.726 163.914C188.731 163.955 190.976 163.728 192.93 164.222C193.796 164.44 194.602 164.757 195.035 165.608C195.361 166.249 195.355 166.994 195.159 167.673C194.847 168.752 194.107 169.606 193.121 170.129C189.984 171.791 179.112 170.435 175.551 169.3C169.827 167.476 164.883 163.776 162.109 158.378C159.017 152.363 159.264 145.469 161.289 139.175C162.255 136.128 164.078 132.962 164.521 129.804C164.632 129.02 164.752 128.401 164.271 127.751C163.083 127.426 161.826 127.457 160.656 127.84C153.923 130.037 151.303 142.803 150.944 148.888C150.699 152.633 150.943 156.393 151.67 160.075C152.107 162.397 155.397 171.255 154.487 172.862C154.079 173.584 153.258 173.913 152.484 174.092C151.598 174.297 150.713 174.298 149.94 173.757C146.723 171.505 145.315 163.802 144.748 160.145C143.052 149.217 144.403 136.344 151.126 127.192C153.837 123.5 157.106 121.493 161.637 120.811Z"/><path fill="#68A6FC" d="M299.206 257.119C311.666 255.917 326.024 260.59 336.459 267.175C339.838 269.307 348.999 275.244 349.681 279.086C349.812 279.82 349.708 280.521 349.206 281.1C347.444 283.134 345.465 282.207 343.673 280.96C340.84 278.988 338.312 276.596 335.456 274.624C323.7 266.505 311.167 263.048 296.916 263.965C284.882 265.753 274.218 269.516 264.296 276.694C261.54 278.688 255.466 285.608 252.767 286.204C252.018 286.369 251.149 286.217 250.551 285.726C249.92 285.207 249.376 284.235 249.289 283.419C249.144 282.061 249.819 280.956 250.678 279.965C262.689 266.119 281.261 258.559 299.206 257.119Z"/><path fill="#41A486" d="M416.868 187.723C417.218 187.768 417.556 187.829 417.9 187.909C418.8 188.119 419.744 188.617 420.197 189.461C421.815 192.474 414.288 197.641 412.576 199.95C411.501 201.401 410.807 203.396 410.3 205.127C408.172 212.384 409.938 220.715 413.527 227.213C420.607 240.03 435.231 247.526 449.635 247.572C452.821 247.582 458.297 246.32 461.053 247.165C462.096 247.485 463.175 248.209 463.633 249.232C463.914 249.86 463.932 250.568 463.633 251.194C463.076 252.358 462.041 252.909 460.878 253.299C449.644 255.63 437.402 254.153 427.167 248.962C416.727 243.667 408.328 234.882 404.679 223.646C402.034 215.5 401.775 206.35 405.745 198.581C407.959 194.248 412.101 189.257 416.868 187.723Z"/><path fill="#41A486" d="M110.363 187.71C110.698 187.734 111.033 187.77 111.365 187.818C112.371 187.967 113.675 188.415 114.247 189.317C116.096 192.233 108.973 196.817 107.397 198.831C105.885 200.762 104.797 203.268 104.165 205.629C102.179 213.05 104.204 221.594 108.017 228.107C115.309 240.563 129.817 247.696 144.018 247.582C147.077 247.558 152.689 246.31 155.405 247.087C156.177 247.307 156.833 247.762 157.197 248.495C157.598 249.303 157.646 250.51 157.358 251.366C156.997 252.438 156.253 252.777 155.305 253.226C146.451 254.869 137.533 254.774 128.903 252.073C117.384 248.467 107.027 240.775 101.384 229.963C97.0021 221.567 95.2203 211.661 98.1309 202.497C100.088 196.142 104.488 190.824 110.363 187.71Z"/><path fill="#7053D0" d="M82.0278 104.406C90.0012 103.228 100.302 104.364 107.354 108.473C112.566 111.511 116.253 116.227 117.77 122.091C119.616 129.229 117.803 135.543 114.147 141.73C114.338 141.852 114.524 141.979 114.707 142.113C119.053 145.258 122.087 149.923 122.94 155.234C123.476 158.578 123.362 163.153 121.274 165.938C120.7 166.703 119.727 167.554 118.732 167.651C118.004 167.721 117.435 167.564 116.878 167.076C114.263 164.788 116.702 159.829 116.418 156.828C115.006 147.104 106.712 147.487 105.265 143.721C105.239 141.79 106.697 140.21 107.746 138.712C110.688 134.508 112.54 130.068 111.555 124.793C110.79 120.698 108.109 117.088 104.66 114.812C95.2526 108.601 82.23 110.88 71.9096 112.858C70.5936 113.11 69.427 112.945 68.3183 112.166C67.6705 111.712 67.1337 111.031 67.0423 110.223C66.9589 109.486 67.2787 108.729 67.7391 108.167C70.3306 105.001 78.2772 104.755 82.0278 104.406Z"/><path fill="#7053D0" d="M387.884 104.407C396.235 103.221 406.365 104.373 413.698 108.749C418.909 111.859 422.415 116.53 423.872 122.442C425.568 129.324 423.752 135.809 420.173 141.75C420.208 141.776 420.243 141.801 420.277 141.828C424.859 145.312 428.213 149.739 428.981 155.576C429.407 158.813 429.282 163.396 427.184 166.044C426.512 166.891 425.58 167.636 424.473 167.734C423.909 167.784 423.351 167.598 422.936 167.195C420.402 164.734 422.635 159.577 422.443 156.416C420.464 146.983 414.491 148.331 411.285 143.969C410.877 142.09 414.629 137.733 415.626 135.904C417.792 131.871 418.277 127.145 416.976 122.755C415.972 119.447 413.769 116.847 410.911 114.957C398.383 106.672 377.127 113.998 375.063 112.77C374.187 112.249 373.394 110.966 373.214 109.966C373.082 109.23 373.263 108.587 373.722 108.002C376.053 105.029 384.232 104.798 387.884 104.407Z"/><path fill="#68A6FC" d="M423.613 173.146C430.102 172.944 436.807 174.201 442.609 177.158C444.776 178.262 448.303 179.962 449.051 182.459C449.287 183.247 449.215 184.058 448.788 184.768C446.643 188.336 441.147 184.206 438.723 182.952C436.998 182.059 435.021 181.152 433.142 180.65C428.505 179.413 422.786 179.574 418.113 180.58C409.444 182.447 401.095 187.665 397.558 196.037C396.508 198.52 396.104 201.492 394.605 203.739C394.182 204.373 393.635 204.89 392.842 204.992C391.828 205.123 391.138 204.646 390.392 204.059C377.803 192.134 367.363 200.893 363.082 198.645C362.476 198.326 362.086 197.768 361.884 197.124C361.578 196.15 361.604 194.861 362.142 193.978C362.856 192.806 364.449 192.248 365.707 191.941C374.163 189.876 382.868 190.616 390.352 195.128C391.933 191.588 393.94 188.167 396.521 185.26C403.397 177.517 413.462 173.754 423.613 173.146Z"/><path fill="#68A6FC" d="M117.495 173.15C125.563 172.825 133.884 174.993 140.612 179.487C141.658 180.186 142.816 181.169 143.017 182.485C143.156 183.397 142.847 184.485 142.303 185.224C141.591 186.191 140.441 186.611 139.275 186.325C137.45 185.876 135.372 184.221 133.713 183.299C128.182 180.222 121.29 179.288 115.057 180.027C105.922 181.108 95.0188 187.007 91.4218 195.922C90.5008 198.205 90.2113 202.156 88.6299 203.981C88.1442 204.541 87.4941 204.795 86.7642 204.853C85.7857 204.932 85.1377 204.665 84.3924 204.053C78.4278 198.335 71.6126 196.431 63.4481 198.159C61.6781 198.534 59.2254 199.479 57.4723 198.805C56.7649 198.533 56.254 198.03 55.9511 197.34C55.5857 196.508 55.5018 195.297 55.868 194.453C56.3999 193.228 57.8168 192.59 59.0083 192.207C64.2731 190.513 71.8762 190.326 77.2029 191.855C79.8102 192.603 82.2113 193.834 84.6098 195.077C86.039 191.412 87.9801 188.062 90.6371 185.149C97.5094 177.614 107.438 173.634 117.495 173.15Z"/><path fill="#FE6946" d="M64.0485 208.361C70.9154 207.886 76.7971 208.613 82.347 212.997C89.8909 218.956 92.8596 228.436 93.9193 237.642C94.3008 240.956 94.9759 252.688 92.8099 255.067C92.1781 255.761 91.0375 255.885 90.1477 255.872C89.3842 255.861 88.6765 255.628 88.1643 255.036C86.4956 253.105 87.4175 248.152 87.5262 245.727C87.5311 242.292 87.3623 238.875 86.7972 235.483C85.701 228.902 82.9762 221.583 77.2829 217.609C73.443 214.928 66.1176 213.667 61.6796 215.784C59.463 216.841 57.1929 219.113 54.767 219.528C54.1126 219.64 53.5555 219.55 53.0071 219.135C52.2334 218.55 51.5774 217.54 51.4641 216.569C51.3541 215.627 51.7021 214.798 52.2552 214.06C54.7541 210.726 60.081 208.935 64.0485 208.361Z"/><path fill="#FE6946" d="M370.091 208.352C377.328 207.865 383.412 208.759 389.07 213.609C396.456 219.937 399.362 229.837 400.03 239.243C400.254 242.4 400.957 252.88 398.737 255.132C398.106 255.772 397.177 255.876 396.324 255.865C395.444 255.853 394.68 255.621 394.088 254.931C392.465 253.035 393.41 247.991 393.522 245.619C393.61 238.748 392.701 231.338 389.579 225.131C387.417 220.832 383.982 217.104 379.288 215.615C375.429 214.391 370.301 214.427 366.66 216.282C364.507 217.379 362.583 218.908 360.427 220.044C360.08 219.832 359.741 219.609 359.408 219.375C358.475 218.712 357.682 217.903 357.519 216.722C357.376 215.69 357.735 214.788 358.352 213.978C360.849 210.7 366.154 208.92 370.091 208.352Z"/><path fill="#FE6946" d="M89.41 89.2086C90.668 89.1039 91.9284 89.0303 93.1901 88.9877C105.078 88.6301 118.015 90.6175 126.989 99.1338C134.134 105.914 136.505 114.767 136.698 124.369C136.736 126.246 136.803 129.433 135.313 130.794C134.519 131.519 133.512 131.466 132.514 131.439C131.502 131.02 130.703 130.611 130.298 129.542C129.703 127.974 129.901 125.756 129.865 124.102C129.735 118.063 128.71 112.364 125.212 107.309C119.419 98.9365 108.138 96.0422 98.4875 95.6969C94.5042 95.5544 90.4993 96.0087 86.5516 95.2931C85.9391 94.7443 85.4843 93.9797 85.3774 93.1523C85.2697 92.3193 85.5609 91.508 86.0548 90.8477C86.9475 89.6543 88.0181 89.4344 89.41 89.2086Z"/><path fill="#FE6946" d="M396.084 89.1681L397.566 89.0754C409.68 88.3711 423.119 90.2506 432.493 98.6392C439.64 105.035 442.147 113.617 442.621 122.934C442.731 125.081 443.074 129.022 441.42 130.652C440.478 131.582 439.19 131.435 437.974 131.403C437.257 130.923 436.686 130.559 436.394 129.704C435.813 128.007 435.959 125.94 435.901 124.152C435.733 118.946 434.956 113.983 432.45 109.345C426.869 99.0182 414.202 95.7634 403.266 95.6575C400.27 95.6285 396.223 96.3746 393.392 95.472C392.344 95.1374 391.76 94.5512 391.282 93.582C391.123 92.4536 391.457 91.7041 392.137 90.816C393.225 89.3923 394.442 89.3972 396.084 89.1681Z"/><path fill="#41A486" d="M247.48 76.8894C247.532 76.883 247.584 76.8747 247.636 76.8702C252.736 76.4304 259.278 77.4402 263.264 80.9222C263.953 81.5246 264.43 82.4662 264.454 83.3895C264.474 84.2715 264.132 85.1231 263.508 85.747C260.98 88.309 258.113 85.2891 255.671 84.3668C253.789 83.6558 251.515 83.4109 249.507 83.4699C244.411 83.6198 239.811 85.8259 236.348 89.5178C233.088 93.6846 234.395 96.889 232.816 99.6851C232.47 100.296 231.237 100.999 230.553 101.125C229.848 101.256 229.234 101.086 228.664 100.662C227.625 99.8895 227.143 98.6168 226.966 97.3735C226.426 93.5625 228.442 88.7822 230.728 85.7774C234.813 80.408 240.964 77.7875 247.48 76.8894Z"/><path fill="#41A486" d="M553.501 76.892C558.483 76.5902 564.834 77.2404 568.841 80.5302C569.706 81.2401 570.295 82.2009 570.383 83.3316C570.454 84.2495 570.181 85.1586 569.525 85.8223C567.195 88.1775 563.686 85.1433 561.372 84.3001C559.59 83.6505 557.557 83.3921 555.67 83.4304C550.465 83.536 545.87 85.7974 542.321 89.5303C539.412 93.4014 540.513 96.6066 538.735 99.5408C538.347 100.181 537.283 100.896 536.557 101.066C535.873 101.225 535.233 101.077 534.668 100.665C533.566 99.8631 533.089 98.4521 532.924 97.1512C532.439 93.3326 534.445 88.7694 536.726 85.7726C540.851 80.3544 546.919 77.7968 553.501 76.892Z"/><path fill="#FEC034" d="M233.719 274.306C234.928 274.328 236.154 274.471 237.042 275.388C238.526 276.92 237.93 280.42 237.887 282.352C237.823 285.263 238.705 288.037 240.769 290.146C241.997 291.4 243.559 292.361 245.165 293.052C251.666 295.848 253.919 291.404 259.204 291.627C259.954 291.658 260.763 291.954 261.247 292.549C261.89 293.339 261.929 294.527 261.79 295.493C261.629 296.613 260.705 297.153 259.861 297.784C256.343 299.77 252.925 300.869 248.853 300.604C243.908 300.282 238.617 297.935 235.337 294.183C232.117 290.467 230.489 285.634 230.805 280.728C230.99 278.196 231.771 275.967 233.719 274.306Z"/><path fill="#FEC034" d="M539.148 274.69C539.982 274.609 540.841 274.568 541.675 274.669C545.124 275.085 543.629 281.251 543.847 283.606C544.038 285.67 544.761 287.629 546.047 289.263C549.027 293.056 554.006 294.67 558.645 293.346C560.751 292.759 563.335 291.437 565.558 291.737C566.267 291.832 566.93 292.137 567.349 292.737C567.927 293.565 567.998 294.92 567.775 295.882C567.57 296.769 566.546 297.304 565.835 297.782C563.041 299.431 560.137 300.542 556.862 300.676C551.776 300.885 546.317 298.878 542.586 295.41C538.971 292.05 537.029 287.483 536.876 282.569C536.792 279.872 537.231 276.723 539.148 274.69Z"/><path fill="#FEC034" d="M470.771 234.582C471.225 234.547 471.693 234.509 472.148 234.544C473.02 234.612 473.866 234.97 474.302 235.766C476.016 238.89 474.42 243.234 477.771 247.854C481.517 253.017 490.253 252.795 493.101 256.436C493.552 257.013 493.76 257.615 493.631 258.353C493.395 259.697 492.314 260.409 491.291 261.157C490.166 261.185 489.019 261.049 487.919 260.813C481.485 259.431 474.919 255.883 471.315 250.213C469.255 246.972 467.452 241.122 468.379 237.343C468.735 235.889 469.542 235.345 470.771 234.582Z"/><path fill="#FEC034" d="M165.381 234.633C165.919 234.657 166.524 234.654 167.047 234.78C169.435 235.354 169.377 241.752 169.886 243.809C170.286 245.429 170.996 246.944 172.048 248.244C175.745 252.809 185.991 254.03 187.334 256.442C187.693 257.086 187.722 257.801 187.501 258.492C187.06 259.864 186.159 260.591 184.935 261.254C180.8 260.746 176.8 259.453 173.15 257.445C168.052 254.615 164.614 250.541 163.024 244.91C162.319 242.415 161.406 238.454 162.821 236.11C163.441 235.083 164.295 234.926 165.381 234.633Z"/><path fill="#68A6FC" d="M130.43 137.784C130.973 137.754 131.538 137.706 132.082 137.74C132.902 137.791 133.459 138.002 133.98 138.652C137.866 143.506 138.443 156.281 137.775 162.261C137.509 164.648 137.235 167.299 135.256 168.879C134.661 168.898 134.056 168.881 133.462 168.839C132.431 168.765 131.626 168.539 130.931 167.731C129.777 164.821 131.486 160.38 131.379 157.164C131.305 154.92 131.182 152.653 130.776 150.441C130.161 147.087 128.184 142.721 128.649 139.381C129.025 138.626 129.751 138.233 130.43 137.784Z"/><path fill="#68A6FC" d="M436.898 137.755C437.496 137.742 438.371 137.69 438.93 137.932C440.054 138.417 440.949 140.265 441.4 141.311C444.095 147.571 445.37 160.722 442.713 167.087C442.221 168.265 441.627 168.586 440.495 169.056C440.133 169.034 439.773 169.009 439.413 168.961C438.352 168.817 437.504 168.457 436.848 167.592C435.824 164.706 437.454 160.543 437.482 157.471C437.513 154.204 436.938 150.799 436.114 147.647C435.616 145.741 433.91 141.518 434.603 139.674C435.035 138.526 435.851 138.204 436.898 137.755Z"/><path fill="#68A6FC" d="M597.277 136.049C598.994 135.822 600.869 135.85 602.592 135.986C604.182 136.111 606.604 136.09 607.664 137.484C608.231 138.229 608.394 139.424 608.206 140.328C607.462 143.898 599.565 142.47 596.724 142.99C593.917 143.505 591.621 144.578 589.241 146.125C587.889 147.128 586.365 148.527 584.809 149.127C583.752 149.534 582.797 149.56 581.753 149.116C581.28 148.701 580.925 148.337 580.796 147.7C580.51 146.286 581.046 144.849 581.859 143.709C585.135 139.112 591.99 136.953 597.277 136.049Z"/><path fill="#68A6FC" d="M291.326 136.065C293.693 135.803 296.551 135.675 298.888 136.154C299.993 136.381 301.235 136.753 301.839 137.791C302.342 138.655 302.438 139.767 302.206 140.727C301.424 143.96 293.464 142.429 290.78 142.907C288.029 143.397 285.789 144.558 283.44 146.002C281.947 147.048 280.409 148.626 278.657 149.175C277.703 149.474 276.481 149.557 275.595 149.033C275.107 148.745 274.848 148.234 274.738 147.691C274.449 146.26 275.137 144.74 275.97 143.617C279.283 139.153 286.073 136.909 291.326 136.065Z"/></svg>