<?xml version="1.0" encoding="utf-8" ?><svg xmlns="http://www.w3.org/2000/svg" xmlns:xlink="http://www.w3.org/1999/xlink" width="830" height="350" viewBox="0 0 830 350"><path fill="#D39C5F" d="M0 0L4.19603 0L23.2416 0L42.7138 0L50.212 0L75.4189 0L125.334 0L157.453 0L266.977 0L357.662 0L387.727 0L474.255 0L523.304 0L559.552 0L571.809 0L586.05 0L603.271 0L609.447 0L632.463 0L651.416 0L696.292 0L727.93 0L737.95 0L753.715 0L760.167 0L767.653 0L787.341 0L823.201 0L830 0L830 23.7424L830 47.0083L830 69.4405L830 100.945L830 109.319L830 129.833L830 142.483L830 153.572L830 170.878L830 186.498L830 200.444L830 212.623L830 228.721L830 267.686L830 286.255L830 318.405L830 350L821.482 350L776.791 350L769.323 350L728.563 350L686.281 350L635.984 350L590.131 350L547.665 350L519.472 350L486.547 350L462.791 350L453.971 350L419.101 350L400.53 350L384.37 350L333.389 350L317.389 350L242.242 350L220.014 350L201.691 350L184.598 350L147.876 350L136.053 350L67.475 350L43.5396 350L21.8908 350L0 350L0 338.457L0 305.477L0 298.117L0 270.494L0 254.095L0 228.918L0 216.015L0 200.984L0 179.91L0 160.498L0 138.541L0 111.027L0 98.4268L0 83.9248L0 75.0468L0 40.1987L0 17.7657L0 0Z"/><path fill="#11121A" d="M266.977 0L357.662 0C363.032 10.9562 356.69 10.4614 354.805 19.1053C356.178 24.4916 361.885 41.7342 352.162 42.0868C343.344 42.4066 342.162 23.7154 332.114 24.4012C323.784 24.9698 329.266 34.8635 323.837 39.5879C316.627 45.8619 310.569 42.8775 302.315 41.6348C299.345 41.4693 295.958 42.2862 293.031 42.1991C279.806 41.8056 271.89 28.4403 268.836 17.0654C267.198 10.9659 266.958 6.08647 266.977 0Z"/><path fill="#11121A" d="M50.212 0L75.4189 0L125.334 0L157.453 0C157.091 3.19281 155.852 6.80281 154.348 9.65278C147.089 23.4046 130.788 18.7567 120.25 28.3594C113.935 34.1136 113.707 43.0527 107.852 49.3108C105.278 52.0622 101.805 54.1679 98.0426 54.1307C84.0956 55.3194 79.9967 31.7507 72.9319 27.2103C58.0241 17.6294 50.6946 24.6582 50.212 0Z"/><path fill="#7C5A3C" d="M75.4189 0L125.334 0C125.336 0.244402 125.336 0.48882 125.335 0.733228C125.237 12.8594 117.023 11.2913 109.489 16.1914C107.175 17.6967 104.852 24.0757 102.34 26.165C94.6057 32.3805 93.3938 21.4022 90.5432 17.6731C84.7871 10.1431 74.8181 12.8017 75.4189 0Z"/><path fill="#11121A" d="M486.547 350C485.873 344.026 485.429 340.997 480.255 337.201C477.257 335.001 474.456 332.744 474.036 328.91C473.02 319.629 479.314 318.476 485.166 314.008C490.068 309.289 489.376 305.397 495.544 301.362C505.81 294.644 510.577 304.82 514.978 306.29C530.335 311.422 528.136 312.377 528.402 327.808C528.459 331.089 531.159 341.802 528.742 344.821L528.604 344.995C526.514 347.586 522.572 348.726 519.472 350L486.547 350Z"/><path fill="#7C5A3C" d="M491.851 314.257C493.045 314.236 495.108 314.087 496.201 314.586C498.008 315.411 498.063 317.18 498.776 318.804C499.155 319.667 499.9 320.207 500.775 320.505C503.969 321.596 506.967 318.443 509.697 317.206C510.576 316.808 511.657 316.631 512.579 316.987C514.863 317.87 515.775 320.387 516.635 322.47C515.383 324.913 514.164 327.374 512.98 329.851C514.98 332.633 518.181 334.619 519.655 337.778C520.397 339.369 520.122 340.729 519.566 342.319C518.112 343.474 516.596 344.252 514.939 345.063C509.912 344.69 507.119 342.14 502.55 341.105C498.772 340.249 493.548 341.89 490.159 339.862C489.444 339.434 489.004 338.834 488.807 338.034C488.056 334.976 490.814 331.013 492.304 328.557C491.275 323.566 489.372 319.144 491.851 314.257Z"/><path fill="#11121A" d="M201.691 350C199.244 345.427 197.393 339.763 194.877 335.792C190.59 330.548 181.563 330.746 184.106 321.5C184.84 318.833 187.686 316.454 190.136 315.378C199.37 311.323 201.58 312.338 205.785 302.251C210.967 289.82 226.547 298.361 229.832 307.973C230.966 310.814 231.978 313.081 232.997 315.922C235.668 321.822 240.074 326.947 237.413 333.949C233.803 343.445 226.156 340.993 220.014 350L201.691 350Z"/><path fill="#11121A" d="M67.475 350C69.3983 346.593 71.9238 341.966 72.7035 338.113C74.997 326.778 77.4153 296.828 96.2283 307.781C106.273 313.629 109.919 325.145 121.053 329.311C130.242 332.75 133.198 341.313 136.053 350L67.475 350Z"/><path fill="#11121A" d="M830 153.572C825.287 156.187 822.406 160.175 818.165 163.549C807.999 171.64 801.616 161.888 791.548 161.307C785.916 160.983 778.622 155.396 780.003 149.486C781.734 142.076 792.705 138.082 797.6 132.975C804.212 125.497 808.602 117.177 817.202 111.614C821.64 108.744 824.85 108.208 830 109.319L830 129.833L830 142.483L830 153.572Z"/><path fill="#7C5A3C" d="M830 142.483C825.371 144.21 821.52 144.893 816.587 146.143C813.796 146.851 800.84 154.884 798.364 150.601C795.258 144.703 806.366 139.698 807.03 136.547C811.915 113.341 814.374 127.822 830 129.833L830 142.483Z"/><path fill="#7C5A3C" d="M0 298.117C12.167 287.179 16.727 299.048 24.1451 305.747C30.4912 311.479 42.5126 314.607 42.0941 326.096C42.0759 327.552 40.9462 330.584 40.0239 331.572C35.1253 336.822 27.1131 345.613 21.8908 350L0 350L0 338.457L0 305.477L0 298.117Z"/><path fill="#11121A" d="M0 305.477C8.32118 321.665 6.46356 322.015 0 338.457L0 305.477Z"/><path fill="#11121A" d="M830 212.623C819.975 219.487 806.615 226.898 800.712 210.47C798.146 203.328 790.61 203.345 785.46 198.364C780.227 193.3 778.489 186.415 783.575 180.372C787.624 176.115 793.809 178.732 798.281 179.116C811.308 180.236 815.981 171.001 830 170.878L830 186.498L830 200.444L830 212.623Z"/><path fill="#7C5A3C" d="M830 200.444C820.767 216.724 816.992 208.803 803.291 202.305C801.054 200.892 792.538 197.584 793.511 194.091C796.214 184.393 808.133 188.962 813.361 188.22C821.94 187.001 821.289 185.057 830 186.498L830 200.444Z"/><path fill="#11121A" d="M0 270.494C22.0117 272.407 18.6795 282.795 31.6922 294.873C42.1783 304.607 61.2535 306.929 58.8513 326.943C57.9713 337.638 49.9734 342.47 43.5396 350L21.8908 350C27.1131 345.613 35.1253 336.822 40.0239 331.572C40.9462 330.584 42.0759 327.552 42.0941 326.096C42.5126 314.607 30.4912 311.479 24.1451 305.747C16.727 299.048 12.167 287.179 0 298.117L0 270.494Z"/><path fill="#11121A" d="M0 0L4.19603 0L23.2416 0L42.7138 0C46.5848 13.1192 48.7904 22.3875 35.3737 30.2625C29.9848 33.4256 22.1411 38.5066 15.4917 34.7104C8.46837 30.1956 7.37021 22.6071 0 17.7657L0 0Z"/><path fill="#7C5A3C" d="M4.19603 0L23.2416 0C25.6035 3.75548 27.052 6.81353 27.2285 11.3316C28.0501 18.8417 19.7476 25.8454 14.4719 18.3269C9.77109 11.6276 10.1262 6.6632 4.19603 0Z"/><path fill="#11121A" d="M635.984 350C636.091 342.23 638.658 340.062 640.198 333.281C641.798 326.238 638.403 318.034 644.93 311.898C648.347 308.62 654.073 309.745 657.138 312.975C659.147 315.092 661.287 320.651 663.375 322.14C674.937 330.386 684.931 333.662 686.281 350L635.984 350Z"/><path fill="#11121A" d="M571.809 0L586.05 0L603.271 0L609.447 0C608.037 8.24566 607.501 15.0238 607.38 22.8185C607.282 29.0588 588.608 45.9071 581.552 40.5516C575.887 36.2513 576.135 31.4448 574.471 25.6153C571.433 14.9689 569.993 10.8423 571.809 0Z"/><path fill="#7C5A3C" d="M586.05 0L603.271 0C601.396 9.48685 599.914 14.9404 592.092 21.2958C589.891 23.0842 584.526 26.7411 582.094 23.1027C578.116 17.1512 582.994 10.525 585.08 4.94764C585.572 3.63095 585.836 1.49037 586.05 0Z"/><path fill="#11121A" d="M830 267.686C825.147 268.006 819.246 270.474 814.897 270.312C805.402 269.959 791.464 256.18 791.682 246.787C791.743 243.095 793.324 239.592 796.051 237.103C801.911 231.754 806.037 235.149 812.049 233.839C819.14 232.294 821.88 228.346 830 228.721L830 267.686Z"/><path fill="#11121A" d="M432.308 318.23C441.259 321.103 440.211 326.961 446.482 331.223C450.813 334.166 460.152 333.865 463.524 340.461C464.661 342.686 463.298 347.543 462.791 350L453.971 350L419.101 350L400.53 350C401.327 346.932 402.146 343.215 405.109 341.49C407.92 339.853 411.143 340.124 413.753 337.863C420.504 332.014 415.791 321.969 432.308 318.23Z"/><path fill="#7C5A3C" d="M419.101 350C420.43 346.727 422.55 344.576 424.136 341.555C425.39 339.169 425.152 335.55 427.651 333.811C432.472 330.454 436.35 339.44 438.771 341.087C442.647 343.724 451.584 339.449 453.467 346.158C453.745 347.064 453.884 348.961 453.971 350L419.101 350Z"/><path fill="#11121A" d="M737.95 0L753.715 0L760.167 0L767.653 0C770.687 2.23025 776.397 6.01503 777.814 9.14144C783.157 20.9276 774.511 21.5115 767.381 24.8013C761.459 27.5337 756.595 36.3534 748.361 33.978C743.275 32.5108 742.934 26.472 739.551 23.1657C737.783 21.4674 733.902 19.8674 732.942 17.5796C730.57 11.9261 736.253 5.34613 737.95 0Z"/><path fill="#7C5A3C" d="M753.715 0L760.167 0C761.489 2.4291 762.847 6.6234 763.99 9.42933C765.55 10.4491 769.425 12.7187 769.862 14.0892C770.891 17.3102 759.841 26.3849 757.516 27.2833C754.536 27.2507 753.464 24.1322 751.458 22.6156C738.761 13.0135 745.067 8.92335 753.715 0Z"/><path fill="#11121A" d="M242.242 350C246.583 337.541 255.328 343.058 264.444 339.681C270.871 337.3 273.794 326.689 281.207 325.402C289.237 323.626 294.038 330.943 300.309 334.219C303.591 335.934 307.873 336.349 311.376 337.699C317.655 340.119 317.731 344.195 317.389 350L242.242 350Z"/><path fill="#11121A" d="M776.791 350C771.527 334.554 776.649 331.906 789.397 325.183C795.238 322.104 799.398 318.593 806.543 322.5C813.31 326.098 813.254 333.68 818.515 338.464C820.686 340.379 824.909 339.453 825.847 343.142C826.713 346.547 824.212 348.539 821.482 350L776.791 350Z"/><path fill="#11121A" d="M523.304 0L559.552 0C558.094 1.97002 557.493 3.36189 556.676 5.62517C558.872 17.8557 556.478 18.4215 546.959 24.3446C541.399 27.8041 537.279 33.4185 529.69 33.4588C520.304 33.5087 518.895 22.1849 519.991 15.1331C520.823 9.88208 523.254 5.33379 523.304 0Z"/><path fill="#11121A" d="M787.341 0L823.201 0C826.24 1.71174 828.708 3.13291 829.111 7.00666C829.78 11.0619 827.461 16.3376 823.434 17.934C817.66 20.2229 812.119 22.4158 806.845 25.8012C802.96 28.2952 794.506 25.6284 793.073 21.1213C792.355 18.8612 792.664 15.3702 792.071 12.9892C789.819 7.43259 787.716 6.35896 787.341 0Z"/><path fill="#11121A" d="M738.891 329.581C744.304 328.218 750.102 324.338 755.539 327.568C759.547 329.948 767.531 345.421 769.323 350L728.563 350C726.113 342.328 719.509 332.805 730.878 327.654C733.281 326.565 736.596 328.528 738.891 329.581Z"/><path fill="#11121A" d="M547.665 350C549.273 343.713 551.556 342.523 555.328 337.512C558.35 333.495 559.536 329.233 564.273 326.439C566.855 324.916 569.946 324.51 572.833 325.314C580.666 327.427 582.154 334.311 585.129 340.719C586.561 343.806 588.844 346.955 590.131 350L547.665 350Z"/><path fill="#11121A" d="M387.727 0L474.255 0C469.944 6.30898 458.721 10.3053 451.798 9.5308C440.356 8.25092 434.831 8.97055 424.165 12.5481C416.269 15.1966 409.469 6.84173 403.34 4.3948C397.898 2.22223 393.581 4.22785 387.727 0Z"/><path fill="#11121A" d="M147.876 350C145.562 336.406 144.792 331.23 160.001 325.797C162.976 324.734 167.995 330.191 170.29 331.921C179.277 338.697 181.529 338.657 184.598 350L147.876 350Z"/><path fill="#11121A" d="M0 111.027C8.7452 112.278 12.5862 114.907 18.1302 121.651C23.5047 128.189 24.9314 138.599 18.1673 144.524C12.5626 149.433 6.08453 140.192 0 138.541L0 111.027Z"/><path fill="#11121A" d="M0 40.1987C6.66887 37.872 10.8634 41.7076 14.0733 47.4446C16.5674 52.042 21.7072 57.8258 20.9794 63.2914C20.7632 64.9145 13.0397 68.3079 11.4154 69.2152C7.44568 71.4325 4.48624 74.0681 0 75.0468L0 40.1987Z"/><path fill="#11121A" d="M333.389 350C336.388 346.817 339.507 345.29 343.04 342.91C346.603 340.51 351.203 335.166 355.671 334.917C358.831 334.74 362.213 340.405 366.005 341.97C373.722 345.156 379.688 341.373 384.37 350L333.389 350Z"/><path fill="#11121A" d="M830 286.255L830 318.405C824.124 316.512 811.193 319.785 811.56 311.261C811.825 305.099 819.64 301.372 822.54 297.487C825.906 292.977 824.667 290.423 830 286.255Z"/><path fill="#11121A" d="M0 200.984C12.2945 197.887 18.1579 198.455 13.7603 210.529C13.2996 211.794 15.9219 216.82 13.9069 218.799C10.6149 222.961 3.00264 217.952 0 216.015L0 200.984Z"/><path fill="#11121A" d="M830 23.7424L830 47.0083C824.559 47.1406 823.946 44.3455 820.028 41.3007C817.859 39.6159 813.728 39.1655 812.664 36.34C812.615 32.0528 826.222 24.8114 830 23.7424Z"/><path fill="#11121A" d="M823.568 86.2964C821.462 81.9628 815.171 75.8189 822.475 72.0064C824.896 70.7423 827.332 69.9869 830 69.4405L830 100.945C829.46 100.949 828.92 100.933 828.382 100.898C820.332 100.321 823.018 91.3243 823.568 86.2964Z"/><path fill="#11121A" d="M696.292 0L727.93 0C726.111 12.4656 720.277 10.0698 711.081 8.22644C701.785 6.36282 702.467 7.10619 696.292 0Z"/><path fill="#11121A" d="M0 228.918C1.7956 229.875 4.08629 231.169 5.90369 231.969C9.5655 231.547 15.5826 230.165 16.8876 235.066C16.7086 239.861 7.43128 243.196 4.57535 246.34C2.81373 248.279 1.7505 251.839 0 254.095L0 228.918Z"/><path fill="#11121A" d="M632.463 0L651.416 0C649.572 4.18499 645.429 13.6886 639.546 12.1513C636.121 11.2561 633.87 3.12788 632.463 0Z"/><path fill="#11121A" d="M0 83.9248C14.1121 87.1425 15.6582 108.155 0 98.4268L0 83.9248Z"/><path fill="#11121A" d="M0 160.498C3.26121 164.497 10.1422 171.908 9.37904 177.071C8.48014 183.151 3.53063 181.862 0 179.91L0 160.498Z"/><path fill="#11121A" d="M146.847 113.793C151.754 113.363 154.306 119.009 158.11 121.355C161.621 121.056 165.454 119.47 168.995 120.005C170.842 120.283 172.064 123.683 173.496 124.998C178.68 129.755 186.169 128.766 188.95 133.053C190.16 134.918 190.571 137.201 190.378 139.392C189.875 145.093 186.371 150.15 185.398 155.8C184.087 163.416 185.205 171.243 183.655 178.822C180.463 194.43 171.134 195.109 163.057 205.274C159.132 210.214 158.132 216.398 152.565 220.098C149.879 221.115 146.923 221.167 144.203 220.246C133.663 216.662 133.833 204.558 128.545 197.585C123.357 190.743 113.695 189.867 109.66 181.349C108.029 177.906 107.686 174.021 108.045 170.268C109.625 153.749 122.998 154.032 129.813 143.433C133.22 138.134 132.331 131.596 134.447 125.853C136.547 120.157 141.483 116.284 146.847 113.793Z"/><path fill="#7C5A3C" d="M145.67 128.841C147.73 128.662 149.413 128.612 151.174 129.845C155.358 132.777 154.534 139.652 155.484 144.084C155.761 145.376 156.396 146.672 157.576 147.36C160.036 148.795 165.209 146.976 167.812 146.369C170.089 147.599 171.809 149.12 173.183 151.335C174.693 153.771 175.158 156.483 174.984 159.308C174.391 168.931 167.982 172.247 163.877 179.926C162.124 183.207 161.872 186.875 161.01 190.433C160.09 194.226 158.239 196.572 154.967 198.573C153.081 198.986 151.522 199.032 149.687 198.342C144.421 196.362 143.827 189.249 141.819 184.765C139.354 179.258 134.857 179.92 130.039 178.033C128.344 177.369 126.747 176.178 126.021 174.46C122.122 165.236 136.072 160.548 139.64 154.603C143.538 148.108 138.163 139.466 141.185 132.718C142.177 130.504 143.509 129.696 145.67 128.841Z"/><path fill="#11121A" d="M45.1207 37.8139C46.4638 37.7989 47.9816 37.9652 49.251 38.3999C53.6237 39.8971 56.1163 44.9265 59.8966 47.4839C67.2403 52.4519 75.7905 50.6444 80.6996 60.5719C84.8689 69.0035 81.4359 78.5818 78.6832 86.8605C83.4731 101.453 76.8274 98.9081 73.5529 110.354C74.7083 115.039 76.3413 120.134 76.3449 124.965C76.3471 127.85 75.633 130.735 73.4976 132.798C70.4048 135.786 66.0332 135.813 62.0246 135.706C55.2664 134.038 52.1582 127.921 46.2152 125.065C39.7063 121.938 31.4347 123.268 25.6063 118.604C21.7092 115.485 19.7321 109.748 19.1795 104.932C17.5959 91.1285 24.2053 84.9945 26.6529 73.2201C28.6757 63.4896 25.2689 52.8411 32.0048 44.4006C35.3385 40.2233 39.931 38.3753 45.1207 37.8139Z"/><path fill="#11121A" d="M111.242 205.021C112.665 204.889 114.248 204.941 115.662 205.18C129.029 207.439 130.249 226.026 137.182 235.164C140.634 239.713 146.33 242.082 149.576 246.723C155.2 254.763 152.141 269.43 147.477 277.277C145.234 281.051 141.896 284.2 140.088 288.233C138.401 291.997 138.1 296.18 137.358 300.197C136.315 305.85 133.521 309.917 128.831 313.158C125.873 314.345 122.684 314.85 119.633 313.634C114.371 311.537 112.71 306.079 108.988 302.328C103.887 297.188 97.4532 294.757 94.3833 287.641C89.1985 275.622 97.4588 262.098 97.2508 249.709C97.0848 239.819 90.5567 231.295 94.6264 221.208C97.578 213.893 104.104 208.076 111.242 205.021Z"/><path fill="#7C5A3C" d="M116.707 236.211C118.191 236.26 119.721 236.527 121.2 236.694C122.55 237.678 123.868 238.675 124.999 239.911C127.524 242.671 135.524 255.119 136.867 258.481C137.614 260.351 137.878 262.273 137.779 264.275C137.372 272.543 131.956 282.103 125.891 287.544C125.064 288.115 124.196 288.664 123.307 289.134C121.87 289.894 119.351 290.459 117.775 289.929C115.955 289.316 115.133 287.563 114.575 285.87C112.071 278.285 114.757 272.18 116.547 264.847C116.955 263.174 117.534 261.144 117.418 259.411C117.181 255.875 114.324 252.039 112.817 248.875C111.656 246.438 110.767 243.474 111.774 240.825C112.622 238.593 114.595 237.135 116.707 236.211Z"/><path fill="#11121A" d="M440.806 120.055C442.909 120.149 444.992 120.49 446.678 121.839C450.164 124.63 450.752 129.768 453.954 132.932C457.648 136.584 463.176 137.244 467.01 140.75C470.244 143.708 472.202 148.411 472.402 152.762C472.67 158.59 470.844 164.715 470.391 170.547C470.046 174.994 470.605 179.506 470.076 183.939C469.888 185.517 469.677 188.465 468.571 189.633C468.528 189.679 468.483 189.723 468.44 189.769C466.326 191.991 463.962 192.205 461.108 192.8C453.212 194.446 451.191 202.647 447.232 208.614C445.994 210.481 444.223 212.369 441.918 212.781C439.625 213.192 437.952 211.923 436.209 210.661C432.924 207.611 430.663 203.46 426.874 200.959C421.104 197.151 413.482 197.136 407.961 192.801C403.875 189.593 401.335 184.219 400.733 179.115C400.384 176.367 400.756 173.575 401.814 171.014C404 165.781 408.793 162.229 411.305 157.144C412.612 154.498 413.319 151.495 414.165 148.678C416.189 141.936 418.77 135.429 423.203 129.872C427.719 124.211 433.609 120.875 440.806 120.055Z"/><path fill="#7C5A3C" d="M432.695 139.719C436.536 139.644 440.286 143.321 443.808 144.806C446.477 144.362 449.12 143.942 451.818 143.729C452.586 144.304 453.346 144.945 454.014 145.633C456.558 148.249 455.542 153.266 455.454 156.631C457.477 160.071 462.068 162.776 461.965 167.167C461.921 169.008 461.101 170.627 460.066 172.11C457.883 175.235 454.542 177.367 452.11 180.274C449.669 183.192 448.39 186.817 445.643 189.53C445.375 189.68 445.102 189.824 444.826 189.96C438.962 192.872 435.32 186.72 430.573 184.456C428.037 183.247 425.02 182.979 422.348 182.077C420.353 181.403 418.303 180.07 417.381 178.1C413.339 169.468 421.438 164.281 423.928 157.272L424.017 157.018C425.157 153.805 424.312 150.257 425.288 146.995C426.368 143.386 429.594 141.404 432.695 139.719Z"/><path fill="#11121A" d="M304.9 135.751C305.098 135.735 305.296 135.718 305.494 135.71C311.5 135.461 311.812 139.805 315.608 143.214C317.192 144.636 319.402 145.271 320.938 146.763C323.798 149.54 322.491 156.194 323.685 159.934C324.899 163.735 327.532 166.687 328.363 170.737C329.569 176.607 329.282 182.854 330.997 188.615C332.477 193.583 336.166 197.632 337.397 202.647C338.058 205.339 337.72 208.637 337.693 211.395C340.46 216.331 346.25 218.419 348.714 223.344C349.507 224.928 349.589 226.453 349.019 228.126C347.785 231.751 344.58 233.467 342.548 236.473C340.376 239.689 339.791 243.821 337.177 246.808C335.621 248.586 333.644 249.551 331.555 250.542C329.049 251.202 326.283 251.533 323.806 250.559C322.916 250.209 322.206 249.575 321.535 248.911C318.978 246.381 316.885 243.389 314.388 240.797C311.464 237.763 307.67 235.213 305.244 231.751C302.992 228.537 303.441 224.126 301.658 220.654C299.097 215.665 294.507 212.077 292.225 206.751C289.815 201.126 291.358 196.182 291.017 190.392C290.765 186.094 288.243 182.208 287.853 177.941C287.347 172.421 289.989 167.703 290.953 162.423C291.934 157.055 291.567 151.545 293.656 146.396C295.829 141.038 299.674 137.94 304.9 135.751Z"/><path fill="#7C5A3C" d="M309.715 154.263C310.368 154.441 311.012 154.653 311.642 154.899C314.216 155.912 316.473 158.654 317.932 160.944C322.622 168.305 322.754 173.718 322.641 182.16C322.607 184.753 322.653 187.433 323.429 189.931C324.897 194.653 329.377 196.285 331.104 200.416C332.602 203.999 330.792 207.683 329.392 210.952C330.671 214.065 332.914 216.58 334.342 219.587C335.14 221.265 335.624 223.13 334.947 224.935C334.033 227.374 331.598 228.586 329.393 229.627C328.528 229.707 327.655 229.684 326.795 229.557C322.21 228.882 318.237 225.262 315.553 221.709C309.827 214.128 304.481 201.223 305.886 191.551C306.457 187.615 307.957 183.454 307.37 179.463C306.557 173.947 301.884 169.526 302.784 163.673C303.421 159.527 306.541 156.649 309.715 154.263Z"/><path fill="#11121A" d="M43.1219 138.995C52.6813 137.877 55.8864 150.162 64.5189 152.073C70.6219 153.423 77.4217 148.795 83.0667 151.541C89.1822 154.515 99.7045 169.894 101.887 176.403C107.498 193.141 92.261 203.158 85.4588 216.948C83.7842 220.798 81.1367 224.849 77.4312 226.998C73.7586 229.129 69.0579 228.821 65.0787 227.74C59.3156 226.174 55.011 222.527 52.0648 217.386C47.0803 208.689 46.2071 197.73 46.3454 187.887C46.4368 181.379 46.9838 174.941 44.3399 168.823C41.55 162.368 33.8083 153.671 35.9276 146.307C36.9768 142.662 40.0284 140.75 43.1219 138.995Z"/><path fill="#7C5A3C" d="M62.8556 160.529C70.4353 159.92 76.4904 165.182 82.3526 169.353C86.4658 172.279 90.9285 176.024 91.7355 181.335C92.9438 189.287 80.3503 198.248 75.7177 204.365C73.7326 206.865 70.919 210.764 67.6652 211.607C66.6122 211.879 65.4919 211.753 64.5606 211.179C53.4027 204.305 61.6444 191.695 61.0891 182.199C60.8145 177.503 58.1202 173.085 57.0732 168.52C56.6677 166.752 56.3524 164.157 57.4398 162.552C58.5413 160.927 61.0788 160.828 62.8556 160.529Z"/><path fill="#7C5A3C" d="M431.145 285.945C432.734 292.354 435.698 302.663 428.611 305.909C412.213 313.419 414.812 299.626 408.405 291.579C405.377 287.775 395.362 286.549 392.485 281.325C388.925 274.861 392.565 270.364 390.307 263.808C388.992 258.256 377.199 252.706 379.537 246.12C382.098 238.91 383.261 230.666 384.826 223.335C386.205 216.873 392.511 209.266 399.629 209.856C404.796 210.285 407.784 214.877 409.839 219.151C411.972 222.932 413.687 225.83 418.098 227.051C418.298 227.106 418.5 227.16 418.701 227.211C436.183 229.968 436.791 232.788 435.382 248.95C434.853 255.006 440.51 260 436.736 267.643C433.639 274.872 430.893 278.006 431.145 285.945Z"/><path fill="#11121A" d="M431.145 285.945C432.734 292.354 435.698 302.663 428.611 305.909C412.213 313.419 414.812 299.626 408.405 291.579C405.377 287.775 395.362 286.549 392.485 281.325C388.925 274.861 392.565 270.364 390.307 263.808C388.992 258.256 377.199 252.706 379.537 246.12C382.098 238.91 383.261 230.666 384.826 223.335C386.205 216.873 392.511 209.266 399.629 209.856C404.796 210.285 407.784 214.877 409.839 219.151C408.609 231.101 401.478 230.426 398.207 241.611C399.164 245.415 401.178 249.234 401.661 252.889C402.321 257.885 399.101 263.937 401.691 268.802C403.725 272.474 407.75 274.226 409.726 277.993C410.755 279.955 411.597 285.382 413.477 285.803C419.319 287.111 424.719 284.758 431.145 285.945Z"/><path fill="#11121A" d="M418.701 227.211C436.183 229.968 436.791 232.788 435.382 248.95C434.853 255.006 440.51 260 436.736 267.643C433.632 268.851 430.426 274.458 427.105 276.093C423.127 278.051 422.607 274.403 420.673 272.016C418.989 269.937 416.519 268.95 416.897 265.843C417.369 261.643 420.09 257.69 419.959 253.386C419.763 246.924 412.854 242.647 413.18 236.117C413.365 232.479 416.122 229.452 418.701 227.211Z"/><path fill="#11121A" d="M188.823 8.66012C194.395 8.55526 200.293 9.44881 205.942 9.66094C211.677 9.87627 219.748 8.77195 224.885 11.4806C236.062 17.3741 233.135 29.9849 236.088 39.9923C237.345 44.2506 240.708 48.7595 242.216 53.4406C244.23 59.5021 243.716 66.1189 240.79 71.797C237.652 77.8993 233.997 80.4857 227.664 82.5057C219.531 85.6444 212.697 82.2464 205.855 77.5837C197.183 71.6743 198.022 60.4894 192.952 53.3621C183.922 40.6665 164.243 32.3022 177.001 13.8076C179.532 10.166 184.514 9.08697 188.823 8.66012Z"/><path fill="#7C5A3C" d="M201.698 23.5145C202.649 23.5292 203.623 23.5649 204.53 23.8768C207.299 24.8282 222.713 36.9246 223.857 39.3857C225.55 43.0256 224.639 59.3332 223.127 63.1373C222.179 65.5226 219.794 66.5156 217.611 67.4917C214.832 67.8299 212.508 68.2336 209.864 67.0071C201.696 63.2184 201.732 50.8425 199.741 43.4668C198.656 40.305 196.957 37.4316 195.789 34.2865C193.503 28.1316 195.746 25.4503 201.698 23.5145Z"/><path fill="#11121A" d="M140.64 28.4054C147.078 28.5035 149.659 34.6323 154.594 37.5976C158.272 38.098 161.914 37.6678 165.537 38.7243C166.967 39.1411 168.747 39.8266 169.504 41.2255C170.14 42.4024 169.009 51.4941 170.279 55.3663C172.301 61.5336 179.14 63.3414 182.015 68.7641C186.16 76.582 177.785 80.6911 176.578 87.4121C175.847 91.4799 177.656 95.5267 176.284 99.6716C175.717 101.387 174.693 103.058 173.017 103.871C169.578 105.538 164.992 104.375 161.591 103.219C156.919 101.31 153.021 97.5396 148.056 96.4161C144.31 95.5684 140.201 97.2635 136.564 95.8946C129.191 93.1196 132.192 85.8262 130.011 81.2074C128.423 77.8448 124.543 78.2918 121.543 77.1923C119.471 76.4328 118.159 74.5058 117.259 72.5812C114.596 66.8914 117.482 59.2165 121.882 55.1649C124.011 53.2046 127.471 51.3854 129.088 49.0427C131.375 45.7305 131.66 40.5098 133.103 36.7164C134.581 32.8323 136.81 30.125 140.64 28.4054Z"/><path fill="#7C5A3C" d="M146.007 45.2897C149.468 45.9486 151.803 53.7142 154.276 56.3852C156.91 57.4692 160.813 57.8682 162.613 60.222C165.473 63.9617 161.854 69.3062 162.464 73.5225C163.069 77.7024 166.899 81.5632 166.131 85.9298C165.754 88.0764 164.266 89.5093 162.523 90.6782C160.243 92.207 158.664 92.6225 155.972 92.1154C150.372 88.6137 151.08 81.0817 145.77 77.7136C143.362 76.1865 140.071 75.9471 137.458 74.7822C135.956 74.1123 134.661 73.1074 134.081 71.5207C133.027 68.6357 135.624 64.7493 136.846 62.1821C136.558 59.4768 136.252 56.7733 135.929 54.0719C138.015 49.0932 141.49 47.6134 146.007 45.2897Z"/><path fill="#11121A" d="M366.738 99.7918C367.707 106.957 368.258 117.581 360.61 122.712C354.209 127.006 346.613 116.547 342.1 117.159C333.496 118.326 327.838 122.598 321.668 112.178C317.866 105.853 320.568 98.4373 320.941 91.5574C321.151 87.6829 320.499 82.5601 321.749 78.6737C322.887 75.2196 326.184 71.3874 327.246 67.9305L327.329 67.65C328.591 63.5045 327.446 58.0024 329.058 53.4998C330.008 50.849 331.99 48.6951 334.554 47.5277C341.243 44.4601 345.782 50.4722 351.716 52.7992C356.747 54.771 361 55.567 365.769 58.2996C371.031 61.3142 368.471 64.2018 369.703 68.6798C372.13 77.5049 377.428 84.9474 364.488 87.9378C364.306 91.6883 366.288 91.3776 366.851 94.2158C367.085 95.3965 366.445 97.6778 366.738 99.7918Z"/><path fill="#7C5A3C" d="M366.738 99.7918C366.035 95.8906 363.645 93.421 359.457 94.1237C350.156 95.1947 359.181 111.705 350.417 111.964C345.864 112.099 334.911 97.0194 334.684 92.5623C334.393 86.8246 344.378 85.9385 340.333 79.359C337.4 74.5884 332.299 69.17 337.491 64.1954C341.264 60.2868 346.719 59.8376 350.983 63.47C354.47 67.4379 352.001 73.4285 351.863 77.8367C351.766 80.9188 357.333 85.5457 359.552 87.8615C361.198 87.8624 362.843 87.8878 364.488 87.9378C364.306 91.6883 366.288 91.3776 366.851 94.2158C367.085 95.3965 366.445 97.6778 366.738 99.7918Z"/><path fill="#11121A" d="M252.041 179.866C253.459 179.647 255.037 179.645 256.446 179.906C266.813 181.824 263.601 195.083 269.015 201.09C272.032 204.438 277.705 203.774 280.338 207.784C283.47 212.552 281.973 219.587 284.591 224.799C287.269 230.13 293.314 233.442 296.677 238.451C298.345 240.934 299.766 243.98 299.12 247.034C298.601 249.493 296.779 251.872 294.673 253.207C289.76 256.321 283.235 254.32 278.019 253.123C266.544 250.534 260.073 259.857 249.853 258.14C247.457 257.738 245.688 257.024 244.298 255.002C243.479 253.811 242.858 252.456 242.384 251.093C241.3 247.98 240.797 244.657 239.861 241.493C238.469 236.791 236.367 232.31 235.67 227.418C235.384 225.408 235.436 223.538 236.036 221.581C237.473 216.897 241.609 213.69 242.842 208.892C244.083 204.062 243.249 198.853 244.12 193.919C245.137 188.155 247.129 183.321 252.041 179.866Z"/><path fill="#7C5A3C" d="M261.006 202.418C263.499 202.871 265.66 207.88 267.969 209.396C270.593 211.119 274.716 210.609 276.982 212.972C279.861 215.976 278.835 221.187 280.049 224.903C281.447 229.185 284.639 232.74 284.385 237.515C284.312 238.899 283.91 240.213 282.811 241.122C280.596 242.953 277.115 242.321 274.496 242.03C271.252 241.102 267.957 240.104 264.599 239.707C261.724 239.368 258.753 239.464 255.905 238.94C254.341 238.652 253.126 238.507 252.201 237.082C247.902 230.458 253.495 225.482 254.206 218.986C254.561 215.741 253.556 212.086 254.365 208.915C255.176 205.732 258.434 204.006 261.006 202.418Z"/><path fill="#11121A" d="M317.175 261.839C319.044 261.808 320.939 261.997 322.725 262.575C330.617 265.128 332.623 272.668 337.819 278.096C340.769 281.178 344.781 282.631 346.771 286.651C349.369 291.901 349.773 298.424 348.962 304.129C348.614 306.573 348.013 309.2 348.121 311.671C348.28 315.275 350.507 319.05 349.226 322.61C346.764 329.45 339.364 326.399 333.981 327.173C332.007 327.457 329.899 328.711 328.11 329.571C327.419 329.826 326.68 329.985 325.953 330.1C319.218 331.168 313.949 326.596 308.191 324.135C304.947 322.749 301.193 321.918 298.344 319.786C295.303 317.509 293.932 313.487 293.456 309.84C292.685 303.933 292.349 290.621 295.226 285.375C296.844 282.425 299.368 279.92 300.829 276.895C302.452 273.534 303.08 269.547 305.442 266.578C308.252 263.046 312.97 262.294 317.175 261.839Z"/><path fill="#7C5A3C" d="M321.472 276.285C321.593 276.273 321.714 276.265 321.835 276.259C334.932 275.69 329.443 295.058 336.012 300.981C338.747 303.446 343.203 302.678 346.613 302.545C345.592 304.949 344.415 306.867 342.832 308.928C343.016 309.851 343.447 311.367 343.178 312.28C342.359 315.06 336.761 315.892 334.434 316.942C332.867 317.648 331.37 318.728 329.925 319.661C328.51 320.368 326.97 321.209 325.343 320.734C322.485 319.9 319.948 315.364 317.669 313.42C314.608 310.809 309.374 309.787 307.51 305.901C303.674 297.902 312.941 294.765 315.275 288.773C316.389 285.911 315.405 282.654 316.471 279.997C317.262 278.027 319.679 277.109 321.472 276.285Z"/><path fill="#11121A" d="M544.777 180.642C551.826 179.866 549.641 186.581 553.594 187.958C556.76 189.06 560.418 184.962 563.135 183.69C565.205 182.725 567.582 182.661 569.701 183.513C574.064 185.252 576.457 190.043 579.926 192.997C583.239 195.818 587.737 197.036 591.047 199.93C592.585 201.275 593.759 202.798 594.565 204.683C595.481 206.823 595.843 209.061 595.535 211.377C594.966 215.672 592.278 219.367 591.259 223.552C590.106 228.287 591.163 233.259 589.274 237.873C587.542 242.103 584.188 244.423 580.13 246.079C572.555 248.345 568.683 242.154 561.908 240.6C558.724 242.186 555.974 244.825 552.792 246.283C551.995 246.648 551.162 246.818 550.322 246.481C547.55 245.369 546.637 241.447 545.545 238.941C542.933 237.388 540.212 236.257 537.761 234.408C539.256 229.624 542.17 225.673 543.305 220.679C540.758 219.241 537.171 218.683 535.648 215.94C533.504 212.077 537.412 208.026 537.902 204.115C538.616 198.417 537.251 192.334 539.007 186.786C540.008 183.624 541.972 182.116 544.777 180.642Z"/><path fill="#7C5A3C" d="M558.679 194.263C559.094 194.376 559.5 194.501 559.893 194.676C561.522 195.4 562.1 197.585 562.723 199.124C564.19 199.44 566.032 199.385 567.39 200.03C569.505 201.033 568.835 205.328 571.068 207.135C573.283 208.927 576.889 208.992 579.22 210.826C579.947 211.398 580.494 212.199 580.577 213.125C580.854 216.214 575.403 219.664 573.481 221.882C573.609 225.053 574.932 229.455 572.823 232.199C571.749 233.596 570.118 234.099 568.443 234.307C566.35 232.1 564.253 229.929 562.021 227.859C560.822 228.307 559.532 228.884 558.285 229.158C557.262 229.384 556.757 229.142 555.911 228.609C554.826 226.886 554.931 223.189 554.65 221.09C552.827 220.637 550.513 220.278 548.963 219.218C547.903 218.493 546.942 217.413 546.743 216.103C546.043 211.506 552.615 207.482 554.954 204.182L555.047 204.049C555.499 200.133 555.407 196.92 558.679 194.263Z"/><path fill="#11121A" d="M440.78 104.386C433.191 105.208 426.058 100.874 421.839 94.791C415.444 85.5685 406.942 76.6434 410.042 64.4641C412.054 56.5604 417.63 59.5346 422.607 55.2993C424.925 53.3054 425.216 48.1848 426.981 45.705C429.968 41.5813 438.224 39.2898 442.875 41.2604C447.434 42.6947 448.977 49.5887 452.221 51.9353C458.829 56.7155 465.616 57.9766 467.735 66.9809C468.529 70.3532 467.682 77.4045 468.728 80.1442C473.471 92.5705 478.597 106.279 459.889 108.834C456.478 106.742 455.671 104.998 451.367 103.428C447.827 103.609 444.295 103.928 440.78 104.386Z"/><path fill="#7C5A3C" d="M438.902 98.2223C440.463 96.484 442.959 94.1287 442.988 91.7717C443.055 86.4762 436.714 86.1094 433.834 83.0793C431.963 81.112 431.965 77.4663 431.001 74.9061C429.987 71.9039 426.647 67.7101 427.094 64.4546C427.846 58.9717 432.842 56.1027 437.932 56.647C447.032 57.6201 445.28 66.0316 449.681 71.4825C451.792 74.0557 456.213 76.0442 458.094 78.7309C463.414 86.3274 454.748 87.9423 450.196 90.9489C446.493 93.3945 451.566 97.5917 452.065 100.087C452.195 100.735 451.45 102.326 451.367 103.428C447.827 103.609 444.295 103.928 440.78 104.386C440.567 102.711 439.494 99.9269 438.902 98.2223Z"/><path fill="#11121A" d="M734.856 230.098C728.178 223.021 725.974 218.932 727.573 208.387C729.004 198.956 741.681 190.144 750.783 190.886C755.562 191.275 758.142 201.807 760.791 205.916C762.558 206.992 763.181 207.106 765.138 207.598C774.876 208.45 787.011 211.044 788.724 223.199C789.437 228.261 786.194 232.963 785.058 237.673C783.747 243.516 785.367 254.181 778.035 256.91C773.297 258.673 767.213 257.115 762.351 256.73C755.633 255.853 748.692 256.319 742.499 253.342C733.334 249.108 736.392 242.458 736.357 234.669C735.981 232.706 735.61 231.899 734.856 230.098Z"/><path fill="#11121A" d="M734.856 230.098C728.178 223.021 725.974 218.932 727.573 208.387C729.004 198.956 741.681 190.144 750.783 190.886C755.562 191.275 758.142 201.807 760.791 205.916C755.507 217.39 749.907 205.391 744.97 211.558C743.501 213.392 744.741 220.466 744.459 223.654C741.443 227.468 739.296 228.317 734.856 230.098Z"/><path fill="#7C5A3C" d="M760.791 205.916C762.558 206.992 763.181 207.106 765.138 207.598C763.588 213.803 766.72 213.413 763.277 218.948C767.216 227.09 778.762 229.073 769.171 237.822C761.184 234.912 760.544 234.839 752.228 236.79C746.396 234.442 742.234 229.608 736.357 234.669C735.981 232.706 735.61 231.899 734.856 230.098C739.296 228.317 741.443 227.468 744.459 223.654C744.741 220.466 743.501 213.392 744.97 211.558C749.907 205.391 755.507 217.39 760.791 205.916Z"/><path fill="#11121A" d="M472.66 12.2136C473.011 12.1995 473.363 12.1919 473.714 12.1907C478.287 12.1842 479.371 15.1318 482.359 18.0353C486.486 22.0457 492.353 17.3084 496.733 17.6541C509.285 18.6447 508.078 31.2972 511.625 39.7291C512.66 42.1878 516.308 44.6706 517.979 46.5664C525.89 55.6016 514.066 64.8802 511.586 72.9674C510.074 77.8975 516.38 82.4596 510.918 87.596C502.026 90.7409 491.838 81.8261 486.369 76.2255C484.395 74.204 479.212 73.0036 476.834 70.5462C470.804 64.3145 475.994 55.3354 472.224 48.1991C466.263 39.424 455.62 35.5075 461.615 22.4221C463.95 17.3262 467.193 14.2709 472.66 12.2136Z"/><path fill="#7C5A3C" d="M483.127 30.8805C483.798 30.8084 484.49 30.7972 485.163 30.8182C486.324 30.8545 487.252 31.0765 488.274 31.635C490.743 32.9838 502.912 42.5496 504.618 44.4015C511.017 51.3465 505.402 53.7632 504.306 60.3507C503.845 63.1174 504.864 65.9462 504.693 68.7031C504.566 70.7634 503.55 71.8861 502.042 73.1743C499.493 74.3014 497.493 74.319 494.874 73.3012C492.658 72.4265 490.705 70.9968 489.201 69.1495C484.592 63.4729 488.486 59.7841 486.448 54.3551C484.942 50.3407 481.526 47.0233 479.755 43.0489C478.658 40.5869 477.729 37.5204 478.778 34.9063C479.646 32.7449 481.053 31.777 483.127 30.8805Z"/><path fill="#11121A" d="M336.405 132.081C343.78 131.696 345.903 137.529 351.671 140.202C355.499 141.977 357.82 139.438 361.292 138.299C363.073 137.714 365.305 137.909 366.948 138.819C370.718 140.907 380.93 154.114 381.478 158.24C382.035 162.431 380.467 166.769 381.471 170.944C382.405 174.825 385.334 177.848 386.449 181.658C386.948 183.325 386.912 185.107 386.346 186.752C384.877 191.08 381.354 194.927 378.868 198.762C377.393 201.038 376.124 203.472 374.838 205.858C373.66 207.839 372.206 209.961 370.487 211.505C368.094 213.654 365.171 214.954 361.91 214.726C358.175 214.465 354.904 212.335 352.539 209.528C346.335 202.164 346.812 193.294 347.541 184.351C345.864 180.947 342.478 178.559 341.172 175.022C339.516 170.539 342.734 165.707 341.112 161.211C339.266 156.092 334.573 152.174 332.082 147.349C330.645 144.566 329.672 140.874 330.721 137.808C331.672 135.029 333.867 133.311 336.405 132.081Z"/><path fill="#11121A" d="M729.109 81.0841C744.483 80.3498 740.729 94.1349 749.906 97.1184C755.398 98.9038 762.319 95.1551 767.099 99.5394C769.521 101.76 769.017 105.587 769.192 108.558C769.274 109.942 769.614 111.434 770.758 112.338C773.749 114.7 784.072 110.667 787.931 110.42C789.726 110.306 791.857 110.394 793.248 111.696C794.446 112.817 794.627 114.526 794.692 116.073C795.026 123.987 790.221 130.479 783 133.434C778.827 135.141 773.684 135.664 770.527 139.075C768.149 144.213 765.959 147.912 760.464 150.023C756.249 151.642 749.666 152.709 745.426 150.706C737.991 147.194 741.773 139.406 739.658 133.978C738.407 130.77 732.633 129.677 729.711 128.433C727.099 127.321 725.105 125.635 724.066 122.945C720.755 114.378 727.783 111.83 730.551 105.277C733.045 99.3753 724.717 96.4024 722.747 91.4889C722.105 89.8882 721.892 87.9293 722.614 86.3165C723.658 83.9845 726.785 81.9179 729.109 81.0841Z"/><path fill="#7C5A3C" d="M741.37 99.1628C747.019 99.6042 746.84 105.246 751.026 107.575C753.229 108.8 756.005 107.414 758.316 108.326C761.203 109.464 761.479 113.635 762.626 116.148C763.957 119.062 769.476 119.315 772.209 120.292C773.523 120.761 774.9 121.583 775.496 122.904C775.902 123.804 775.942 124.992 775.57 125.908C774.217 129.245 767.358 130.515 764.244 131.753C761.216 133.877 757.828 139.747 754.156 140.089C752.434 140.249 750.835 139.755 749.54 138.603C743.421 133.161 745.44 122.356 743.055 115.362C741.925 112.048 738.119 110.367 737.945 106.534C737.801 103.368 739.358 101.366 741.37 99.1628Z"/><path fill="#11121A" d="M661.978 146.752C662.673 146.766 663.341 147.072 663.933 147.421C665.735 148.481 674.394 156.625 674.759 158.371C674.783 158.483 674.795 158.597 674.814 158.71C675.443 162.441 673.643 166.259 674.75 169.951C675.641 172.92 682.56 171.601 685.331 173.121C689.033 175.151 690.456 180.425 689.835 184.358C689.4 187.11 688.208 189.72 688.152 192.544C688.117 194.284 688.726 195.761 689.163 197.411C689.521 198.762 689.638 199.812 689.206 201.159C688.294 204.004 685.742 206.169 684.617 208.927C683.186 212.434 683.12 216.339 681.122 219.674C680.177 221.25 678.837 222.643 676.993 223.077C674.224 223.73 671.808 222.339 669.521 220.991C665.271 217.845 663.461 214.608 657.973 213.446C649.606 211.675 652.74 202.806 648.378 197.428C645.682 194.103 641.128 192.992 638.706 189.198C633.444 180.952 640.439 173.855 642.162 166.134L642.223 165.851C643.344 160.775 640.712 156.287 643.929 151.312C647.241 146.193 652.493 147.644 657.525 147.49C658.994 147.444 660.539 147.052 661.978 146.752Z"/><path fill="#7C5A3C" d="M656.107 167.597C657.584 167.552 666.323 170.062 669.185 170.539C670.795 172.417 672.817 173.994 674.691 175.605L674.972 180.746C676.555 182.131 677.956 183.6 679.354 185.169C678.515 188.377 677.747 191.608 677.593 194.93C678.623 197.009 680.013 199.227 679.999 201.61C679.987 203.637 678.909 204.876 677.515 206.212C675.326 206.995 673.067 207.104 670.769 207.291C669.504 205.962 668.206 204.425 666.759 203.305C664.525 201.576 658.608 199.274 657.678 196.671C656.31 192.841 656.012 189.008 655.044 185.107C654.233 181.84 652.293 178.044 652.22 174.717C652.155 171.775 654.205 169.548 656.107 167.597Z"/><path fill="#11121A" d="M610.494 171.394C618.7 171.184 618.81 181.906 623.117 186.501C624.967 188.475 627.742 189.184 630.069 190.448C635.602 193.453 635.374 199.89 636.97 205.237C638.864 211.585 643.066 212.878 648.305 215.779C653.967 218.918 658.153 224.173 659.945 230.392C661.053 234.318 660.897 244.467 658.875 247.881C657.715 249.838 654.087 250.962 651.959 251.448C649.127 252.094 647.054 251.57 644.65 250.022C642.211 247.784 639.838 242.317 636.445 241.692C633.287 241.11 629.775 245.508 627.297 247.127C625.308 248.427 622.659 249.589 620.237 249.048C615.842 248.067 611.822 240.383 609.489 236.681C605.753 230.75 610.603 224.756 610.264 218.639C610.113 215.928 608.947 213.088 607.998 210.572C604.21 200.54 603.258 195.758 605.652 185.17C604.958 183.888 604.124 182.547 603.622 181.182C603.065 179.666 603.172 177.642 603.855 176.183C605.048 173.635 607.979 172.282 610.494 171.394Z"/><path fill="#11121A" d="M255.668 262.624C261.415 262.949 265.934 266.299 271.445 267.351C275.503 268.126 279.782 267.061 283.771 268.43C286.164 269.251 288.208 270.8 289.295 273.125C295.673 286.769 280.461 290.668 278.237 299.779C277.058 304.607 281.245 309.3 279.336 314.137C277.242 319.443 269.192 322.435 264.293 324.495C262.728 325.119 261.015 325.682 259.355 325.99C244.416 328.762 246.354 311.037 239.892 303.697C237.533 301.018 233.484 300.363 230.598 298.379C229.191 297.412 228.129 296.182 227.856 294.455C226.513 285.967 239.296 284.944 243.68 280.88C248.119 276.765 245.067 270.05 248.392 265.603C250.222 263.155 252.878 262.975 255.668 262.624Z"/><path fill="#7C5A3C" d="M256.479 279.63C259.901 280.056 262.627 282.251 265.891 283.052C268.718 283.746 271.987 282.729 274.562 284.397C275.338 284.9 275.925 285.617 276.049 286.565C276.773 292.08 268.221 296.611 265.716 300.714C263.691 304.03 263.572 307.868 260.996 310.999C260.472 311.284 259.929 311.599 259.368 311.805C255.014 313.402 254.194 307.054 251.746 304.718C250.49 303.52 248.368 302.881 246.819 302.102C245.006 301.192 243.648 299.972 243.044 297.985C241.428 292.675 248.547 291.195 250.96 287.74C252.299 285.823 252.369 283.122 253.555 281.115C254.277 279.892 255.212 279.905 256.479 279.63Z"/><path fill="#11121A" d="M549.425 259.807C554.999 260.469 558.361 264.262 563.506 265.649C567.771 266.799 572.217 265.252 576.05 268.228C579.802 271.142 576.872 276.005 577.501 279.799C577.957 282.552 581.113 283.804 583.181 285.252C584.556 286.215 585.711 287.542 585.979 289.25C586.716 293.94 579.016 309.033 576.124 313.139C572.705 317.992 566.631 318.139 561.29 319.091C557.643 320.444 553.854 323.002 550.088 323.739C547.878 324.171 545.036 324.385 543.109 323.018C537.641 319.141 542.752 311.763 541.736 307.284C540.977 303.934 535.71 303.433 533.206 301.759C531.469 300.597 530.42 298.809 530.061 296.766C529.796 295.257 529.961 293.777 530.394 292.317C531.443 288.782 534.028 285.855 535.212 282.355C537.172 276.562 536.373 270.26 540.189 265.037C542.448 261.944 545.75 260.406 549.425 259.807Z"/><path fill="#7C5A3C" d="M548.803 274.564C548.866 274.57 548.929 274.573 548.992 274.581C551.092 274.836 552.504 277.142 553.734 278.668C556.698 278.04 560.825 276.354 563.741 277.668C566.308 278.826 569.152 287.734 570.115 290.608C572.913 298.96 566.969 299.716 562.279 304.791C560.925 306.256 560.03 308.413 559.133 310.185C558.188 311.357 555.932 313.221 554.415 313.501C553.798 313.614 553.308 313.521 552.797 313.176C549.686 311.077 551.83 304.409 550.931 301.224C549.86 297.428 543.287 298.981 540.731 297.297C540.007 296.821 539.626 296.344 539.486 295.478C539.015 292.572 541.975 289.005 543.524 286.816C543.427 285.087 543.062 283.137 543.354 281.436C543.927 278.095 546.247 276.427 548.803 274.564Z"/><path fill="#11121A" d="M559.327 30.7953C562.021 30.7543 564.737 31.5747 566.732 33.4439C571.339 37.7613 569.922 44.7505 572.679 49.9164C574.634 53.5794 578.038 55.6681 578.503 60.1357C578.974 64.6707 577.05 69.0341 576.668 73.5111C576.353 77.1943 576.96 81.0231 577.021 84.7216C577.098 89.3766 575.866 93.6825 572.552 97.0745C569.77 99.9206 565 102.337 560.988 102.328C558.199 102.321 556.265 101.044 554.366 99.1275C552.326 95.7268 551.546 91.7904 548.778 88.8042C544.277 83.9484 535.985 82.595 533.141 76.2344C530.896 71.2138 534.949 66.7646 535.282 61.8509C535.646 56.477 532.687 51.3137 534.824 45.8603C537.972 37.827 545.214 43.0216 549.761 39.9705C553.816 37.2491 554.286 33.0434 559.327 30.7953Z"/><path fill="#7C5A3C" d="M557.79 55.6551C557.822 55.6537 557.855 55.6508 557.887 55.6511C559.426 55.6626 561.443 55.77 562.581 56.9579C564.291 58.7426 563.801 62.857 563.8 65.1607C564.848 66.671 566.157 67.7682 567.488 69.0115C569.004 70.4274 570.393 71.945 570.419 74.1368C570.44 75.912 569.71 77.821 568.428 79.0587C566.817 80.6151 562.816 79.5932 560.606 79.5839C558.969 80.0321 557.312 80.5234 555.645 80.8467C553.476 81.2676 551.807 80.8463 550.001 79.6247C549.471 78.7758 549.324 77.8608 549.223 76.8801C548.981 74.5353 548.556 59.1452 549.643 57.8992C551.472 55.804 555.259 55.8701 557.79 55.6551Z"/><path fill="#11121A" d="M702.766 271.132C701.814 273.926 700.614 276.161 699.078 278.709C696.537 282.921 690.164 283.557 686.477 280.621C680.739 276.052 684.736 265.857 681.501 260.371C679.166 256.82 673.03 253.093 672.868 248.366C672.557 239.305 680.737 224.269 690.297 222.307C692.913 221.77 698.084 224.698 700.98 225.324C704.446 226.074 708.354 226.313 711.719 227.444C720.372 230.643 717.55 242.012 722.692 247.662C726.806 251.676 731.84 251.619 736.395 255.374C739.313 257.779 742.683 264.218 739.886 267.898C737.666 270.195 733.638 269.591 731.011 269.51C723.019 269.263 717.055 264.199 709.144 264.536C705.762 266.118 704.619 267.968 702.766 271.132Z"/><path fill="#7C5A3C" d="M690.859 250.786C685.296 241.071 688.009 237.92 698.436 241.52C701.799 240.492 706.405 239.681 707.88 244.306C708.943 247.642 707.075 250.555 705.491 253.432C708.779 258.77 707.734 258.678 709.144 264.536C705.762 266.118 704.619 267.968 702.766 271.132C699.672 263.202 696.822 264.922 691.764 259.394C689.599 257.029 690.41 253.745 690.859 250.786Z"/><path fill="#11121A" d="M603.127 261.214C606.619 261.437 608.61 263.24 611.46 264.943C618.029 268.867 621.558 263.502 627.625 262.064C634.646 260.4 637.53 265.826 642.732 268.847C648.134 271.986 653.391 266.24 658.477 265.007C660.105 264.612 662.531 264.447 663.994 265.425C665.297 266.295 666.469 267.945 667.3 269.273C669.107 272.157 670.235 275.479 671.797 278.506C674.075 282.92 678.226 287.481 679.006 292.452C679.449 295.273 677.705 297.776 676.17 299.961C666.022 310.102 660.307 299.663 650.801 301.152C644.925 302.073 639.983 306.426 633.987 306.933C620.503 308.074 627.177 292.37 621.15 286.357C617.057 282.274 610.088 283.413 605.662 279.512C602.636 276.846 600.548 272.664 600.332 268.633C600.164 265.5 601.098 263.52 603.127 261.214Z"/><path fill="#11121A" d="M281.455 51.1756C283.915 51.0053 286.386 51.2022 288.787 51.7598C294.183 53.0399 299.517 56.0491 302.464 60.8824C308.711 71.1265 299.196 77.9961 300.369 87.7674C301.4 96.3554 310.035 101.09 307.216 112.144C305.374 119.366 298.563 124.854 292.456 128.489C291.041 129.177 289.383 129.836 287.845 130.179C285.449 130.713 282.774 130.701 280.65 129.337C271.247 123.297 278.601 106.506 276.031 97.8307C274.035 91.0948 267.317 86.4528 265.984 79.2574C264.945 73.6474 268.973 70.3892 271.824 66.1937C271.357 64.0193 270.903 61.8421 270.462 59.6624C270.892 58.6356 271.426 57.655 272.054 56.7356C274.3 53.4988 277.697 51.9067 281.455 51.1756Z"/><path fill="#11121A" d="M66.8919 234.696C69.5525 234.734 71.8106 235.26 74.1917 236.417C79.4614 238.978 84.522 244.032 86.3893 249.663C88.9996 257.536 83.1759 262.169 82.3215 269.358C81.3808 277.274 86.246 287.566 82.2969 294.992C81.35 296.772 79.6251 298.263 77.6559 298.79C73.7909 299.824 70.9543 296.08 67.8914 294.429C66.7623 293.82 65.9017 293.832 64.693 294.201L64.3821 294.3C61.8967 295.986 58.7963 298.603 55.7434 298.958C52.6688 299.316 49.733 298.291 47.3721 296.325C44.1664 293.655 41.8759 289.437 41.5195 285.277C41.0013 279.229 45.0308 274.015 46.5102 268.379C48.2174 261.876 47.3572 254.966 49.215 248.459C50.0311 245.6 51.2877 242.81 53.2356 240.537C56.8277 236.347 61.615 235.129 66.8919 234.696Z"/><path fill="#11121A" d="M511.348 201.756C512.471 201.624 513.565 201.561 514.614 202.065C522.729 205.966 519.386 221.536 520.47 228.572C521.413 234.698 527.742 238.749 529.755 244.652C531.03 248.392 531.229 254.625 529.415 258.196C527.442 262.08 523.941 265.363 521.503 268.989C519.311 272.247 517.837 275.935 515.525 279.132C514.897 279.999 514.332 280.85 513.273 281.2C510.068 282.26 507.365 282.068 504.063 281.744C502.788 281.436 501.513 281.113 500.265 280.708C494.771 278.923 490.229 275.305 487.612 270.115C479.596 254.216 498.533 251.573 500.496 237.829C501.686 229.496 496.864 221.509 499.712 213.081C501.607 207.471 506.288 204.283 511.348 201.756Z"/><path fill="#7C5A3C" d="M508.399 230.924C509.977 231.053 511.812 231.316 512.891 232.613C515.553 235.811 512.979 240.811 513.571 244.53C514.351 249.424 520.711 252.735 520.146 257.896C519.618 262.709 515.176 260.181 512.657 262.18C510.481 263.906 509.281 266.678 506.954 268.5C506.885 268.507 506.815 268.521 506.745 268.521C504.919 268.523 503.097 266.683 501.743 265.577C499.52 263.76 495.095 260.864 494.868 257.782C494.628 254.544 499.326 251.858 501.163 249.598C504.462 245.538 503.21 241.29 502.752 236.535C504.274 233.477 505.38 232.503 508.399 230.924Z"/><path fill="#11121A" d="M755.489 262.548C761.659 261.881 764.77 266.302 770.354 267.198C773.866 267.761 777.655 266.489 781.193 266.317C790.149 265.883 792.307 271.976 798.462 276.334C801.591 278.549 805.137 279.575 808.045 282.227C810.564 284.523 812.593 287.494 812.714 291.007C812.914 296.831 807.125 305.579 803.244 309.793C802.357 310.666 801.25 311.562 800.108 312.066C796.111 313.828 786.464 313.476 783.164 310.569C780.644 308.349 780.106 305.07 776.777 303.538C772.31 301.483 767.144 301.77 762.577 299.955C754.893 296.903 754.728 290.897 752.479 284.159C751.661 281.71 750.305 279.412 749.298 277.031C748.128 274.264 747.691 270.914 748.896 268.078C750.104 265.235 752.771 263.667 755.489 262.548Z"/><path fill="#7C5A3C" d="M776.149 275.183C778.358 275.25 780.488 275.453 782.422 276.615C785.295 278.341 786.723 281.945 789.222 284.136C791.834 286.425 795.335 287.376 797.786 290.02C798.647 290.949 799.522 292.179 799.39 293.513C799.272 294.7 798.387 295.704 797.465 296.393C795.848 297.6 793.67 297.392 791.793 297.149C790.219 296.763 788.441 296.21 786.817 296.256C783.039 296.365 778.459 299.234 774.815 297.998C770.606 296.57 772.388 288.267 771.712 284.759C771.368 282.968 770.304 281.125 769.513 279.488C771.518 277.15 773 275.761 776.149 275.183Z"/><path fill="#11121A" d="M241.986 87.122C245.17 87.2247 247.972 88.279 250.571 90.0695C254.783 92.9702 257.438 97.452 260.337 101.554C267.586 111.809 269.288 114.52 266.731 127.197C266.144 130.107 265.526 133.061 265.909 136.042C266.636 141.691 270.591 146.538 271.599 152.201C272.123 155.144 272.11 158.775 270.285 161.273C268.473 163.753 265.389 164.717 262.491 165.12C259.667 165.116 256.764 164.619 254.128 163.602C240.714 158.425 238.81 141.71 237.572 129.309C237.248 126.057 237.236 122.27 236.415 119.134C235.561 115.873 232.355 113.785 231.069 110.733C229.356 106.668 230.511 100.601 232.185 96.673C234.066 92.2594 237.55 88.9163 241.986 87.122Z"/><path fill="#11121A" d="M590.406 91.0176C589.885 89.7425 589.27 88.88 588.62 87.7808C582.058 76.6921 584.627 78.6161 589.586 68.1692C590.144 66.7624 591.163 64.8096 591.326 63.3162C591.774 60.7223 589.625 56.7357 590.244 54.2614C591.914 47.2163 600.185 43.0343 605.412 49.4635C608.534 53.3031 612.651 58.1906 613.122 63.2805C613.292 65.1192 612.366 67.7379 611.797 69.4979C611.941 73.2939 612.087 73.6324 615.616 75.2487C621.819 71.9641 622.655 73.7025 624.966 79.6555C630.411 81.2574 633.981 85.1185 632.64 90.2919C629.567 102.144 624.933 121.691 609.265 114.363C592.193 106.379 587.302 112.497 590.406 91.0176Z"/><path fill="#7C5A3C" d="M611.797 69.4979C611.941 73.2939 612.087 73.6324 615.616 75.2487C615.718 76.2215 618.885 79.5414 618.095 80.7975C616.525 83.2939 612.409 89.4526 610.342 91.8898C609.571 92.4015 608.161 92.301 607.432 92.0651C598.679 89.233 602.899 80.7129 604.762 74.5821C609.323 72.9787 610.919 75.29 611.797 69.4979Z"/><path fill="#11121A" d="M201.693 161.124C214.148 161.595 211.824 171.137 219.727 175.955C223.531 178.275 228.575 177.452 232.333 180.012C235.517 182.181 236.57 185.975 237.269 189.556C237.873 192.655 238.256 196.097 237.21 199.143C235.587 203.87 230.652 206.774 228.227 211.145C225.64 215.809 225.654 221.305 222.624 225.811C220.913 227.416 218.854 228.823 216.503 229.238C209.667 230.442 206.879 221.776 203.044 217.879C201.172 215.976 198.484 214.664 196.297 213.131C192.763 210.655 190.6 207.463 189.908 203.185C188.058 191.751 197.346 185.758 199.405 175.988C200.493 170.823 198.304 165.792 201.693 161.124Z"/><path fill="#11121A" d="M388.776 77.0293C389.748 76.9321 390.725 76.9131 391.7 76.9724C405.7 77.8563 403.178 90.264 407.903 97.9625C409.804 101.06 413.461 102.681 415.841 105.4C417.923 107.778 419.151 111.206 418.866 114.369C418.756 115.592 418.409 116.803 417.941 117.935C416.809 120.67 414.874 123.048 413.672 125.757C411.769 130.044 411.144 134.724 408.628 138.777C407.05 141.318 404.963 143.149 402.705 145.074C401.583 145.967 400.226 146.776 398.944 147.419C395.968 148.914 392.432 149.403 389.242 148.314C386.495 147.376 384.3 145.495 383.034 142.878C380.093 136.798 383.366 130.391 382.515 124.072C382.02 120.396 379.472 117.242 379.456 113.428C379.433 107.789 383.603 103.157 384.155 97.6879C384.669 92.5859 380.849 87.8262 382.718 82.7436C383.819 79.7471 386.045 78.3408 388.776 77.0293Z"/><path fill="#7C5A3C" d="M397.855 100.01C399.392 101.209 400.347 103.059 401.673 104.481C403.709 106.663 407.141 108.416 407.614 111.673C408.081 114.881 400.533 122.443 398.327 125.327C397.815 125.703 397.293 126.076 396.741 126.39C395.725 126.965 394.261 127.296 393.127 126.931C392.033 126.579 391.266 125.665 390.765 124.671C388.468 120.113 390.836 108.831 392.525 104.049C393.325 101.784 395.85 100.937 397.855 100.01Z"/><path fill="#11121A" d="M169.387 258.915C172.317 258.473 175.421 258.663 178.209 259.716C188.736 263.692 187.735 274.941 191.061 283.052C192.519 286.608 195.246 289.594 196.764 293.143C197.702 295.336 198.148 297.687 197.17 299.952C194.481 306.185 182.832 310.735 176.798 313.213C172.018 315.072 166.374 316.417 161.283 315.111C157.789 314.215 154.777 312.086 152.968 308.938C146.685 298.004 157.047 288.964 160.23 279.56C161.635 275.406 161.023 271.094 162.18 266.975C163.306 262.968 165.904 260.83 169.387 258.915Z"/><path fill="#7C5A3C" d="M170.969 275.801C171.465 275.797 171.957 275.806 172.451 275.847C179.984 276.477 179.158 284.452 182.812 288.978C184.526 291.1 187.642 291.974 189.398 294.16C189.967 294.868 190.303 295.676 190.169 296.601C189.655 300.137 180.778 302.414 177.74 304.593C176.804 305.363 175.717 306.125 174.67 306.736C172.496 308.006 169.247 308.351 166.829 307.691C165.289 307.271 164.033 306.498 163.253 305.071C160.291 299.654 166.581 295.132 167.858 290.346L167.924 290.093C169.324 284.804 166.811 280.444 170.969 275.801Z"/><path fill="#11121A" d="M387.788 18.3414C394.567 17.7208 397.277 22.8994 403.244 23.5392C408.796 23.9058 413.655 20.7149 419.207 20.4949C425.063 20.2627 429.985 25.7116 430.014 31.4092C430.064 41.0082 417.136 40.851 410.779 43.8233C407.306 45.4469 404.995 47.79 402.331 50.4879C388.66 64.9656 382.301 58.6518 374.043 45.1148C372.286 42.2341 367.871 40.6995 365.968 35.9774C364.71 32.8697 364.764 29.3852 366.118 26.3181C368.567 20.6639 373.594 17.9127 379.412 20.3673C382.396 19.5248 384.71 18.8701 387.788 18.3414Z"/><path fill="#11121A" d="M459.121 262.218C460.907 262.207 462.677 262.563 464.32 263.263C472.596 266.868 473.521 275.004 478.39 281.429C481.536 285.581 485.397 286.037 487.614 291.69C488.604 294.216 488.633 296.916 487.505 299.402C484.019 307.09 473.69 309.425 466.58 312.202C463.025 313.755 459.315 315.426 455.496 316.195C452.427 316.813 449.185 316.772 446.515 314.94C444.028 313.234 442.288 310.175 441.806 307.227C440.782 300.969 446.015 294.859 447.362 288.906C449.021 281.579 445.922 273.437 450.8 266.704C452.837 263.893 455.813 262.705 459.121 262.218Z"/><path fill="#11121A" d="M570.834 110.68C571.617 110.419 572.431 110.411 573.21 110.703C575.347 111.504 576.765 114.226 578.736 115.466C581.448 117.172 584.782 117.592 587.115 119.966C593.125 126.082 589.163 136.676 590.645 144.162C591.495 148.458 594.342 152.271 596.082 156.251C597.709 159.976 598.376 164.543 596.793 168.4C595.489 171.58 592.608 173.605 589.531 174.857C586.945 175.604 584.544 175.382 582.076 174.328C574.507 171.096 569.868 160.299 569.413 152.554C569.16 148.238 570.148 143.711 569.127 139.464C568.066 135.052 564.925 131.861 563.345 127.733C561.699 123.434 562.249 117.486 564.157 113.324C565.612 110.149 567.927 111.742 570.694 110.732L570.834 110.68Z"/><path fill="#11121A" d="M220.906 238.705C222.557 238.618 224.266 238.482 225.91 238.694C228.499 239.028 230.833 240.254 232.387 242.372C235.325 246.379 235.053 251.287 236.638 255.76C237.48 258.137 239.034 260.276 239.669 262.723C239.908 263.645 240.016 264.716 239.811 265.655C239.487 267.133 226.2 284.005 224.594 285.01C221.472 286.966 217.71 286.535 214.317 285.756C212.544 285.304 210.705 284.53 209.074 283.708C203.747 281.025 197.313 276.05 195.421 270.13C192.54 261.114 204.6 258.539 209.213 253.451C211.658 250.754 212.529 247.274 214.197 244.126C215.768 241.163 217.738 239.669 220.906 238.705Z"/><path fill="#11121A" d="M694.508 62.5997C703.717 64.1548 701.254 64.6334 705.185 72.2124C706.185 74.1409 710.302 78.2576 708.783 81.1118C705.711 86.8825 698.104 90.9583 692.818 94.626C686.774 98.4909 683.333 84.7399 679.626 82.7569C676.445 80.4537 671.887 80.7102 668.398 79.2018C658.008 75.0758 666.209 65.9463 666.088 61.6078C665.295 50.2589 663.787 47.2584 677.034 48.0218C688.476 48.6812 688.284 46.849 691.102 58.9754C692.028 61.0233 692.556 61.4527 694.508 62.5997Z"/><path fill="#7C5A3C" d="M691.102 58.9754C692.028 61.0233 692.556 61.4527 694.508 62.5997C693.68 64.0027 692.855 65.388 692.629 67.0163L692.599 67.2448C692.184 70.3337 696.345 75.3239 695.161 78.8555C694.938 79.5214 694.233 80.2593 693.572 80.4097C686.452 82.0283 687.034 75.6863 683.623 71.972C682.214 70.7647 679.976 70.0576 678.288 69.2958C676.654 68.5588 673.949 65.3882 675.408 63.6567C679.134 59.2342 685.976 59.8832 691.102 58.9754Z"/><path fill="#11121A" d="M648.675 81.5239C651.282 81.5118 653.891 81.7443 656.287 82.8701C661.403 85.2743 663.819 90.9038 667.825 94.5967C670.431 96.9994 674.012 98.2004 676.584 100.669C677.772 101.809 678.718 103.13 679.247 104.703C679.868 106.549 679.67 108.451 678.767 110.172C676.317 114.838 670.128 111.132 666.29 112.42C662.994 113.525 665.551 120.685 665.226 123.556C665.086 124.794 664.484 125.919 663.921 127.012C663.892 127.058 663.865 127.105 663.836 127.151C662.345 129.546 660.487 131.636 657.625 132.275C655.048 132.85 652.401 132.052 650.248 130.607C641.544 124.763 645.451 118.238 642.676 111.421C641.067 107.47 637.811 105.236 636.891 100.722C635.965 96.178 636.59 91.1547 639.243 87.2728C641.553 83.8922 644.746 82.2193 648.675 81.5239Z"/><path fill="#11121A" d="M96.9751 98.1198C99.8815 97.8257 102.539 97.979 105.276 99.0821C111.093 101.426 113.098 106.906 117.415 110.909C121.012 114.244 126.754 115.601 128.745 120.501C129.512 122.39 129.58 124.234 128.758 126.109C126.234 131.868 120.236 127.217 116.226 128.877C112.807 130.292 115.221 136.211 115.114 139.13C115.068 140.372 114.592 141.568 114.139 142.712C112.899 145.003 111.02 147.522 108.539 148.525C106.173 149.482 103.554 148.735 101.317 147.742C92.1858 143.693 95.1351 135.003 92.3172 127.699C91.2028 124.81 88.5479 122.614 87.43 119.673C85.7589 115.276 85.7754 110.302 87.7734 106.01C89.7216 101.825 92.774 99.636 96.9751 98.1198Z"/><path fill="#11121A" d="M374.399 293.424C388.719 291.456 385.654 301.842 394.228 308.195C397.08 308.559 399.99 308.438 402.818 309.018C405.039 309.473 406.917 310.35 408.151 312.324C409.702 314.805 409.893 318.181 409.187 320.964C407.574 327.313 400.985 329.166 395.916 332.143C393.564 333.973 391.059 336.264 388.371 337.554C385.308 339.023 382.002 338.975 378.837 337.828C375.691 336.688 372.939 334.428 371.572 331.328C369.765 327.227 370.49 322.292 369.616 317.952C368.823 314.015 366.821 310.305 366.44 306.275C366.223 304.035 366.546 301.776 367.383 299.687C368.723 296.35 371.239 294.753 374.399 293.424Z"/><path fill="#11121A" d="M175.703 209.937C177.432 209.808 178.857 209.842 180.456 210.582C185.49 212.911 189.045 220.01 190.211 225.218C190.909 228.336 191.014 231.737 192.247 234.715C193.644 238.091 196.536 240.704 197.783 244.197C198.567 246.397 198.609 248.828 197.587 250.959C196.249 253.747 192.649 256.745 189.708 257.722C186.722 258.714 184.227 257.995 181.562 256.628C177.587 254.048 174.405 250.062 170.118 248.008C167.039 246.532 163.361 246.504 160.302 244.94C158.468 244.003 157.317 242.529 156.737 240.556C154.655 233.474 162.743 228.905 165.469 223.47C166.89 220.638 166.97 217.178 168.489 214.441C170.044 211.639 172.835 210.776 175.703 209.937Z"/><path fill="#11121A" d="M601.801 303.909C604.314 303.676 606.903 303.687 609.37 304.26C617.006 306.031 616.884 313.415 620.371 318.916L620.535 319.17C622.56 322.37 626.308 323.883 628.201 327.279C629.76 330.074 629.946 333.374 629.063 336.417C627.553 341.624 623.875 344.294 619.345 346.755C617.641 347.5 615.954 348.196 614.128 348.586C609.947 349.479 605.405 349.046 601.781 346.633C594.928 342.067 597.597 335.067 596.587 328.374C596.077 325 594.742 321.668 594.048 318.309C593.356 314.959 592.894 310.491 594.936 307.529C596.606 305.106 599.087 304.449 601.801 303.909Z"/><path fill="#11121A" d="M715.356 275.126C716.352 275.036 717.354 274.974 718.349 275.103C719.817 275.294 721.269 275.948 722.527 276.708C726.094 278.866 728.816 282.254 732.472 284.328C736.377 286.542 741.389 287.014 744.274 290.79C746.299 293.439 747.304 297.66 746.858 300.942C745.992 307.323 738.553 309.504 733.994 312.931C732.73 314.046 731.316 315.405 729.797 316.145C727.143 317.435 724.074 317.574 721.314 316.529C714.46 313.907 713.479 306.639 711.129 300.658C710.107 298.058 708.752 295.596 707.657 293.026C706.19 289.582 705.763 285.529 707.225 282.009C708.715 278.42 711.975 276.574 715.356 275.126Z"/><path fill="#11121A" d="M524.08 92.3829C528.577 92.2362 533.41 94.03 537.043 96.6418C538.645 97.7974 540.063 99.19 541.246 100.772C543.229 103.415 551.781 118.238 552.178 121.031C552.446 122.911 552.167 124.96 550.993 126.504C549.319 128.706 546.466 129.582 543.851 129.99C536.44 129.126 529.274 134.129 524.339 133.277C523.225 133.085 522.158 132.083 521.567 131.162C519.859 128.499 520.587 124.589 520.992 121.652C521.313 119.332 521.711 116.959 521.54 114.611C521.108 108.681 518.613 102.744 520.019 96.7659C520.523 94.6239 522.342 93.4824 524.08 92.3829Z"/><path fill="#11121A" d="M607.855 121.987C608.619 121.906 609.389 121.836 610.158 121.839C613.917 121.854 625.189 127.224 627.904 129.959C633.046 135.138 628.897 143.037 630.46 149.303C631.741 154.438 635.511 158.302 635.353 163.935C635.266 167.057 633.766 169.861 631.52 171.957C627.179 168.937 621.836 167.498 617.73 164.386C611.753 159.855 613.327 152.093 610.19 146.038C608.667 143.096 605.992 140.941 604.356 138.089C602.501 134.855 602.715 130.503 603.741 127.004C604.458 124.555 605.627 123.175 607.855 121.987Z"/><path fill="#11121A" d="M467.244 213.932C469.569 213.674 473.031 213.518 474.962 215.061C478.013 217.498 475.94 223.514 476.298 226.915C476.853 232.189 481.977 232.475 485.365 235.265C487.374 236.92 488.44 239.603 488.642 242.153C488.899 245.397 487.564 248.441 485.455 250.845C482.313 254.426 478.487 256.004 473.788 256.289C469.551 254.752 467.201 251.099 463.388 249.002C459.999 247.138 455.515 247.884 452.922 244.459C452 243.241 451.71 241.689 451.912 240.192C452.624 234.932 457.078 230.811 459.523 226.309C461.162 223.291 462.15 219.851 464.104 217.006C464.955 215.765 466.071 214.851 467.244 213.932Z"/><path fill="#11121A" d="M788.062 75.0178C788.396 75.0241 788.73 75.0362 789.064 75.0542C794.646 75.3622 797.658 79.2371 801.067 83.0696C804.572 81.9175 808.729 78.8543 812.546 79.9576C814.321 80.4706 815.758 81.8784 816.599 83.491C817.542 85.3017 817.559 87.1536 816.943 89.0694C813.479 99.8417 803.868 95.1796 796.001 96.6354C794.713 96.8736 793.418 97.5915 792.255 98.1793C790.343 99.3602 788.366 100.737 786.213 101.429C784.193 102.079 781.468 102.881 779.478 101.827C776.26 100.123 776.57 95.8904 774.941 93.1018C772.677 89.2245 765.658 89.162 764.36 84.1312C764.088 83.076 764.376 82.0571 764.959 81.1592C769.932 73.4897 773.085 80.5747 778.568 79.3271C781.946 78.5582 784.428 75.7788 788.062 75.0178Z"/><path fill="#11121A" d="M665.41 2.50348C670.454 2.45052 678.081 5.13871 679.669 10.4137C680.961 14.7071 684.853 28.0755 680.04 31.0244C676.049 33.4697 668.944 39.5503 665 41.2805C664.299 41.1827 663.601 41.064 662.907 40.9245C658.611 40.0359 658.099 35.8939 655.239 33.1983C652.851 30.9473 650.406 30.3198 648.505 27.4873C643.797 20.4727 651.663 16.228 656.871 13.3743C659.806 11.7932 659.871 9.11923 660.65 5.97855C662.347 4.20565 663.239 3.52904 665.41 2.50348Z"/><path fill="#7C5A3C" d="M668.953 15.4744C680.812 14.8369 670.806 30.5836 664.84 30.5946C661.588 28.8287 655.954 22.1457 657.755 18.33C658.732 16.2604 666.249 16.1539 668.953 15.4744Z"/><path fill="#11121A" d="M695.086 300.608C696.001 300.789 696.982 300.977 697.822 301.393C699.82 302.382 712.158 315.844 713.791 318.001C714.818 319.356 715.718 320.896 716.222 322.524C717.943 328.087 711.799 332.882 708.765 336.924C707.651 338.409 706.819 340.182 705.968 341.83C705.196 342.834 704.48 343.617 703.27 344.079C700.937 344.971 697.722 344.176 695.55 343.154C692.578 341.756 690.622 339.127 689.574 336.071C687.767 330.799 689.184 325.576 689.142 320.183C689.103 315.24 687.037 309.911 689.453 305.195C690.634 302.889 692.651 301.374 695.086 300.608Z"/><path fill="#11121A" d="M17.1255 155.96C18.2449 155.885 19.4885 155.912 20.5478 156.309C22.4492 157.02 36.7245 168.089 38.6343 169.932C39.9836 171.234 41.1809 172.697 41.9638 174.414C44.1749 179.264 39.1087 185.316 36.9224 189.541C35.9275 191.464 35.1919 193.565 34.4601 195.6C34.0405 196.189 33.6057 196.736 33.0141 197.164C31.3583 198.362 29.2797 198.609 27.3041 198.294C23.7935 197.734 20.6656 196.208 18.5874 193.233C15.0171 188.123 16.0271 182.281 14.8818 176.548C13.9589 171.927 11.3822 167.37 12.3072 162.534C12.8942 159.466 14.6222 157.609 17.1255 155.96Z"/><path fill="#11121A" d="M538.039 136.257C542.429 136.115 546.548 137.407 550.195 139.818C555.511 143.332 560.771 149.73 561.977 156.114C562.631 159.572 561.931 163.942 559.91 166.876C558.226 169.319 555.874 170.815 552.987 171.39C552.92 171.369 552.853 171.346 552.786 171.328C549.777 170.505 547.23 167.958 544.567 166.345C541.136 164.265 536.977 162.992 533.832 160.517C530.2 157.659 527.701 151.614 527.188 147.115C526.903 144.615 527.223 141.917 528.872 139.915C531.283 136.989 534.512 136.597 538.039 136.257Z"/><path fill="#11121A" d="M705.265 169.305C713.668 170.553 711.287 177.387 715.504 179.144C720.264 181.128 725.169 176.257 730.629 179.106C731.732 179.681 732.782 180.507 733.117 181.76C734.787 188.001 722.657 194.083 718.908 197.543C717.481 198.861 716.493 200.577 715.496 202.225C714.384 204.379 713.153 206.676 711.505 208.47C709.487 210.667 707.253 212.085 704.209 212.165C702.453 212.211 700.559 211.985 699.264 210.674C693.528 204.87 703.328 192.427 703.436 186.8C703.438 186.724 703.437 186.648 703.438 186.572C703.5 182.251 700.71 177.753 701.695 173.509C702.185 171.402 703.517 170.414 705.265 169.305Z"/><path fill="#11121A" d="M245.986 2.43141C257.659 1.59072 253.483 14.5614 257.644 19.5308C265.239 28.6031 279.712 37.8291 263.602 49.642C261.243 51.0486 260.058 51.5228 257.484 52.5243C243.001 47.5555 249.364 36.3807 247.213 25.572C245.687 17.9 236.253 9.26837 245.986 2.43141Z"/><path fill="#11121A" d="M794.699 37.3063C795.921 37.2287 797.247 37.2702 798.459 37.4582C800.281 37.7405 801.936 38.4192 803.403 39.5375C806.286 41.7362 807.963 45.3694 810.803 47.7425C813.392 49.9063 817.342 50.3766 819.378 53.2186C820.735 55.1123 821.675 57.9108 821.271 60.2495C820.89 62.4495 819.537 64.2742 817.698 65.4997C814.264 67.7869 811.212 67.3242 807.441 66.5349C799.432 64.6255 792.719 68.8173 786.96 66.9254C785.637 66.4905 785.219 65.8485 784.625 64.6716C784.473 60.8822 788.172 56.39 789.636 52.8626L787.49 47.3987C787.702 46.5766 787.944 45.7624 788.215 44.9576C789.472 41.3238 791.166 39.0044 794.699 37.3063Z"/><path fill="#11121A" d="M633.915 42.9754C637.652 42.6754 640.114 43.701 643.399 45.2733C645.047 44.7689 646.939 44.0785 648.666 43.9822C650.113 43.9014 651.819 44.2216 652.896 45.262C655.117 47.4083 654.904 50.9603 654.992 53.7956C656.976 55.9123 660.125 58.6565 660.116 61.7996C660.106 65.3874 653.993 69.3381 651.573 71.6638C650.016 73.3399 648.392 75.235 646.491 76.5305C645.165 77.4339 643.534 78.0436 641.918 77.6786C638.214 76.8419 638.071 71.9157 636.153 69.3486C634.85 67.6055 632.881 66.4166 631.72 64.5402C629.34 60.6913 628.484 52.0688 629.612 47.6568C630.23 45.2391 631.89 44.16 633.915 42.9754Z"/><path fill="#11121A" d="M684.081 121.154C687.626 120.977 690.791 122.094 693.526 124.364C698.415 128.482 700.443 135.077 698.711 141.228C697.745 144.764 695.973 148.2 695.499 151.854C695.222 153.994 695.811 156.588 696.007 158.755C696.159 160.435 696.195 162.293 695.001 163.629C693.832 164.936 692.083 164.922 690.461 165.029C688.971 164.644 687.588 164.216 686.368 163.24C682.709 160.311 675.413 147.1 674.888 142.387C674.401 138.017 678.292 134.457 680.85 131.364C680.579 129.177 679.978 126.406 680.725 124.277C681.313 122.603 682.56 121.889 684.081 121.154Z"/><path fill="#11121A" d="M220.631 117.547C221.609 117.459 222.685 117.334 223.635 117.647C225.77 118.349 227.37 120.978 228.324 122.893C231.119 128.503 233.177 136.398 231.108 142.511C229.587 147.003 225.747 156.015 222.543 159.283C221.774 160.066 220.691 160.598 219.718 161.083C217.35 161.387 215.444 161.313 213.485 159.778C209.159 156.386 208.232 147.979 210.061 143.037C211.202 139.954 213.659 137.207 214.245 133.938C214.745 131.153 213.711 127.738 213.35 124.924C214.976 121.13 216.982 119.372 220.631 117.547Z"/><path fill="#11121A" d="M700.321 14.5968C702.302 14.43 703.674 14.3822 705.297 15.6855C708.528 18.0029 714.454 27.6363 714.028 31.6003C713.127 39.9924 715.221 44.1351 717.374 51.9728C718.675 56.7077 715.916 61.0516 710.445 61.6845C701.658 58.6955 703.867 48.6396 700.865 42.0615C699.187 38.7009 696.367 36.0761 694.452 32.8305C690.122 25.4926 693.348 18.4438 700.321 14.5968Z"/><path fill="#11121A" d="M194.587 84.2053C196.064 84.4475 197.349 84.7726 198.658 85.522C201.645 87.2314 203.326 89.8801 204.198 93.16C205.481 97.981 204.067 102.691 204.311 107.537C204.507 111.442 206.169 115.197 206.137 119.158C206.126 120.607 205.838 122.065 205.084 123.318C204.175 124.845 202.695 125.947 200.972 126.38C199.649 126.074 199.309 125.693 198.309 124.768C197.337 123.671 196.368 122.339 195.14 121.525C192.128 119.529 185.905 118.817 184.169 115.365C181.745 110.545 185.427 104.149 186.867 99.5507C187.67 96.9853 188.129 94.314 188.962 91.7583C190.041 88.4447 191.348 85.8402 194.587 84.2053Z"/><path fill="#11121A" d="M357.875 252.824L358.077 252.809C365.94 252.321 366.676 258.941 370.413 263.832C371.501 265.255 373.248 266.18 374.564 267.384C375.77 268.489 376.489 269.65 376.533 271.318C376.684 276.945 368.654 283.121 364.932 286.905C363.765 287.628 362.532 288.386 361.097 288.191C358.99 287.904 357.51 285.128 356.407 283.544C353.14 282.184 349.813 280.88 348.055 277.601C347.79 275.034 351.865 259.314 352.954 256.605C353.771 254.572 356.007 253.631 357.875 252.824Z"/><path fill="#11121A" d="M487.537 138.567C488.164 138.605 488.794 138.654 489.412 138.77C491.904 139.217 494.109 140.65 495.529 142.746C498.084 146.501 498.137 151.249 499.65 155.414C501.053 159.276 503.645 162.653 504.62 166.702C505.17 168.984 505.248 171.466 504.783 173.769C503.987 177.709 501.517 180.114 498.327 182.251C496.971 182.7 495.543 182.931 494.124 182.643C487.043 181.205 490.382 170.109 489.179 165.15C488.465 162.205 486.433 159.636 484.828 157.129C482.542 153.561 481.099 150.099 482.125 145.748C482.819 142.805 485.047 140.148 487.537 138.567Z"/><path fill="#11121A" d="M618.809 9.73967L619.3 9.80177C622.003 10.1594 626.024 11.1292 627.494 13.6741C630.281 18.4995 638.028 27.9564 637.326 33.6356C636.959 36.6048 629.217 38.4964 625.861 40.6924C623.194 42.7288 615.35 48.6239 613.033 43.4765C610.046 36.8412 614.968 29.4041 614.11 22.3658C613.499 17.3491 613.819 12.2165 618.809 9.73967Z"/><path fill="#11121A" d="M518.916 159.119C521.04 159.646 522.451 160.411 523.859 162.128C528.86 168.223 528.467 179.385 527.789 186.808C527.474 190.264 526.452 193.632 523.645 195.887C521.526 197.589 519.329 197.436 516.808 197.127C516.264 196.936 515.728 196.723 515.202 196.489C511.617 194.928 510.163 193.06 508.774 189.521C509.926 186.908 511.175 184.306 511.838 181.517C510.432 176.577 509.517 172.27 511.36 167.258C512.739 163.507 515.312 160.797 518.916 159.119Z"/><path fill="#11121A" d="M508.585 106.568C508.792 106.566 508.894 106.561 509.114 106.579C510.614 106.703 512.08 108.243 512.989 109.332C517.919 115.237 515.646 123.54 516.032 130.425C516.286 134.955 517.434 139.259 516.95 143.844C516.691 146.298 516.046 148.989 513.999 150.579C512.494 151.747 511.105 151.606 509.291 151.418C507.946 150.404 506.901 149.085 506.318 147.5C505.015 143.96 505.874 139.978 504.97 136.32C503.994 132.375 501.389 128.886 500.259 124.954C499.091 120.888 499.196 115.356 501.345 111.63C502.987 108.782 505.51 107.363 508.585 106.568Z"/><path fill="#11121A" d="M481.563 94.2161C483.628 94.375 485.033 94.8887 486.581 96.3081C491.167 100.512 492.938 108.788 493.09 114.727C493.277 122.035 486.106 128.337 481.378 133.269C480.594 133.708 479.651 134.218 478.773 134.409C477.562 134.672 476.23 134.417 475.19 133.754C473.22 132.498 471.643 130.106 471.163 127.835C469.671 120.788 476.111 115.021 478.119 108.769C479.762 103.656 478.349 99.0152 481.563 94.2161Z"/><path fill="#11121A" d="M482.738 182.664C484.385 182.97 485.847 183.619 487.23 184.562C495.817 190.414 494.241 199.102 494.533 208.017C494.604 210.19 495.096 212.432 495.499 214.565C495.062 215.546 494.624 216.647 493.989 217.516C492.785 219.163 491.356 219.53 489.415 219.788C487.233 218.864 485.447 217.656 484.247 215.562C482.725 212.904 482.363 209.579 481.346 206.701C479.346 201.034 474.886 195.499 476.796 189.133C477.723 186.04 479.99 184.109 482.738 182.664Z"/><path fill="#11121A" d="M23.4986 251.653C23.7351 251.64 23.9672 251.63 24.2041 251.629C27.3045 251.61 30.7517 251.728 33.0718 254.082C34.0575 255.081 34.6958 256.363 35.1019 257.696C36.029 260.739 35.9614 264.067 36.6884 267.166C37.3124 269.827 38.8634 272.585 38.8224 275.35C38.8065 276.43 38.5117 277.468 37.7096 278.226C36.0988 279.749 33.2255 279.722 31.1746 279.588C30.3407 279.279 29.4725 278.959 28.72 278.48C25.3279 276.321 24.3242 272.008 21.8837 269C20.1194 266.825 17.7778 265.071 16.1758 262.781C15.3977 261.668 14.7192 260.396 14.452 259.054C14.2009 257.792 14.3016 256.638 15.0672 255.577C16.734 253.269 20.811 252.129 23.4986 251.653Z"/><path fill="#11121A" d="M702.263 98.9032C705.817 98.5135 710.662 99.235 713.738 101.13C715.688 102.332 716.993 104.244 717.476 106.475C718.5 111.197 715.831 115.58 714.972 120.09C714.379 123.204 715.277 125.762 713.388 128.646C711.595 129.518 709.637 129.916 707.656 129.548C705.966 129.235 704.762 128.262 703.834 126.844C701.13 122.709 702.055 118.117 700.966 113.61C700.086 109.97 697.381 107.504 698.314 103.458C698.83 101.219 700.45 100.076 702.263 98.9032Z"/><path fill="#11121A" d="M725.319 54.3523C726.169 54.2922 727.02 54.2504 727.871 54.227C732.733 54.1101 737.49 57.0733 740.893 60.3346C743.62 62.9483 746.858 67.3444 746.864 71.2811C746.865 72.2792 746.616 73.2957 745.863 73.996C744.843 74.9429 743.5 74.7623 742.218 74.6995C736.993 73.8938 731.349 74.0391 726.325 72.3041C723.851 71.4496 721.5 70.0174 720.358 67.5674C719.227 65.1431 719.346 61.8966 720.304 59.4369C721.282 56.9253 722.914 55.4515 725.319 54.3523Z"/><path fill="#11121A" d="M750.626 44.1542C751.477 44.1543 752.354 44.1474 753.195 44.2789C759.961 45.3357 761.175 51.5026 764.495 56.2095C765.947 58.2677 767.874 59.9652 769.288 62.0627C770.271 63.5195 770.96 65.507 770.585 67.2765C770.026 69.9125 767.874 71.7526 765.712 73.1251C764.646 73.4084 763.33 73.6579 762.234 73.4866C761.184 73.3224 760.011 72.8795 759.294 72.071C757.095 69.59 755.77 65.6344 754.066 62.747C752.712 60.4541 750.965 58.3869 749.439 56.2068C748.505 54.8718 745.895 51.0473 746.29 49.4194C746.314 49.3203 746.351 49.2244 746.38 49.1267C747.091 46.7641 748.689 45.5033 750.626 44.1542Z"/><path fill="#11121A" d="M736.804 153.075C737.114 153.088 737.421 153.104 737.729 153.142C738.487 153.236 739.141 153.455 739.78 153.881C741.395 154.959 742.541 156.662 744.084 157.836C746.348 159.559 748.877 160.376 750.693 162.695C752.844 165.442 753.928 169.032 753.439 172.512C752.943 176.036 751.102 178.231 748.356 180.28L746.736 180.495C745.365 180.229 736.107 171.357 734.872 169.879C732.796 167.394 731.839 164.418 732.149 161.189C732.481 157.745 734.198 155.19 736.804 153.075Z"/><path fill="#11121A" d="M758.38 305.099C761.055 304.667 763.32 305.089 765.699 306.34C770.506 308.869 774.622 313.996 776.142 319.207C776.779 321.394 776.95 323.783 775.772 325.827C774.582 327.893 772.759 328.505 770.604 329.122C767.628 328.03 765.95 325.511 763.541 323.608C761.168 321.734 758.305 320.514 755.961 318.588C754.997 317.796 754.085 316.88 753.389 315.84C752.503 314.516 751.969 312.97 752.312 311.373C752.968 308.322 755.947 306.64 758.38 305.099Z"/><path fill="#11121A" d="M98.5641 68.5122C101.729 68.2909 104.356 69.312 106.9 71.1129C111.146 74.1199 115.065 79.4462 115.865 84.6732C116.154 86.5594 116.008 88.481 114.827 90.0525C113.499 91.8192 111.579 92.4089 109.482 92.6894C107.131 91.4503 105.468 89.283 103.409 87.6502C99.7922 84.7815 94.6723 83.0248 92.3743 78.7388C91.6352 77.3603 91.3072 75.8205 91.818 74.3068C92.757 71.5238 96.0692 69.7165 98.5641 68.5122Z"/><path fill="#11121A" d="M767.083 165.196C769.25 165.557 771.885 167.363 773.926 168.318C775.42 168.135 776.893 167.797 778.396 167.662C780.065 167.513 781.727 167.749 783.029 168.885C783.986 169.72 784.373 170.456 784.44 171.721C783.173 176.781 775.555 179.191 772.08 182.725L771.971 182.837C770.584 185.565 769.218 188.621 766.69 190.5C765.808 191.155 765.372 191.202 764.314 191.026C764.009 190.775 763.725 190.498 763.51 190.163C762.895 189.206 762.606 187.931 762.448 186.819C762.267 185.539 761.623 171.145 761.695 170.836C762.364 167.947 764.725 166.611 767.083 165.196Z"/><path fill="#11121A" d="M775.14 33.3248C776.63 33.2434 778.046 33.2035 779.506 33.5859C780.615 33.8761 781.588 34.4453 782.146 35.4781C783.651 38.261 782.002 42.3793 781.218 45.2249C781.794 47.1282 782.658 49.1463 782.064 51.1337C781.75 52.1824 781.219 53.1845 780.219 53.7119C778.268 54.7416 776.104 54.2116 774.117 53.6137C772.377 52.8355 770.606 51.9396 769.044 50.8441C766.323 48.9347 763.715 46.261 763.17 42.8522C762.879 41.0378 763.188 39.2228 764.29 37.7245C766.753 34.3746 771.362 33.9509 775.14 33.3248Z"/><path fill="#11121A" d="M706.569 139.569C706.825 139.57 707.076 139.58 707.33 139.62C711.798 140.331 717.614 147.692 720.01 151.121C722.009 153.983 724.291 157.96 723.567 161.579C723.209 163.369 722.224 164.128 720.77 165.117C720.245 165.236 719.713 165.344 719.174 165.367C716.717 165.469 713.825 163.18 712.09 161.574C708.223 157.995 703.681 152.439 703.521 146.925C703.431 143.817 704.505 141.765 706.569 139.569Z"/><path fill="#11121A" d="M28.9073 212.619C33.8656 213.772 39.4137 220.51 42.1702 224.435C44.157 227.264 46.2792 230.971 45.5881 234.554C45.1985 236.574 44.1297 237.4 42.4966 238.524C41.9832 238.577 41.4702 238.611 40.9538 238.596C37.8437 238.503 34.276 235.035 32.2768 232.861C28.88 229.167 25.2371 224.504 25.5311 219.197C25.6879 216.365 26.8644 214.491 28.9073 212.619Z"/><path fill="#11121A" d="M724.594 19.8078C725.123 19.8149 725.651 19.8531 726.176 19.922C728.532 20.2303 730.502 22.2229 731.694 24.0901C733.956 27.6315 741.461 35.7945 740.915 39.8808C740.319 41.3447 739.295 41.9309 738.034 42.8622C726.182 41.9977 715.01 30.1298 724.594 19.8078Z"/></svg>