<?xml version="1.0" encoding="utf-8" ?><svg xmlns="http://www.w3.org/2000/svg" xmlns:xlink="http://www.w3.org/1999/xlink" width="500" height="500" viewBox="0 0 500 500"><path fill="#FDFDFC" d="M0 0L500 0L500 500L0 500L0 0Z"/><path fill="#0B0A09" d="M139.406 122.872C138.162 118.638 136.557 116.658 134.063 113.044C125.958 101.242 118.276 89.169 109.757 77.6543C106.19 72.832 101.282 67.2777 98.9365 61.8516C96.679 56.6294 98.4873 52.2208 104.207 50.9432C116.38 48.2143 130.18 48.8071 142.519 50.1568C147.136 50.6619 155.48 52.7701 159.844 54.4859C187.359 65.3052 208.496 89.5363 215.584 118.229C216.701 122.749 217.294 128.33 219.311 132.209C232.071 132.559 244.884 129.94 257.191 132.383C263.707 141.582 262.573 149.713 268.175 157.892C274.524 160.222 282.496 163.276 289.238 162.644C290.718 161.661 291.814 160.386 293.034 159.095C292.98 151.96 291.519 145.243 291.457 137.958C291.359 115.153 300.334 93.2444 316.403 77.0616C334.512 58.6344 358.945 48.4804 384.776 49.0505C393.802 49.2497 408.643 49.0961 414.832 56.6626C414.772 59.3793 414.344 61.5312 413.133 63.9725C410.589 69.1024 406.402 73.4173 402.743 77.7663C397.496 84.0018 392.396 90.3613 387.077 96.5368C383.414 100.791 379.313 104.856 376.094 109.459C374.966 111.073 373.737 112.939 373.517 114.935C372.916 120.393 377.404 126.889 379.646 131.648C381.615 135.83 383.116 141.906 386.407 145.194C390.198 148.982 413.839 154.367 420.131 155.774C427.252 150.912 430.953 144.909 436.55 138.461C441.841 132.373 447.031 126.093 452.043 119.797C456.336 114.404 461.426 107.197 466.879 103.005C474.655 97.027 479.156 106.378 481.08 112.264C486.085 127.571 486.992 144.078 484.806 159.954C483.411 165.495 482.079 172.459 479.945 177.677C475.338 188.931 467.984 201.783 459.25 210.35C451.164 218.281 437.5 226.297 426.664 229.239C412.508 233.082 396.793 232.992 382.215 232.516C378.389 232.392 367.387 229.679 365.463 233.418C365.933 239.353 387.747 234.141 390.549 240.448C393.22 246.461 394.371 252.87 395.569 259.327C396.301 263.863 399.349 277.824 396.704 281.304C392.028 287.456 380.746 289.492 374.573 294.177C372.787 298.426 371.388 309.644 371.523 314.383C373.239 316.305 374.866 318.054 376.693 319.854C380.419 323.526 385.554 326.976 388.416 331.316C390.49 334.916 388.074 341.772 386.477 344.969C384.244 349.441 379.868 354.839 384.657 359.265C392.179 366.216 399.201 374.077 406.284 381.396C414.773 390.168 422.844 397.748 425.022 410.396C426.116 415.879 426.734 419.193 426.322 425.034C425.6 436.904 420.128 447.983 411.142 455.772C402.041 463.576 389.783 467.818 377.866 467.069C372.867 466.754 361.636 463.626 357.517 460.535C344.883 451.054 334.957 437.361 323.578 426.242C316.963 428.769 311.862 432.859 305.853 436.398C299.553 440.109 282.514 449.262 275.897 450.362C274.309 450.626 272.737 450.551 271.267 449.85C263.317 446.062 253.963 419.601 244.925 413.451C239.808 419.19 238.283 427.793 233.719 432.517C229.076 437.323 208.294 430.553 202.406 429.131C198.046 428.078 195.517 426.526 190.762 426.423C186.685 430.325 182.812 435.155 179.17 439.466C176.269 442.901 172.801 446.242 170.027 449.571C163.276 457.676 156.141 462.662 145.772 465.25C141.178 466.396 135.811 467.317 130.963 467.259C119.129 466.486 107.694 461.515 99.5456 452.903C90.5513 443.396 86.6739 432.233 87.0037 419.4C87.378 404.838 93.332 395.996 102.85 385.69C105.932 382.353 108.948 378.738 112.12 375.351C114.259 373.066 118.003 369.318 119.777 366.92C123.371 361.647 128.448 358.435 132.977 351.643C133.164 351.238 133.499 350.841 133.242 350.522C130.612 347.316 127.498 340.652 123.68 339.027C115.997 335.759 104.899 339.767 98.0022 334.73C95.5317 332.925 94.4841 324.574 93.7681 321.796C91.292 312.189 88.7492 304.086 89.5064 293.979C92.2064 291.771 93.9577 290.517 97.0486 288.797C102.656 285.675 108.102 283.702 112.913 279.307C113.667 273.873 115.077 263.669 111.652 259.215C109.14 255.948 96.9631 244.745 93.2738 243.133C89.5964 241.527 85.0517 240.959 81.1388 239.96C75.8584 238.611 70.8377 236.438 66.0224 233.912C31.2195 215.656 12.35 176.054 17.0967 137.428C18.252 128.026 24.1416 104.069 31.3685 98.4854C33.3335 96.9672 36.4328 95.644 38.9731 96.1347C40.903 96.5075 43.1323 99.5365 44.3074 100.989C47.9423 105.482 50.9776 110.476 54.2065 115.262C59.4648 123.058 64.7607 130.802 69.8589 138.705C73.5696 144.457 78.0213 153.33 83.219 157.547L83.5001 157.504C92.2372 156.247 113.106 156.26 120.403 152.322C121.61 151.67 122.554 150.652 123.38 149.572C125.519 146.774 126.935 143.45 128.817 140.481C132.446 134.756 137.391 129.461 139.406 122.872Z"/><path fill="#201B19" d="M119.777 366.92C123.371 361.647 128.448 358.435 132.977 351.643C133.166 352.033 133.64 352.755 133.303 353.311C130.627 357.731 125.602 363.042 121.658 366.413C121.481 366.564 120.728 366.433 119.777 366.92Z"/><path fill="#FDFDFC" d="M379.102 60.3531C385.089 59.8944 394.568 60.2601 399.895 62.8828C396.966 67.4629 393.102 71.5084 389.569 75.621C384.14 81.9424 378.926 88.456 373.584 94.8526C370.416 98.646 366.931 102.183 364.141 106.279C362.843 108.183 361.188 110.793 361.047 113.138C360.903 115.525 361.541 118.032 362.249 120.289C364.131 126.289 366.987 131.855 369.618 137.542C372.31 143.359 374.592 150.253 378.869 155.104C380.415 156.857 383.107 157.838 385.266 158.609C390.003 160.3 394.988 161.054 399.847 162.298C406.456 163.991 412.559 166.619 419.49 166.916C421.871 167.018 424.483 166.848 426.563 165.574C432.331 162.041 455.324 134.256 460.52 127.78C463.718 123.793 466.16 119.704 469.968 116.183C472.579 123.361 473.895 129.127 474.291 136.805C475.442 159.164 469.98 180.495 454.867 197.505C438.959 215.411 416.352 223.055 392.796 222.471C385.382 222.287 377.35 220.369 370.137 220.61C364.398 220.802 355.301 223.931 350.914 227.664C341.467 235.705 332.583 246.238 324.544 255.692C318.024 263.3 311.442 270.856 304.799 278.358L210.576 385.249C195.722 402.123 181.109 419.208 166.741 436.498C158.645 446.273 150.715 454.208 137.431 455.564C116.713 457.679 100.171 443.706 98.4975 422.977C96.9266 403.523 113.054 391.504 124.78 378.703C134.417 368.182 144.08 357.888 153.92 347.594L257.922 238.731C265.386 230.779 272.983 222.583 280.487 214.671C285.736 209.136 290.83 204.579 295.883 198.631C313.348 178.072 303.553 166.242 301.934 143.097C300.616 124.268 307.474 103.763 319.779 89.6C335.429 71.586 355.649 62.3055 379.102 60.3531Z"/><path fill="#0B0A09" d="M131.683 396.409C145.331 395.77 156.921 406.296 157.595 419.942C158.269 433.588 147.773 445.205 134.128 445.914C120.435 446.625 108.767 436.083 108.09 422.387C107.414 408.692 117.986 397.051 131.683 396.409Z"/><path fill="#FDFDFC" d="M131.094 406.688C139.086 405.734 146.343 411.428 147.318 419.417C148.294 427.407 142.62 434.679 134.633 435.677C126.615 436.678 119.309 430.977 118.329 422.957C117.35 414.936 123.071 407.645 131.094 406.688Z"/><path fill="#FDFDFC" d="M117.378 59.8369C122.335 59.1957 134.434 60.5047 139.432 61.3593C160.983 65.1512 180.194 77.2252 192.957 94.9987C206.416 114.474 210.962 138.751 205.463 161.777C203.634 169.513 200.311 177.008 198.828 184.67C198.013 188.877 198.095 197.875 199.556 201.893C202.697 210.531 210.793 220.248 216.422 227.73C221.501 234.395 226.497 241.122 231.408 247.912C229.487 250.418 225.891 253.727 223.561 255.985C218.452 248.628 213.484 241.246 207.751 234.348C203.092 228.741 197.824 226.754 190.619 227.466C178.544 228.658 165.849 241.295 170.675 253.955C172.908 259.81 178.096 266.025 181.777 271.234L193.497 288.002C190.5 291.883 188.152 293.818 184.414 296.854C180.224 289.215 174.374 281.635 169.472 274.416C163.983 266.334 158.607 258.139 153.211 249.991C140.714 230.797 133.952 233.409 113.291 233.703C95.3591 233.929 77.7932 228.623 62.9852 218.507C45.1038 206.045 32.9278 186.969 29.1532 165.503C26.4168 150.619 27.4223 135.349 32.0836 120.909C33.4375 116.715 35.1569 113.863 37.6106 110.295C44.9728 121.288 52.2602 132.331 59.4723 143.424C62.0865 147.444 64.9176 152.033 67.5017 155.993C69.5894 159.193 75.6011 167.791 79.5417 167.958C91.8661 168.48 117.006 167.102 127.925 162.562C130.972 161.296 145.916 133.19 148.067 129.298C150.761 124.332 150.336 120.013 148.643 116.513C145.44 109.892 140.646 104.049 136.624 98.1361C128.299 85.6358 119.813 73.2429 111.17 60.9602C113.293 60.5303 115.226 60.1475 117.378 59.8369Z"/><path fill="#FDFDFC" d="M353.219 242.431C354.313 242.724 355.39 245.786 358.298 246.474C365.347 248.14 374.37 246.552 380.935 248.72C383.549 252.95 385.801 270.248 386.62 275.806C382.225 277.767 363.47 285.456 363.164 290.547C362.633 299.421 359.895 310.103 359.683 318.715C364.332 325.39 371.901 329.362 377.409 336.476C375.266 344.59 369.598 353.307 365.484 360.764C359.016 359.957 353.277 358.601 346.912 357.404C344.307 356.914 340.592 356.669 337.892 356.442C332.237 360.696 318.657 373.706 314.244 379.008C314.767 385.361 315.783 390.3 316.969 396.546C317.461 399.138 317.775 402.656 318.112 405.343C311.161 409.039 301.174 414.528 293.525 416.452C289.171 417.547 279.736 398.98 274.106 397.964C267.709 396.809 260.95 398.095 254.811 398.677C251.58 398.874 242.931 399.175 240.441 400.341C235.519 402.646 229.572 417.787 227.301 422.882C218.213 421.366 209.961 419.877 201.08 417.285C206.686 408.819 217.823 397.399 224.899 389.245C228.639 384.935 232.347 380.598 236.023 376.233C239.926 371.593 242.795 367.94 247.217 363.776C272.528 363.156 291.676 353.754 307.945 334.343C322.628 316.826 326.095 297.532 324.263 275.462C334.494 264.784 342.867 252.264 353.219 242.431Z"/><path fill="#FDFDFC" d="M377.157 366.906C379.024 367.474 390.748 381.549 393.193 384.158C397.894 389.173 404.587 395.22 408.485 400.715C410.958 404.272 412.809 408.223 413.959 412.399C416.309 420.891 415.175 429.969 410.807 437.621C400.515 455.67 379.763 460.605 361.977 450.218C355.277 445.726 349.257 438.161 343.802 432.061C338.188 425.782 333.213 420.515 327.312 414.546C329.215 412.622 330.171 411.396 331.515 409.067C331.533 401.083 328.915 390.188 327.231 382.227C331.904 378.089 337.237 372.662 341.802 368.973C349.22 370.837 360.133 373.263 367.842 373.628C371.502 373.801 374.878 369.554 377.157 366.906Z"/><path fill="#0B0A09" d="M378.324 396.937C391.735 395.537 403.755 405.24 405.215 418.645C406.674 432.049 397.025 444.112 383.627 445.631C370.145 447.16 357.989 437.436 356.52 423.947C355.052 410.459 364.829 398.346 378.324 396.937Z"/><path fill="#FDFDFC" d="M379.334 407.188C387.081 406.36 394.048 411.927 394.952 419.665C395.856 427.403 390.357 434.426 382.628 435.405C374.791 436.398 367.65 430.806 366.734 422.96C365.818 415.114 371.479 408.027 379.334 407.188Z"/><path fill="#FDFDFC" d="M227.239 142.353C229.425 142.076 234.942 142.437 237.425 142.455C241.78 142.486 245.937 142.323 250.28 142.236C253.122 149.407 254.651 156.866 257.974 163.8C258.493 164.882 259.912 165.979 261.005 166.433C270.183 170.248 280.21 171.749 289.602 174.776C291.189 173.931 292.361 173.468 294.04 172.803C293.823 182.225 287.794 187.964 281.789 194.609C278.467 198.286 274.959 201.812 271.747 205.587L268.956 208.793C251.15 202.059 234.048 200.682 216.02 207.874C213.203 203.031 211.118 198.952 210.902 193.132C210.484 181.83 216.76 170.633 219.095 159.645C220.051 155.142 220.122 150.718 221.057 146.256C221.295 145.12 222.211 144.118 222.967 143.269C224.717 142.622 225.426 142.558 227.239 142.353Z"/><path fill="#FDFDFC" d="M115.304 245.817C118.263 245.626 131.203 245.574 133.215 247.09C140.987 252.947 147.912 264.739 153.332 272.726C154.328 274.194 158 279.69 158.262 280.797C159.284 285.107 159.083 290.966 159.834 295.351C161.011 302.216 163.341 309.15 165.484 315.761C161.911 320.141 157.689 323.877 153.901 328.033C149.387 332.984 145.325 338.423 140.163 342.774C139.109 342.287 135.244 335.028 134.043 333.428C130.631 328.631 127.381 327.563 121.654 327.727C117.001 327.86 111.359 327.769 106.766 327.095C103.622 318.469 102.036 309.628 100.119 300.678C108.368 294.858 115.154 293.338 123.584 286.248C124.474 279.176 124.647 271.992 125.313 264.887C125.571 262.136 125.569 259.218 125.582 256.454C122.74 252.587 117.239 249.021 115.304 245.817Z"/><path fill="#FDFDFC" d="M192.955 238.097C199.235 237.275 213.796 259.485 216.703 265.143C214.908 267.763 206.22 276.064 203.654 278.212C202.735 278.908 202.272 279.097 201.218 279.61C199.488 277.357 196.526 273.126 195.089 270.693C190.337 262.646 171.876 246.858 187.062 239.771C189.175 238.785 190.758 238.359 192.955 238.097Z"/><path fill="#FDFDFC" d="M234.086 213.608C238.561 212.922 258.605 213.233 259.573 218.007C258.541 221.81 248.45 231.491 245.313 234.814C243.44 236.751 242.427 237.685 240.195 239.155C235.642 234.851 225.148 221.649 222.927 216.016C226.226 213.954 230.27 213.886 234.086 213.608Z"/><path fill="#FDFDFC" d="M267.02 409.597C267.667 409.479 269.459 409.465 270.203 409.439C273.83 414.679 279.68 421.758 284.084 426.333C287.645 430.033 291.25 429.245 295.875 428.996C291.429 431.791 288.844 432.857 284.028 434.995C281.174 436.267 278.397 437.473 275.394 438.35C274.257 436.292 271.429 432.345 269.987 430.289C265.285 423.582 261.394 418.013 258.003 410.52C261.171 410.298 263.867 410.006 267.02 409.597Z"/><path fill="#FDFDFC" d="M310.503 289.718C312.471 290.486 313.757 291.181 313.346 293.588C311.757 302.893 307.339 318.249 300.32 324.528C299.527 323.702 298.713 322.725 297.953 321.853C291.726 314.968 288.983 312.188 296.655 304.918C301.441 300.383 305.677 294.396 310.503 289.718Z"/><path fill="#FDFDFC" d="M284.243 322.467C286.251 324.351 290.948 331.424 292.698 333.996C286.166 340.743 275.01 345.757 266.437 349.303C263.378 350.363 261.767 350.585 258.509 351.029C260.876 348.451 263.183 345.231 265.553 342.597C271.537 335.943 277.732 328.553 284.243 322.467Z"/><path fill="#9B9388" d="M173.223 300.109C175.851 301.651 175.921 303.297 175.744 306.176C174.158 304.551 173.255 302.38 173.223 300.109Z"/></svg>