<?xml version="1.0" encoding="utf-8" ?><svg xmlns="http://www.w3.org/2000/svg" xmlns:xlink="http://www.w3.org/1999/xlink" width="500" height="500" viewBox="0 0 500 500"><path fill="#121110" d="M133.387 21.8544C143.739 21.0989 156.582 23.8106 166.278 27.3604C187.01 35.1782 203.184 51.822 210.406 72.7693C211.419 75.6586 212.259 78.6061 212.919 81.5959C213.515 84.4186 213.94 88.5106 215.099 91.007C217.211 91.9106 221.931 90.8924 224.457 90.897C228.668 91.1006 241.566 89.6954 244.981 91.1557C252.128 94.2116 249.068 110.697 258.01 113.168C270.552 116.633 278.564 120.823 274.406 102.964C272.719 95.7143 274.242 81.4758 276.417 74.3686C286.984 36.8411 329.394 14.606 366.506 24.9243C370.08 25.9178 375.547 28.7247 372.93 33.2581C364.005 48.7054 349.028 60.5861 339.775 75.6232C338.832 78.4741 341.781 85.5472 343.08 87.8845C345.942 92.8245 348.429 104.726 355.332 105.606C360.955 106.322 375.914 114.105 380.215 109.605C391.422 97.8765 400.473 85.0953 411.09 72.834C415.989 67.1759 420.958 61.9436 425.408 72.1611C433.02 91.4239 432.36 113.713 424.261 132.791C412.381 160.726 385.82 175.873 355.853 174.511C351.799 174.327 333.66 171.723 332.167 175.291C332.924 179.491 350.397 177.037 352.606 179.817C358.142 186.785 358.698 201.346 359.766 209.781C360.993 219.475 345.573 220.05 340.565 225.514C340.042 227.556 338.558 239.479 338.842 240.892C340.598 248.015 356.782 253.238 352.817 261.917C349.419 269.354 344.085 280.706 338.695 286.84C334.601 291.5 319.291 283.243 314.26 285.502C312.455 286.614 307.659 291.62 307.45 293.566C307.232 295.601 316.184 309.437 317.657 309.911C318.076 310.046 324.959 309.003 326.293 308.897C328.599 308.691 330.92 308.75 333.212 309.071C339.744 310.026 341.933 312.776 345.587 317.657C347.512 316.389 349.84 314.177 351.632 312.618C354.021 310.533 356.534 308.595 359.157 306.815C368.719 300.368 384.881 294.239 390.342 310.19C391.296 312.978 390.606 317.793 391.906 320.588C392.387 321.622 394.524 320.447 395.122 320.076C401.714 315.695 408.596 310.686 417.041 312.262C430.544 314.784 422.357 331.593 424.787 335.113C427.221 336.032 434.52 328.09 439.701 328.02C447.567 327.914 454.999 333.162 455.071 341.375C455.17 352.614 448.924 363.401 444.425 373.355C441.2 380.353 437.787 386.991 433.952 393.493C430.338 399.608 426.441 405.55 422.273 411.301C417.267 418.213 411.357 424.531 406.062 431.229C402.091 436.251 398.646 441.614 395.22 447.015C391.474 452.92 386.96 459.274 383.976 465.557C382.141 469.422 381.615 474.563 378.704 477.738C376.294 480.366 372.807 483.542 369.063 483.634C367.92 483.662 366.833 483.342 366.03 482.495C360.418 476.577 381.996 446.347 385.713 440.338C389.723 433.856 392.932 427.06 397.496 420.909C406.771 408.41 417.664 397.277 427.026 384.886C433.363 376.498 438.489 367.831 442.827 358.268C444.704 354.13 447.034 349.354 447.123 344.734C447.161 342.778 446.619 340.995 445.162 339.623C443.675 338.223 441.146 337.847 439.19 338.011C437.861 338.11 436.564 338.472 435.376 339.076C426.089 343.878 410.099 365.945 403.59 374.517L386.807 396.666C382.095 402.916 377.111 408.746 372.256 414.999C368.209 420.422 364.127 429.128 356.662 430.004C353.048 430.428 348.365 426.385 349.039 423.01C351.735 408.909 369.498 401.091 378.087 391.071C386.42 381.349 393.901 371.256 402.798 361.889C407.865 356.554 412.574 347.254 415.313 340.547C417.397 335.443 422.213 320.166 411.672 321.197C409.895 321.366 408.173 321.906 406.619 322.782C396.47 328.574 379.634 350.03 371.833 359.249C368.136 363.202 363.526 369.082 359.907 373.343C350.419 384.639 340.792 395.817 331.03 406.876C328.299 409.923 325.545 412.961 322.799 415.994C319.581 419.548 317.429 422.099 312.801 423.718C312.34 423.543 311.869 423.362 311.42 423.157C310.389 422.691 309.6 421.815 309.243 420.741C308.558 418.733 309.913 415.422 311.285 414.011C318.329 406.77 324.89 399.151 331.608 391.624C336.994 385.492 343.212 379.783 348.459 373.547C358.924 361.111 369.605 348.128 377.869 334.111C381.07 328.788 382.409 320.177 380.513 314.178C378.185 306.813 367.076 313.821 363.887 316.554C356.741 322.677 351.132 329.476 345.293 336.661C340.586 342.502 335.836 348.309 331.044 354.081C323.013 363.794 314.723 373.291 306.183 382.561C300.125 389.031 291.987 396.332 286.351 402.732C274.174 417.285 265.697 409.07 276.802 394.69C285.136 383.897 293.486 373.455 304.478 365.078C312.628 358.867 319.485 351.363 325.941 343.397C329.938 338.465 340.135 330.711 337.982 323.879C337.387 321.997 336.051 320.438 334.282 319.561C332.515 318.69 329.982 318.616 328.01 318.817C314.297 320.217 303.419 330.54 292.632 338.029C285.21 343.172 277.407 347.847 270.374 353.54C250.59 369.545 231.326 385.962 210.247 400.306C205.774 403.349 192.172 413.386 185.976 411.037C183.599 410.136 178.076 403.933 176.116 401.76C154.743 378.052 136.024 352.098 117.864 325.898C115.962 323.04 114.893 320.23 112.473 317.676C105.016 309.805 83.725 299.24 90.9785 320.817C92.682 325.884 95.754 331.343 98.2319 336.339L110.821 361.609C115.507 371.074 119.523 380.764 123.783 390.419C127.813 399.557 133.702 408.079 135.133 418.125C136.324 426.48 134.955 434.522 134.359 442.835C133.996 448.395 134.565 454.06 133.904 459.657C133.5 463.079 132.724 466.446 131.591 469.699C130.214 473.533 126.185 479.075 122.172 477.015C115.617 473.651 118.476 457.663 118.339 452.119C118.216 447.167 117.429 443.707 117.365 439.313C117.235 430.447 117.55 422.322 117.399 413.524C116.571 392.057 106.648 371.685 97.2986 352.762C93.1792 344.822 89.6075 338.005 85.9681 329.722C82.4771 321.776 78.0051 304.336 89.1112 299.769C94.1713 297.689 103.152 299.812 107.763 302.421C110.206 303.803 112.826 305.706 115.518 306.878L115.834 307.012C117.367 305.616 121.967 299.591 123.972 297.387C127.522 293.444 131.113 289.539 134.746 285.673C137.606 282.666 144.523 276.13 145.945 272.637C144.777 269.556 141.185 263.654 137.963 262.208C133.526 260.216 121.283 262.998 117.86 259.2C112.485 251.92 111.349 237.748 110.438 229.196C109.471 220.113 126.637 219.16 129.002 213.117C129.649 211.465 130.055 200.323 130.036 198.04C128.064 194.541 123.105 191.912 120.08 189.147C118.372 187.587 116.85 185.558 115.234 184.2C114.42 183.525 113.52 182.961 112.558 182.523C110.216 181.454 104.564 180.161 101.877 179.417C70.9044 170.848 51.1034 143.562 48.1671 112.174C46.9031 96.7601 49.6179 78.3481 58.8573 65.6967C66.2253 55.6078 73.4392 69.8479 77.1896 75.2937C82.8855 83.528 88.4657 91.8418 93.9285 100.233C95.5902 102.752 99.2246 108.755 101.418 110.543C105.597 113.951 118.63 110.4 123.575 110.232C136.601 109.789 136.834 104.488 142.291 95.4264C151.02 80.9333 152.265 84.4547 143.028 70.7387C137.949 63.092 132.817 55.4806 127.633 47.905C124.411 43.1805 120.998 38.4553 118.123 33.5201C111.719 22.5307 126.662 22.271 133.387 21.8544ZM236.463 322.602C233.147 326.622 231.076 335.704 227.535 338.379C226.671 339.031 225.528 339.281 224.468 339.361C217.84 339.86 194.382 333.198 192.585 333.733C191.704 333.996 190.54 335.337 189.925 336.032C184.544 342.11 179.78 348.877 173.831 354.437C171.866 356.274 169.741 358.06 167.572 359.645C165.279 361.321 161.754 362.954 160.028 365.172C160.612 367.461 162.556 369.458 163.957 371.38C169.556 379.066 174.637 384.189 181.919 390.172C184.653 392.499 190.663 398.802 192.7 400.099C195.827 397.919 198.821 395.267 201.848 392.925C212.165 384.943 221.76 376.32 232.258 368.552C237.055 365.003 252.035 355.977 254.932 351.876C255.025 350.564 253.599 348.169 252.84 347.054C247.757 339.582 243.611 331.494 238.564 324.036C238.116 323.373 237.198 322.887 236.463 322.602ZM213.817 200.159C212.321 197.301 209.03 192.75 206.938 190.117C203.456 185.733 200.17 177.97 194.161 177.812C185.851 179.413 181.338 185.615 186.55 193.169C188.48 195.966 199.295 212.379 201.748 212.96C202.28 212.799 202.279 212.86 202.714 212.56C205.254 210.173 212.162 203.013 213.817 200.159ZM146.122 341.598C162.825 337.592 157.777 317.912 145.279 317.596C128.194 319.218 134.736 341.606 146.122 341.598ZM236.158 176.955C238.601 174.169 248.485 164.329 248.931 161.67C247.399 158.295 231.781 158.21 228.413 158.6C225.825 158.83 220.884 158.892 219.085 160.589C218.92 161.044 218.761 161.478 219.101 161.92C220.877 164.237 230.638 179.381 232.135 180.01C233.864 179.641 234.92 178.242 236.158 176.955ZM278.486 247.6C279.258 248.589 279.795 249.458 280.856 250.098C285.853 250.57 295.404 222.941 290.509 221.465C286.886 223.181 282.609 228.984 279.918 232.093C272.64 240.501 271.718 238.621 278.486 247.6Z"/><path fill="#FCFCF9" d="M342.074 31.8516C347.834 30.9625 356.014 32.4398 361.76 33.3796C360.58 35.0059 359.536 36.7181 358.319 38.3246C353.427 44.7804 348.069 50.9859 342.839 57.1737C339.402 61.2415 335.455 65.2011 332.432 69.5762C331.305 71.2074 329.472 74.1538 329.402 76.1755C329.346 77.7653 329.92 79.5881 330.432 81.0818C332.086 85.9149 341.572 107.863 344.208 110.567C346.601 113.022 372.564 120.445 376.733 120.493C379.018 120.519 381.619 120.019 383.529 118.737C388.232 115.578 392.358 109.225 396.007 104.848C399.58 100.561 403.396 96.4565 407.025 92.2119C410.718 87.8927 414.186 83.4064 418.257 79.4273C419.882 85.7709 420.843 86.5901 421.507 93.9651C423.133 112.008 418.094 130.899 406.451 144.847C393.993 159.771 374.458 167.429 355.244 166.242C349.005 165.857 342.864 164.621 336.783 165.016C331.27 165.373 324.404 168.573 320.346 172.3C313.299 178.771 306.443 187.216 300.178 194.508L271.711 227.483L233.262 272.302C221.969 285.271 210.454 298.047 199.427 311.26C192.656 319.555 185.011 327.796 178.1 336.095C173.929 341.104 168.907 347.317 163.964 351.394C160.978 353.858 157.042 355.285 153.429 356.581C152.044 354.346 149.595 351.674 147.797 349.673C153.864 348.426 159.163 345.842 162.224 340.214C164.908 335.28 165.354 328.098 163.776 322.776C162.344 317.97 159.047 313.938 154.621 311.58C149.111 308.619 141.112 308.81 135.751 312.063C132.153 314.246 129.967 317.768 128.046 321.396C126.201 319.703 123.603 316.786 123.391 314.214C123.214 312.548 124.696 310.708 125.661 309.464C130.017 303.844 134.892 298.759 139.722 293.552C147.274 285.412 154.617 276.984 162.203 268.885C171.023 259.538 179.969 250.31 189.037 241.203C206.297 223.671 222.613 204.786 239.386 186.776L264.892 159.285C272.421 151.237 279.179 146.11 283.773 135.876C288.994 124.242 283.745 114.959 282.459 103.149C278.408 65.9576 305.136 35.053 342.074 31.8516Z"/><path fill="#FCFCF9" d="M133.168 30.6065C137.472 30.1189 145.402 31.177 149.798 31.9676C167.224 35.1017 185.137 45.9246 194.873 60.8076C205.925 77.7047 208.967 97.6199 203.779 117.137C202.506 122.479 200.401 127.511 199.185 132.866C195.77 147.902 203.369 155.962 211.714 167.096C216.325 173.249 221.046 179.788 225.379 186.142C223.656 188.415 221.162 190.904 219.178 193.039C215.349 186.691 209.342 178.406 204.192 173.131C195.692 164.424 179.413 172.5 176.067 182.503C173.237 190.963 179.82 198.054 184.131 204.515C187.613 209.736 191.561 214.813 194.567 220.294C192.041 222.917 189.803 224.692 187.561 227.719C185.07 222.001 176.258 210.645 172.404 204.885C168.8 199.499 164.551 192.772 160.874 187.617C148.297 170.455 140.922 176.327 123.554 175.182C111.585 174.386 99.9596 170.844 89.5801 164.831C60.0153 147.541 48.5211 108.045 62.6586 76.4752C63.1694 75.3344 64.0571 73.9499 64.7003 72.8546C71.1549 81.803 77.415 90.8902 83.4761 100.11C86.8036 105.068 89.943 110.101 93.6236 114.814C96.4254 118.38 99.0403 121.02 104.336 120.747C113.837 120.258 129.829 119.656 138.564 116.398C141.04 115.474 147.201 104.345 148.906 101.267C152.239 95.2501 160.317 86.2792 157.451 78.8891C152.085 67.5301 142.973 56.2736 136.384 45.4385C133.357 40.4614 129.964 36.3956 127.149 31.2929C129.257 30.955 131.035 30.7889 133.168 30.6065Z"/><path fill="#FCFCF9" d="M324.603 182.434C325.509 182.917 327.12 185.011 328.249 185.375C333.784 187.157 340.276 186.207 346.14 187.278L346.493 187.344C348.77 192.247 350.624 204.007 350.925 209.468C345.189 213.316 338.89 215.792 332.942 219.773C331.94 222.784 331.707 228.374 331.253 231.695C330.715 235.627 330.059 239.379 329.379 243.287C331.268 248.167 339.855 255.383 344.006 259.761C342.184 265.938 336.979 274.199 333.249 279.572C326.579 278.433 319.505 275.739 312.917 276.069C310.355 276.197 304.66 283.046 302.693 285.141C299.813 288.209 294.791 292.031 292.475 295.32C292.722 301.421 295.568 308.829 295.831 315.764C291.2 319.569 280.478 323.987 274.625 325.521C271.333 321.701 267.932 317.937 264.814 313.968C260.194 308.088 251.382 310.907 244.688 311.296C241.007 311.467 236.338 311.406 232.855 312.529C230.916 313.154 229.109 317.028 228.253 318.855C226.439 322.727 224.434 326.483 222.43 330.278C217.531 330.066 205.514 327.727 200.9 325.948C204.539 320.03 212.975 311.629 217.629 306.307L230.215 291.749C231.302 290.474 237.237 283.073 238.138 282.979C257.474 280.971 270.777 276.311 284.515 261.51C299.083 245.813 301.644 230.85 300.606 209.874C302.818 206.82 305.439 204.193 307.846 201.296C313.343 194.679 318.57 188.571 324.603 182.434Z"/><path fill="#FCFCF9" d="M220.812 100.115C227.07 99.9291 234.844 99.9023 241.001 100.271C243.189 105.371 245.722 114.677 248.108 118.9C249.587 119.712 250.959 120.206 252.604 120.601C259.51 122.255 266.287 124.341 273.211 125.924C274.584 125.143 275.257 124.931 276.743 124.409C275.138 135.618 266.91 142.519 259.223 150.468C257.966 151.721 256.87 152.751 255.807 154.178C242.009 149.021 226.872 148.688 212.861 153.232C210.85 149.707 209.16 146.928 208.661 142.78C207.59 133.882 212.269 125.643 214.469 117.153C215.336 113.807 217.026 102.556 218.539 100.653C219.319 100.123 219.867 100.184 220.812 100.115Z"/><path fill="#FCFCF9" d="M134.214 185.114C141.394 184.892 145.831 185.482 150.514 191.375C153.158 194.703 155.297 198.115 157.698 201.676C160.317 205.561 163.917 209.432 165.852 213.749C166.506 215.568 166.651 222.425 167.049 224.971C168.128 231.881 170.058 236.943 172.332 243.398C169.827 246.606 166.613 249.161 163.908 252.078C159.851 256.452 155.111 261.274 151.342 265.846L150.059 263.351C143.881 251.54 142.392 253.906 130.526 253.002C128.396 252.853 126.281 252.545 124.197 252.08C122.001 246.692 119.604 236.402 119.331 230.69C125.021 226.215 132.462 223.989 137.273 218.804C137.582 217.391 137.739 216.008 137.787 214.564C138.014 207.732 139.27 200.697 138.97 193.877C136.561 190.927 132.416 187.611 129.321 185.29C130.911 185.272 132.616 185.176 134.214 185.114Z"/><path fill="#FCFCF9" d="M255.476 319.863C255.683 319.821 256.27 319.761 256.444 319.942C261.503 325.211 266.148 332.564 271.964 336.924C269.754 338.177 265.851 341.298 263.309 342.969C262.572 343.494 262.349 343.718 261.463 343.964C260.292 343.32 248.285 323.286 246.886 320.667C249.887 320.306 252.461 320.046 255.476 319.863Z"/><path fill="#FCFCF9" d="M267.995 248.678C269.591 249.692 273.624 256.305 274.676 258.142C270.028 263.396 261.259 267.56 254.805 270.006C252.553 270.817 250.983 270.995 248.62 271.321C251.068 266.418 263.555 252.799 267.995 248.678Z"/><path fill="#FCFCF9" d="M304.606 306.971C305.675 307.901 308.19 312.535 307.952 314.034C306.915 314.343 306.642 314.573 305.76 314.288C304.815 313.139 304.823 308.875 304.606 306.971Z"/><path fill="#744129" d="M178.335 231.399C180.095 231.992 180.76 234.163 180.314 235.865C178.647 235.081 178.504 233.018 178.335 231.399Z"/></svg>